<svg width="22" height="18" viewBox="0 0 22 18" fill="none" xmlns="http://www.w3.org/2000/svg">
<path d="M1.9095 7.82824L2.81811 8.24589L2.81811 8.24588L1.9095 7.82824ZM20.0913 10.1718L19.1827 9.75412L20.0913 10.1718ZM1.9095 10.1718L1.00089 10.5894H1.00089L1.9095 10.1718ZM20.0913 7.82824L19.1827 8.24588V8.24588L20.0913 7.82824ZM16.9678 2.75789C16.5041 2.45792 15.885 2.59066 15.585 3.05438C15.285 3.5181 15.4178 4.13719 15.8815 4.43716L16.9678 2.75789ZM6.1616 13.59C5.69622 13.2926 5.07787 13.4288 4.78049 13.8942C4.48311 14.3596 4.6193 14.9779 5.08469 15.2753L6.1616 13.59ZM2.20093 12.6017C2.53267 13.0432 3.15955 13.1322 3.6011 12.8005C4.04265 12.4687 4.13166 11.8418 3.79992 11.4003L2.20093 12.6017ZM12.8015 3.18005C13.3427 3.28992 13.8706 2.94022 13.9804 2.39897C14.0903 1.85772 13.7406 1.32989 13.1994 1.22002L12.8015 3.18005ZM19.7075 1.70711C20.098 1.31658 20.098 0.683418 19.7075 0.292893C19.317 -0.0976311 18.6838 -0.0976311 18.2933 0.292893L19.7075 1.70711ZM2.2933 16.2929C1.90278 16.6834 1.90278 17.3166 2.2933 17.7071C2.68383 18.0976 3.31699 18.0976 3.70752 17.7071L2.2933 16.2929ZM11.0004 1C6.56168 1 2.73907 3.62905 1.00089 7.4106L2.81811 8.24588C4.24213 5.14781 7.3715 3 11.0004 3V1ZM11.0004 17C15.4392 17 19.2618 14.371 21 10.5894L19.1827 9.75412C17.7587 12.8522 14.6293 15 11.0004 15V17ZM1.00089 7.4106C0.537465 8.41881 0.537464 9.5812 1.00089 10.5894L2.81811 9.75412C2.59839 9.2761 2.59839 8.7239 2.81811 8.24589L1.00089 7.4106ZM19.1827 8.24588C19.4025 8.7239 19.4025 9.2761 19.1827 9.75412L21 10.5894C21.4634 9.58119 21.4634 8.41881 21 7.4106L19.1827 8.24588ZM21 7.4106C20.1226 5.50182 18.7158 3.88861 16.9678 2.75789L15.8815 4.43716C17.3133 5.36336 18.4653 6.68497 19.1827 8.24588L21 7.4106ZM5.08469 15.2753C6.79347 16.3672 8.82458 17 11.0004 17V15C9.21745 15 7.55838 14.4826 6.1616 13.59L5.08469 15.2753ZM1.00089 10.5894C1.32986 11.3051 1.73322 11.9791 2.20093 12.6017L3.79992 11.4003C3.41693 10.8905 3.08699 10.3391 2.81811 9.75412L1.00089 10.5894ZM13.1994 1.22002C12.488 1.07563 11.7525 1 11.0004 1V3C11.6182 3 12.2204 3.06209 12.8015 3.18005L13.1994 1.22002ZM8.17199 11.8284C9.73409 13.3905 12.2667 13.3905 13.8288 11.8284L12.4146 10.4142C11.6336 11.1953 10.3673 11.1953 9.58621 10.4142L8.17199 11.8284ZM13.8288 11.8284C15.3909 10.2663 15.3909 7.73367 13.8288 6.17157L12.4146 7.58579C13.1957 8.36684 13.1957 9.63317 12.4146 10.4142L13.8288 11.8284ZM18.2933 0.292893L2.2933 16.2929L3.70752 17.7071L19.7075 1.70711L18.2933 0.292893Z" fill="#FFF9F9" fill-opacity="0.75"/>
</svg>
