<svg width="26" height="27" viewBox="0 0 26 27" fill="none" xmlns="http://www.w3.org/2000/svg">
<g filter="url(#filter0_d_252_988)">
<path d="M13 1.66675V3.33341M18.8926 4.10752L17.7141 5.28604M21.3333 10.0001H19.6667M18.8926 15.8926L17.7141 14.7141M13 16.6667V18.3334M8.28597 14.7141L7.10746 15.8926M6.33341 10.0002H4.66675M8.28594 5.2861L7.10743 4.10759M16.3333 10.0001C16.3333 11.841 14.841 13.3334 13 13.3334C11.1591 13.3334 9.66668 11.841 9.66668 10.0001C9.66668 8.15913 11.1591 6.66675 13 6.66675C14.841 6.66675 16.3333 8.15913 16.3333 10.0001Z" stroke="#FFF9F9" stroke-linecap="round"/>
</g>
<defs>
<filter id="filter0_d_252_988" x="-1" y="0" width="28" height="28" filterUnits="userSpaceOnUse" color-interpolation-filters="sRGB">
<feFlood flood-opacity="0" result="BackgroundImageFix"/>
<feColorMatrix in="SourceAlpha" type="matrix" values="0 0 0 0 0 0 0 0 0 0 0 0 0 0 0 0 0 0 127 0" result="hardAlpha"/>
<feOffset dy="4"/>
<feGaussianBlur stdDeviation="2"/>
<feComposite in2="hardAlpha" operator="out"/>
<feColorMatrix type="matrix" values="0 0 0 0 0 0 0 0 0 0 0 0 0 0 0 0 0 0 0.25 0"/>
<feBlend mode="normal" in2="BackgroundImageFix" result="effect1_dropShadow_252_988"/>
<feBlend mode="normal" in="SourceGraphic" in2="effect1_dropShadow_252_988" result="shape"/>
</filter>
</defs>
</svg>
