<svg width="24" height="24" viewBox="0 0 24 24" fill="none" xmlns="http://www.w3.org/2000/svg">
<path d="M2 8V5.2C2 4.0799 2 3.51984 2.21799 3.09202C2.40973 2.71569 2.71569 2.40973 3.09202 2.21799C3.51984 2 4.0799 2 5.2 2H8M16 2L18.8 2C19.9201 2 20.4802 2 20.908 2.21799C21.2843 2.40973 21.5903 2.7157 21.782 3.09202C22 3.51984 22 4.0799 22 5.2V8M22 16V18.8C22 19.9201 22 20.4802 21.782 20.908C21.5903 21.2843 21.2843 21.5903 20.908 21.782C20.4802 22 19.9201 22 18.8 22H16M8 22H5.2C4.0799 22 3.51984 22 3.09202 21.782C2.71569 21.5903 2.40973 21.2843 2.21799 20.908C2 20.4802 2 19.9201 2 18.8L2 16" stroke="#FFF9F9" stroke-width="2" stroke-linecap="round"/>
</svg>
