<svg width="24" height="24" viewBox="0 0 24 24" fill="none" xmlns="http://www.w3.org/2000/svg">
<g opacity="0.75">
<path fill-rule="evenodd" clip-rule="evenodd" d="M11.324 1.675C11.3852 1.54769 11.4811 1.44025 11.6007 1.36506C11.7203 1.28987 11.8587 1.24999 12 1.25C17.937 1.25 22.75 6.063 22.75 12C22.75 17.937 17.937 22.75 12 22.75C6.063 22.75 1.25 17.937 1.25 12C1.25 7.59 3.905 3.803 7.7 2.145C7.79076 2.102 7.88923 2.07767 7.98957 2.07344C8.08992 2.06922 8.19008 2.08519 8.28414 2.12041C8.37819 2.15563 8.46421 2.20938 8.5371 2.27848C8.60998 2.34757 8.66825 2.4306 8.70844 2.52264C8.74863 2.61467 8.76993 2.71385 8.77107 2.81427C8.77221 2.9147 8.75317 3.01433 8.71507 3.10725C8.67698 3.20018 8.62061 3.28451 8.54931 3.35524C8.47801 3.42597 8.39323 3.48166 8.3 3.519C6.26886 4.40499 4.62329 5.99071 3.66267 7.98763C2.70206 9.98456 2.49025 12.26 3.06578 14.3999C3.64131 16.5398 4.96593 18.402 6.79864 19.6477C8.63135 20.8933 10.8503 21.4397 13.0519 21.1873C15.2534 20.9349 17.2912 19.9006 18.7945 18.2725C20.2977 16.6444 21.1665 14.5307 21.2429 12.3161C21.3192 10.1014 20.5979 7.93295 19.2103 6.20523C17.8227 4.47751 15.8609 3.30534 13.682 2.902L14.586 4.032C14.7103 4.18742 14.7677 4.38583 14.7456 4.58359C14.7236 4.78134 14.6239 4.96225 14.4685 5.0865C14.3131 5.21075 14.1147 5.26818 13.9169 5.24614C13.7192 5.22411 13.5383 5.12442 13.414 4.969L11.414 2.469C11.3257 2.35859 11.2704 2.22547 11.2545 2.08498C11.2385 1.9445 11.2626 1.80237 11.324 1.675ZM10.324 7.824C10.4515 7.88507 10.5591 7.98094 10.6345 8.10055C10.7099 8.22015 10.7499 8.35863 10.75 8.5V15.5C10.75 15.6989 10.671 15.8897 10.5303 16.0303C10.3897 16.171 10.1989 16.25 10 16.25C9.80109 16.25 9.61032 16.171 9.46967 16.0303C9.32902 15.8897 9.25 15.6989 9.25 15.5V10.06L7.969 11.086C7.81358 11.2104 7.61512 11.2679 7.41727 11.246C7.21942 11.2241 7.03839 11.1244 6.914 10.969C6.78961 10.8136 6.73206 10.6151 6.754 10.4173C6.77594 10.2194 6.87558 10.0384 7.031 9.914L9.531 7.914C9.64141 7.82568 9.77453 7.77037 9.91502 7.75445C10.0555 7.73853 10.1966 7.76264 10.324 7.824ZM14.25 9.25C13.9848 9.25 13.7304 9.35536 13.5429 9.54289C13.3554 9.73043 13.25 9.98478 13.25 10.25V13.75C13.25 14.0152 13.3554 14.2696 13.5429 14.4571C13.7304 14.6446 13.9848 14.75 14.25 14.75C14.5152 14.75 14.7696 14.6446 14.9571 14.4571C15.1446 14.2696 15.25 14.0152 15.25 13.75V10.25C15.25 9.98478 15.1446 9.73043 14.9571 9.54289C14.7696 9.35536 14.5152 9.25 14.25 9.25ZM11.75 10.25C11.75 9.58696 12.0134 8.95107 12.4822 8.48223C12.9511 8.01339 13.587 7.75 14.25 7.75C14.913 7.75 15.5489 8.01339 16.0178 8.48223C16.4866 8.95107 16.75 9.58696 16.75 10.25V13.75C16.75 14.413 16.4866 15.0489 16.0178 15.5178C15.5489 15.9866 14.913 16.25 14.25 16.25C13.587 16.25 12.9511 15.9866 12.4822 15.5178C12.0134 15.0489 11.75 14.413 11.75 13.75V10.25Z" fill="#FFF9F9"/>
</g>
</svg>
