<svg width="24" height="18" viewBox="0 0 24 18" fill="none" xmlns="http://www.w3.org/2000/svg">
<path d="M3.73009 16.455L3.2761 17.346L3.73009 16.455ZM1.00005 8.99998H2.00005H1.00005ZM1.54501 14.2699L0.654007 14.7239L0.654007 14.7239L1.54501 14.2699ZM22.4551 14.2699L21.5641 13.8159V13.8159L22.4551 14.2699ZM20.27 16.455L19.816 15.564L20.27 16.455ZM20.27 1.54497L19.816 2.43597V2.43597L20.27 1.54497ZM22.455 3.73005L21.564 4.18404V4.18404L22.455 3.73005ZM3.73005 1.54497L4.18404 2.43597L3.73005 1.54497ZM1.54497 3.73005L2.43597 4.18404L1.54497 3.73005ZM5 7C4.44772 7 4 7.44772 4 8C4 8.55228 4.44772 9 5 9L5 7ZM8 9C8.55229 9 9 8.55229 9 8C9 7.44772 8.55229 7 8 7V9ZM16 11C15.4477 11 15 11.4477 15 12C15 12.5523 15.4477 13 16 13V11ZM19 13C19.5523 13 20 12.5523 20 12C20 11.4477 19.5523 11 19 11V13ZM12 7C11.4477 7 11 7.44772 11 8C11 8.55228 11.4477 9 12 9V7ZM19 9C19.5523 9 20 8.55229 20 8C20 7.44772 19.5523 7 19 7V9ZM5 11C4.44772 11 4 11.4477 4 12C4 12.5523 4.44772 13 5 13L5 11ZM12 13C12.5523 13 13 12.5523 13 12C13 11.4477 12.5523 11 12 11V13ZM9 2H15V0H9V2ZM15 16H9.00005V18H15V16ZM9.00005 16C7.58342 16 6.58109 15.9992 5.79749 15.9352C5.02557 15.8721 4.55439 15.7527 4.18408 15.564L3.2761 17.346C3.97535 17.7023 4.73902 17.8554 5.63463 17.9285C6.51856 18.0008 7.61642 18 9.00005 18V16ZM4.57764e-05 8.99998C4.57764e-05 10.3836 -0.000731945 11.4815 0.0714878 12.3654C0.144661 13.261 0.297722 14.0247 0.654007 14.7239L2.43602 13.8159C2.24734 13.4456 2.12791 12.9745 2.06485 12.2025C2.00082 11.4189 2.00005 10.4166 2.00005 8.99998H4.57764e-05ZM4.18408 15.564C3.43144 15.1805 2.81951 14.5686 2.43602 13.8159L0.654007 14.7239C1.22925 15.8529 2.14713 16.7708 3.2761 17.346L4.18408 15.564ZM22 8.99998C22 10.4166 21.9993 11.4189 21.9352 12.2025C21.8722 12.9745 21.7528 13.4456 21.5641 13.8159L23.3461 14.7239C23.7024 14.0247 23.8554 13.261 23.9286 12.3654C24.0008 11.4815 24 10.3836 24 8.99998H22ZM15 18C16.3837 18 17.4815 18.0008 18.3655 17.9285C19.2611 17.8554 20.0247 17.7023 20.724 17.346L19.816 15.564C19.4457 15.7527 18.9745 15.8721 18.2026 15.9352C17.419 15.9992 16.4167 16 15 16V18ZM21.5641 13.8159C21.1806 14.5686 20.5687 15.1805 19.816 15.564L20.724 17.346C21.853 16.7708 22.7708 15.8529 23.3461 14.7239L21.5641 13.8159ZM15 2C16.4166 2 17.419 2.00078 18.2026 2.0648C18.9745 2.12787 19.4457 2.24729 19.816 2.43597L20.7239 0.653961C20.0247 0.297677 19.261 0.144616 18.3654 0.071442C17.4815 -0.000777721 16.3836 0 15 0V2ZM24 8.99998C24 7.61634 24.0008 6.51848 23.9286 5.63455C23.8554 4.73895 23.7023 3.97529 23.346 3.27606L21.564 4.18404C21.7527 4.55436 21.8721 5.02554 21.9352 5.79745C21.9993 6.58103 22 7.58336 22 8.99998H24ZM19.816 2.43597C20.5686 2.81947 21.1805 3.43139 21.564 4.18404L23.346 3.27606C22.7708 2.14708 21.8529 1.2292 20.7239 0.653961L19.816 2.43597ZM9 0C7.61637 0 6.51851 -0.000777721 5.63458 0.071442C4.73898 0.144616 3.9753 0.297677 3.27606 0.653961L4.18404 2.43597C4.55435 2.24729 5.02552 2.12787 5.79744 2.0648C6.58104 2.00078 7.58337 2 9 2V0ZM2.00005 8.99998C2.00005 7.58359 2.00082 6.58123 2.06484 5.79756C2.12791 5.02553 2.24733 4.55427 2.43597 4.18404L0.653961 3.27606C0.297682 3.97529 0.144644 4.73911 0.071481 5.63472C-0.000731587 6.51871 4.57764e-05 7.61658 4.57764e-05 8.99998H2.00005ZM3.27606 0.653961C2.14708 1.2292 1.2292 2.14708 0.653961 3.27606L2.43597 4.18404C2.81947 3.43139 3.43139 2.81947 4.18404 2.43597L3.27606 0.653961ZM5 9H8V7L5 7L5 9ZM16 13H19V11H16V13ZM12 9H19V7L12 7V9ZM5 13L12 13V11L5 11L5 13Z" fill="#FFF9F9"/>
</svg>
