<svg width="48" height="48" viewBox="0 0 48 48" fill="none" xmlns="http://www.w3.org/2000/svg">
<path d="M31.7953 30.1125C32.9297 29.5031 34.2281 29.1562 35.6109 29.1562H35.6156C35.7562 29.1562 35.8219 28.9875 35.7187 28.8938C34.2807 27.6032 32.638 26.5608 30.8578 25.8094C30.8391 25.8 30.8203 25.7953 30.8016 25.7859C33.7125 23.6719 35.6062 20.2359 35.6062 16.3594C35.6062 9.9375 30.4125 4.73438 24.0047 4.73438C17.5969 4.73438 12.4078 9.9375 12.4078 16.3594C12.4078 20.2359 14.3016 23.6719 17.2172 25.7859C17.1984 25.7953 17.1797 25.8 17.1609 25.8094C15.0656 26.6953 13.1859 27.9656 11.5687 29.5875C9.9609 31.1924 8.68084 33.095 7.79999 35.1891C6.93334 37.2397 6.46561 39.4367 6.42187 41.6625C6.42062 41.7125 6.42939 41.7623 6.44768 41.8089C6.46596 41.8555 6.49339 41.8979 6.52833 41.9337C6.56328 41.9696 6.60505 41.998 6.65116 42.0175C6.69728 42.0369 6.74683 42.0469 6.79687 42.0469H9.60468C9.80624 42.0469 9.97499 41.8828 9.97968 41.6813C10.0734 38.0625 11.5219 34.6734 14.0859 32.1047C16.7344 29.4469 20.2594 27.9844 24.0094 27.9844C26.6672 27.9844 29.2172 28.7203 31.4156 30.0984C31.4721 30.1339 31.5369 30.1539 31.6036 30.1564C31.6702 30.1588 31.7364 30.1437 31.7953 30.1125ZM24.0094 24.4219C21.8625 24.4219 19.8422 23.5828 18.3187 22.0594C17.5692 21.3118 16.975 20.4232 16.5703 19.445C16.1656 18.4667 15.9585 17.418 15.9609 16.3594C15.9609 14.2078 16.8 12.1828 18.3187 10.6594C19.8375 9.13594 21.8578 8.29688 24.0094 8.29688C26.1609 8.29688 28.1766 9.13594 29.7 10.6594C30.4495 11.407 31.0438 12.2955 31.4484 13.2738C31.8531 14.2521 32.0602 15.3007 32.0578 16.3594C32.0578 18.5109 31.2187 20.5359 29.7 22.0594C28.1766 23.5828 26.1562 24.4219 24.0094 24.4219ZM41.25 35.5781H37.3125V31.6406C37.3125 31.4344 37.1437 31.2656 36.9375 31.2656H34.3125C34.1062 31.2656 33.9375 31.4344 33.9375 31.6406V35.5781H30C29.7937 35.5781 29.625 35.7469 29.625 35.9531V38.5781C29.625 38.7844 29.7937 38.9531 30 38.9531H33.9375V42.8906C33.9375 43.0969 34.1062 43.2656 34.3125 43.2656H36.9375C37.1437 43.2656 37.3125 43.0969 37.3125 42.8906V38.9531H41.25C41.4562 38.9531 41.625 38.7844 41.625 38.5781V35.9531C41.625 35.7469 41.4562 35.5781 41.25 35.5781Z" fill="#FFF9F9"/>
</svg>
