<svg width="44" height="44" viewBox="0 0 44 44" fill="none" xmlns="http://www.w3.org/2000/svg">
<rect width="44" height="44" rx="22" fill="#1C1B1B"/>
<path d="M15.0119 26.9644L15.9606 27.2806H15.9606L15.0119 26.9644ZM15.7611 24.7168L14.8124 24.4006H14.8124L15.7611 24.7168ZM16.5341 23.466L17.2413 24.1731L17.2413 24.1731L16.5341 23.466ZM24 16.0002L23.2929 15.2931V15.2931L24 16.0002ZM28 20.0002L28.7071 20.7073H28.7071L28 20.0002ZM20.5341 27.466L19.827 26.7589L19.827 26.7589L20.5341 27.466ZM19.2833 28.2391L19.5996 29.1878H19.5996L19.2833 28.2391ZM17.0358 28.9883L17.352 29.9369L17.352 29.9369L17.0358 28.9883ZM20.1241 27.8488L19.5219 27.0504L19.5219 27.0504L20.1241 27.8488ZM19.809 28.0435L19.3643 27.1478L19.809 28.0435ZM28.9636 17.1122L28.0676 17.5562V17.5562L28.9636 17.1122ZM28.9636 18.8882L28.0676 18.4442V18.4442L28.9636 18.8882ZM25.112 15.0366L25.556 15.9326V15.9326L25.112 15.0366ZM26.888 15.0366L26.444 15.9326V15.9326L26.888 15.0366ZM15.9567 24.1911L16.8524 24.6358L16.8524 24.6358L15.9567 24.1911ZM16.1514 23.8761L15.3531 23.2738L15.3531 23.2738L16.1514 23.8761ZM14.6392 28.7549L13.6973 29.0908L14.6392 28.7549ZM15.2452 29.361L14.9094 30.3029L14.9094 30.3029L15.2452 29.361ZM23.7071 16.2931C23.3166 15.9026 22.6834 15.9026 22.2929 16.2931C21.9024 16.6836 21.9024 17.3168 22.2929 17.7073L23.7071 16.2931ZM26.2929 21.7073C26.6834 22.0979 27.3166 22.0979 27.7071 21.7073C28.0976 21.3168 28.0976 20.6836 27.7071 20.2931L26.2929 21.7073ZM22 29.0002C21.4477 29.0002 21 29.4479 21 30.0002C21 30.5525 21.4477 31.0002 22 31.0002V29.0002ZM29 31.0002C29.5523 31.0002 30 30.5525 30 30.0002C30 29.4479 29.5523 29.0002 29 29.0002V31.0002ZM15.9606 27.2806L16.7098 25.0331L14.8124 24.4006L14.0632 26.6482L15.9606 27.2806ZM17.2413 24.1731L24.7071 16.7073L23.2929 15.2931L15.827 22.7589L17.2413 24.1731ZM27.2929 19.2931L19.827 26.7589L21.2413 28.1731L28.7071 20.7073L27.2929 19.2931ZM18.9671 27.2904L16.7195 28.0396L17.352 29.9369L19.5996 29.1878L18.9671 27.2904ZM19.827 26.7589C19.609 26.977 19.5648 27.0181 19.5219 27.0504L20.7263 28.6471C20.9059 28.5116 21.0609 28.3535 21.2413 28.1731L19.827 26.7589ZM19.5996 29.1878C19.8415 29.1071 20.0523 29.0392 20.2537 28.9392L19.3643 27.1478C19.3162 27.1717 19.2597 27.1929 18.9671 27.2904L19.5996 29.1878ZM19.5219 27.0504C19.4725 27.0877 19.4197 27.1203 19.3643 27.1478L20.2537 28.9392C20.42 28.8566 20.5782 28.7588 20.7263 28.6471L19.5219 27.0504ZM27.2929 16.7073C27.8952 17.3096 28.0131 17.4462 28.0676 17.5562L29.8596 16.6681C29.6226 16.1899 29.1953 15.7812 28.7071 15.2931L27.2929 16.7073ZM28.7071 20.7073C29.1953 20.2191 29.6226 19.8104 29.8596 19.3322L28.0676 18.4442C28.0131 18.5542 27.8952 18.6907 27.2929 19.2931L28.7071 20.7073ZM28.0676 17.5562C28.2062 17.8359 28.2062 18.1644 28.0676 18.4442L29.8596 19.3322C30.2755 18.4929 30.2755 17.5075 29.8596 16.6681L28.0676 17.5562ZM24.7071 16.7073C25.3094 16.105 25.446 15.9871 25.556 15.9326L24.6679 14.1406C24.1897 14.3775 23.781 14.8049 23.2929 15.2931L24.7071 16.7073ZM28.7071 15.2931C28.2189 14.8049 27.8102 14.3775 27.332 14.1406L26.444 15.9326C26.554 15.9871 26.6905 16.105 27.2929 16.7073L28.7071 15.2931ZM25.556 15.9326C25.8357 15.794 26.1642 15.794 26.444 15.9326L27.332 14.1406C26.4927 13.7246 25.5073 13.7246 24.6679 14.1406L25.556 15.9326ZM16.7098 25.0331C16.8073 24.7405 16.8285 24.684 16.8524 24.6358L15.061 23.7464C14.961 23.9479 14.8931 24.1587 14.8124 24.4006L16.7098 25.0331ZM15.827 22.7589C15.6467 22.9393 15.4886 23.0943 15.3531 23.2738L16.9497 24.4783C16.9821 24.4354 17.0232 24.3912 17.2413 24.1731L15.827 22.7589ZM16.8524 24.6358C16.8799 24.5804 16.9125 24.5277 16.9497 24.4783L15.3531 23.2738C15.2413 23.422 15.1436 23.5802 15.061 23.7464L16.8524 24.6358ZM14.0632 26.6482C13.9067 27.1178 13.7664 27.5356 13.6865 27.8755C13.6101 28.2006 13.538 28.6439 13.6973 29.0908L15.5811 28.419C15.6246 28.5411 15.576 28.5777 15.6335 28.333C15.6875 28.1031 15.7914 27.7881 15.9606 27.2806L14.0632 26.6482ZM16.7195 28.0396C16.2121 28.2087 15.897 28.3127 15.6672 28.3667C15.4225 28.4242 15.4591 28.3755 15.5811 28.419L14.9094 30.3029C15.3563 30.4622 15.7996 30.3901 16.1247 30.3137C16.4646 30.2338 16.8824 30.0935 17.352 29.9369L16.7195 28.0396ZM13.6973 29.0908C13.899 29.6563 14.3439 30.1012 14.9094 30.3029L15.5811 28.419L15.5811 28.419L13.6973 29.0908ZM22.2929 17.7073L26.2929 21.7073L27.7071 20.2931L23.7071 16.2931L22.2929 17.7073ZM22 31.0002H29V29.0002H22V31.0002Z" fill="#FFF9F9"/>
</svg>
