<svg width="8" height="10" viewBox="0 0 8 10" fill="none" xmlns="http://www.w3.org/2000/svg">
<path d="M2 3.5V2.5C2 1.39543 2.89543 0.5 4 0.5C5.10457 0.5 6 1.39543 6 2.5V3.5M2.1 9.5H5.9C6.46005 9.5 6.74008 9.5 6.95399 9.39101C7.14215 9.29513 7.29513 9.14215 7.39101 8.95399C7.5 8.74008 7.5 8.46005 7.5 7.9V5.1C7.5 4.53995 7.5 4.25992 7.39101 4.04601C7.29513 3.85785 7.14215 3.70487 6.95399 3.60899C6.74008 3.5 6.46005 3.5 5.9 3.5H2.1C1.53995 3.5 1.25992 3.5 1.04601 3.60899C0.857847 3.70487 0.704867 3.85785 0.608993 4.04601C0.5 4.25992 0.5 4.53995 0.5 5.1V7.9C0.5 8.46005 0.5 8.74008 0.608993 8.95399C0.704867 9.14215 0.857847 9.29513 1.04601 9.39101C1.25992 9.5 1.53995 9.5 2.1 9.5Z" stroke="#FFF9F9" stroke-width="0.5" stroke-linecap="round"/>
</svg>
