<svg width="20" height="20" viewBox="0 0 20 20" fill="none" xmlns="http://www.w3.org/2000/svg">
    <path fill-rule="evenodd" clip-rule="evenodd"
        d="M6.92857 2.46984C5.65735 2.32776 4.34144 2.32776 3.07023 2.46984C2.76134 2.50436 2.51774 2.74895 2.483 3.04601C2.33119 4.34395 2.33119 5.65516 2.483 6.9531C2.51774 7.25016 2.76134 7.49475 3.07023 7.52927C4.34144 7.67135 5.65735 7.67135 6.92857 7.52927C7.23746 7.49475 7.48106 7.25016 7.5158 6.9531C7.66761 5.65516 7.66761 4.34395 7.5158 3.04601C7.48106 2.74895 7.23746 2.50436 6.92857 2.46984ZM2.90362 0.979121C4.28556 0.824668 5.71323 0.824668 7.09518 0.979121C8.08602 1.08986 8.88846 1.86985 9.00564 2.87176C9.17099 4.28547 9.17099 5.71364 9.00564 7.12735C8.88846 8.12926 8.08602 8.90925 7.09518 9.01999C5.71323 9.17444 4.28556 9.17444 2.90362 9.01999C1.91278 8.90925 1.11033 8.12926 0.993151 7.12735C0.827804 5.71364 0.827804 4.28547 0.993151 2.87176C1.11033 1.86985 1.91278 1.08986 2.90362 0.979121Z"
        fill="#FFF9F9" />
    <path fill-rule="evenodd" clip-rule="evenodd"
        d="M6.92857 12.4698C5.65735 12.3278 4.34144 12.3278 3.07023 12.4698C2.76134 12.5044 2.51774 12.749 2.483 13.046C2.33119 14.344 2.33119 15.6552 2.483 16.9531C2.51774 17.2502 2.76134 17.4948 3.07023 17.5293C4.34144 17.6714 5.65735 17.6714 6.92857 17.5293C7.23746 17.4948 7.48106 17.2502 7.5158 16.9531C7.66761 15.6552 7.66761 14.344 7.5158 13.046C7.48106 12.749 7.23746 12.5044 6.92857 12.4698ZM2.90362 10.9791C4.28556 10.8247 5.71323 10.8247 7.09518 10.9791C8.08602 11.0899 8.88846 11.8698 9.00564 12.8718C9.17099 14.2855 9.17099 15.7136 9.00564 17.1274C8.88846 18.1293 8.08602 18.9093 7.09518 19.02C5.71323 19.1744 4.28556 19.1744 2.90362 19.02C1.91278 18.9093 1.11033 18.1293 0.993151 17.1274C0.827804 15.7136 0.827804 14.2855 0.993151 12.8718C1.11033 11.8699 1.91278 11.0899 2.90362 10.9791Z"
        fill="#FFF9F9" />
    <path fill-rule="evenodd" clip-rule="evenodd"
        d="M16.9286 2.46984C15.6574 2.32776 14.3414 2.32776 13.0702 2.46984C12.7613 2.50436 12.5177 2.74895 12.483 3.04601C12.3312 4.34395 12.3312 5.65516 12.483 6.9531C12.5177 7.25016 12.7613 7.49475 13.0702 7.52927C14.3414 7.67135 15.6574 7.67135 16.9286 7.52927C17.2375 7.49475 17.4811 7.25016 17.5158 6.9531C17.6676 5.65516 17.6676 4.34395 17.5158 3.04601C17.4811 2.74895 17.2375 2.50436 16.9286 2.46984ZM12.9036 0.979121C14.2856 0.824668 15.7132 0.824668 17.0952 0.979121C18.086 1.08986 18.8885 1.86985 19.0056 2.87176C19.171 4.28547 19.171 5.71364 19.0056 7.12735C18.8885 8.12926 18.086 8.90925 17.0952 9.01999C15.7132 9.17444 14.2856 9.17444 12.9036 9.01999C11.9128 8.90925 11.1103 8.12926 10.9932 7.12735C10.8278 5.71364 10.8278 4.28547 10.9932 2.87176C11.1103 1.86985 11.9128 1.08986 12.9036 0.979121Z"
        fill="#FFF9F9" />
    <path fill-rule="evenodd" clip-rule="evenodd"
        d="M16.9286 12.4698C15.6574 12.3278 14.3414 12.3278 13.0702 12.4698C12.7613 12.5044 12.5177 12.749 12.483 13.046C12.3312 14.344 12.3312 15.6552 12.483 16.9531C12.5177 17.2502 12.7613 17.4948 13.0702 17.5293C14.3414 17.6714 15.6574 17.6714 16.9286 17.5293C17.2375 17.4948 17.4811 17.2502 17.5158 16.9531C17.6676 15.6552 17.6676 14.344 17.5158 13.046C17.4811 12.749 17.2375 12.5044 16.9286 12.4698ZM12.9036 10.9791C14.2856 10.8247 15.7132 10.8247 17.0952 10.9791C18.086 11.0899 18.8885 11.8698 19.0056 12.8718C19.171 14.2855 19.171 15.7136 19.0056 17.1274C18.8885 18.1293 18.086 18.9093 17.0952 19.02C15.7132 19.1744 14.2856 19.1744 12.9036 19.02C11.9128 18.9093 11.1103 18.1293 10.9932 17.1274C10.8278 15.7136 10.8278 14.2855 10.9932 12.8718C11.1103 11.8699 11.9128 11.0899 12.9036 10.9791Z"
        fill="#FFF9F9" />
</svg>