<svg width="16" height="19" viewBox="0 0 16 19" fill="none" xmlns="http://www.w3.org/2000/svg">
    <path
        d="M9.79674 1.13597C8.81432 0.121347 7.18708 0.121345 6.20466 1.13596L1.40619 6.09169C1.13061 6.37631 0.94542 6.73612 0.873963 7.12579C0.291204 10.3038 0.248187 13.5572 0.746721 16.7495L0.923223 17.8797C0.978972 18.2367 1.28644 18.4998 1.64774 18.4998H5.0007C5.27685 18.4998 5.5007 18.276 5.5007 17.9998V10.9998H10.5007V17.9998C10.5007 18.276 10.7246 18.4998 11.0007 18.4998H14.3536C14.7149 18.4998 15.0224 18.2367 15.0781 17.8797L15.2546 16.7495C15.7532 13.5572 15.7102 10.3038 15.1274 7.12579C15.0559 6.73612 14.8708 6.37631 14.5952 6.0917L9.79674 1.13597Z"
        fill="#FFF9F9" />
</svg>