<svg width="24" height="24" viewBox="0 0 24 24" fill="none" xmlns="http://www.w3.org/2000/svg">
<path d="M8.0625 23V14.1575C8.0625 13.4598 8.65013 12.8943 9.375 12.8943H14.625C15.3499 12.8943 15.9375 13.4598 15.9375 14.1575V23M1.5 20.4736V10.9249C1.5 9.40937 2.20679 7.97388 3.4255 7.01419L10.3378 1.57108C11.3047 0.80964 12.6953 0.809639 13.6622 1.57108L20.5745 7.01419C21.7932 7.97388 22.5 9.40937 22.5 10.9249V20.4736C22.5 21.8689 21.3247 23 19.875 23H17.25H6.75H4.125C2.67525 23 1.5 21.8689 1.5 20.4736Z" stroke="#FFF9F9" stroke-width="2" stroke-linecap="round"/>
</svg>
