<svg width="36" height="36" viewBox="0 0 36 36" fill="none" xmlns="http://www.w3.org/2000/svg">
<defs>
<linearGradient id="paint0_linear_489_60123" x1="4.30912" y1="34.5401" x2="32.5245" y2="6.32466" gradientUnits="userSpaceOnUse">
<stop stop-color="#FFD9D9" stop-opacity="0"/>
<stop offset="0.9981" stop-color="#FFB3B3"/>
</linearGradient>
</defs>
<path d="M31.4775 24.7863C29.6732 20.6119 27.1878 16.4914 30.437 12.0581C33.9205 7.3051 28.6773 0.223923 23.3874 0.00419685C15.8565 -0.308694 16.2944 16.9982 9.70146 10.2662C7.86686 8.39297 4.58882 10.0232 5.06245 12.6098C5.45704 14.765 8.52421 15.0064 9.35791 16.7776C12.1632 22.7374 -1.1498 30.5107 5.05021 35.2042C9.95866 38.9199 16.4755 28.2868 22.5106 30.6216C28.1769 32.8136 34.4102 31.5708 31.4775 24.7863Z" fill="url(#paint0_linear_489_60123)"/>
<path opacity="0.1" d="M30.9629 24.447L28.7587 22.9366C28.6961 22.893 28.6651 22.8164 28.6806 22.7419C28.8247 22.0282 28.9021 21.2899 28.9021 20.5341C28.9021 19.7775 28.8247 19.0399 28.6806 18.3263C28.6651 18.2517 28.6961 18.1751 28.7587 18.1315L30.9629 16.6212C31.3265 16.3716 31.4369 15.885 31.2168 15.5032L28.8676 11.4349C28.6476 11.0531 28.1701 10.9055 27.7729 11.096L25.3619 12.2491C25.2929 12.2822 25.2114 12.2702 25.1537 12.2196C24.5158 11.6554 23.812 11.1645 23.0558 10.758C23.7937 10.5807 24.1334 9.64884 23.5913 9.03516L18.5956 3.37992C18.1758 2.90461 17.4348 2.90461 17.015 3.37992L12.0193 9.03516C11.4773 9.64877 11.8167 10.5803 12.5544 10.7579C11.7982 11.1644 11.0943 11.6554 10.4563 12.2196C10.3994 12.2702 10.3178 12.2822 10.2489 12.2491L7.83787 11.096C7.4399 10.9055 6.96318 11.0531 6.7431 11.4349L4.39396 15.5032C4.17389 15.885 4.28428 16.3716 4.64779 16.6212L6.85139 18.1315C6.91467 18.1751 6.9449 18.2517 6.93014 18.3263C6.786 19.0399 6.70865 19.7775 6.70865 20.5341C6.70865 21.2899 6.786 22.0282 6.93014 22.7419C6.9449 22.8164 6.91467 22.893 6.85139 22.9366L4.64779 24.447C4.28428 24.6959 4.17389 25.1831 4.39396 25.5649L6.7431 29.6332C6.96318 30.015 7.4399 30.1627 7.83787 29.9721L10.2489 28.8183C10.3178 28.7859 10.3994 28.7979 10.4563 28.8485C11.5574 29.8223 12.854 30.5796 14.2792 31.0563C14.3516 31.0809 14.4029 31.1456 14.4093 31.2216L14.6153 33.885C14.649 34.3245 15.0154 34.6641 15.4562 34.6641H20.1538C20.5947 34.6641 20.961 34.3245 20.9954 33.885L21.2015 31.2216C21.2071 31.1456 21.2584 31.0809 21.3308 31.0563C22.7561 30.5796 24.0526 29.8223 25.1537 28.8485C25.2114 28.7979 25.2929 28.7859 25.3619 28.8183L27.7729 29.9721C28.1701 30.1627 28.6476 30.015 28.8676 29.6332L31.2168 25.5649C31.4369 25.1831 31.3265 24.6959 30.9629 24.447ZM12.2718 20.5341C12.2718 18.7206 13.1439 17.1112 14.4915 16.102V24.9659C13.1439 23.9566 12.2718 22.3471 12.2718 20.5341ZM21.1191 24.9659V16.1021C22.4667 17.1113 23.339 18.7207 23.339 20.5341C23.339 22.347 22.4667 23.9565 21.1191 24.9659Z" fill="#0000CC"/>
<path d="M11.49 4.85154C11.4 4.85154 11.3101 4.81723 11.2414 4.74854L10.5031 4.01026C10.3658 3.87301 10.3658 3.6504 10.5031 3.51315L11.2414 2.77487C11.3787 2.63754 11.6013 2.63754 11.7386 2.77487L12.4769 3.51315C12.6142 3.6504 12.6142 3.87301 12.4769 4.01026L11.7386 4.74854C11.67 4.81723 11.58 4.85154 11.49 4.85154ZM11.249 3.7617L11.4901 4.0028L11.7312 3.7617L11.4901 3.5206L11.249 3.7617Z" fill="#FF9C33"/>
<path d="M26.5028 8.24517C26.4303 8.24517 26.3579 8.22281 26.2962 8.17802L26.0466 7.99669L25.797 8.17802C25.6738 8.26753 25.5069 8.26753 25.3837 8.17802C25.2605 8.08859 25.2089 7.92989 25.256 7.78498L25.3513 7.49149L25.1017 7.31009C24.9785 7.22058 24.9269 7.06188 24.974 6.91704C25.0211 6.77212 25.1561 6.67411 25.3084 6.67411H25.617L25.7123 6.38063C25.7594 6.23571 25.8944 6.1377 26.0467 6.1377C26.1989 6.1377 26.3339 6.23578 26.381 6.38063L26.4763 6.67411H26.7849C26.9372 6.67411 27.0722 6.7722 27.1192 6.91704C27.1662 7.06188 27.1147 7.22051 26.9915 7.31009L26.7419 7.49149L26.8372 7.78498C26.8843 7.92989 26.8327 8.08852 26.7096 8.17802C26.6478 8.22274 26.5753 8.24517 26.5028 8.24517Z" fill="#FF6C6C"/>
<path d="M9.33965 7.28709C9.24965 7.28709 9.15972 7.25278 9.09103 7.18408L8.35275 6.4458C8.21543 6.30855 8.21543 6.08594 8.35275 5.94869L9.09103 5.21041C9.22835 5.07309 9.45089 5.07309 9.58821 5.21041L10.3265 5.94869C10.4638 6.08594 10.4638 6.30855 10.3265 6.4458L9.58821 7.18408C9.51958 7.25278 9.42965 7.28709 9.33965 7.28709ZM9.09855 6.19725L9.33965 6.43835L9.58075 6.19725L9.33965 5.95615L9.09855 6.19725Z" fill="#6C6CFF"/>
<path d="M30.9629 22.7597L28.7587 21.2494C28.6961 21.2058 28.6651 21.1291 28.6806 21.0546C28.8247 20.3409 28.9021 19.6027 28.9021 18.8468C28.9021 18.0902 28.8247 17.3527 28.6806 16.639C28.6651 16.5645 28.6961 16.4878 28.7587 16.4442L30.9629 14.9339C31.3265 14.6843 31.4369 14.1977 31.2168 13.8159L28.8676 9.74766C28.6476 9.36586 28.1701 9.2182 27.7729 9.40875L25.3619 10.5619C25.2929 10.5949 25.2114 10.583 25.1537 10.5323C24.0526 9.55852 22.7561 8.80125 21.3308 8.32383C21.2584 8.29992 21.2071 8.23523 21.2015 8.15859L20.9954 5.49516C20.961 5.0557 20.5947 4.7168 20.1538 4.7168H15.4562C15.0154 4.7168 14.649 5.0557 14.6153 5.49516L14.4093 8.15859C14.4029 8.23523 14.3516 8.29992 14.2792 8.32383C12.854 8.80125 11.5574 9.55852 10.4563 10.5323C10.3994 10.583 10.3178 10.5949 10.2489 10.5619L7.83787 9.40875C7.4399 9.2182 6.96318 9.36586 6.7431 9.74766L4.39396 13.8159C4.17389 14.1977 4.28428 14.6843 4.64779 14.9339L6.85139 16.4442C6.91467 16.4878 6.9449 16.5645 6.93014 16.639C6.786 17.3527 6.70865 18.0902 6.70865 18.8468C6.70865 19.6027 6.786 20.3409 6.93014 21.0546C6.9449 21.1291 6.91467 21.2058 6.85139 21.2494L4.64779 22.7597C4.28428 23.0086 4.17389 23.4959 4.39396 23.8777L6.7431 27.9459C6.96318 28.3277 7.4399 28.4754 7.83787 28.2848L10.2489 27.131C10.3178 27.0987 10.3994 27.1106 10.4563 27.1613C11.5574 28.1351 12.854 28.8923 14.2792 29.3691C14.3516 29.3937 14.4029 29.4584 14.4093 29.5343L14.6153 32.1977C14.649 32.6372 15.0154 32.9768 15.4562 32.9768H20.1538C20.5947 32.9768 20.961 32.6372 20.9954 32.1977L21.2015 29.5343C21.2071 29.4584 21.2584 29.3937 21.3308 29.3691C22.7561 28.8923 24.0526 28.1351 25.1537 27.1613C25.2114 27.1106 25.2929 27.0987 25.3619 27.131L27.7729 28.2848C28.1701 28.4754 28.6476 28.3277 28.8676 27.9459L31.2168 23.8777C31.4369 23.4959 31.3265 23.0086 30.9629 22.7597ZM17.8054 24.3804C14.7489 24.3804 12.2718 21.9026 12.2718 18.8468C12.2718 15.7903 14.7489 13.3132 17.8054 13.3132C20.8612 13.3132 23.339 15.7903 23.339 18.8468C23.339 21.9026 20.8612 24.3804 17.8054 24.3804Z" fill="#9494FF"/>
<path d="M21.202 8.15859L21.0827 6.61692L19.4042 4.7168H16.2075L14.5291 6.61671L14.4098 8.15859C14.4035 8.23523 14.3522 8.29992 14.2798 8.32383C13.5381 8.57224 12.8317 8.89709 12.1693 9.28816L12.0198 9.45727C11.4187 10.1379 11.9017 11.2102 12.8102 11.2102H14.492V14.4147C15.4158 13.723 16.563 13.3132 17.8059 13.3132C19.0487 13.3132 20.1959 13.723 21.1197 14.4149V11.2102H22.8016C23.71 11.2102 24.1931 10.1379 23.5919 9.45727L23.4431 9.28887C22.7803 8.89751 22.0735 8.57245 21.3314 8.32383C21.2589 8.29992 21.2076 8.23523 21.202 8.15859Z" fill="#8383FF"/>
<path d="M17.8048 11.2041C13.5903 11.2041 10.1619 14.6325 10.1619 18.8471C10.1619 23.0616 13.5903 26.49 17.8048 26.49C22.0194 26.49 25.4478 23.0616 25.4478 18.8471C25.4478 14.6325 22.0194 11.2041 17.8048 11.2041ZM17.8048 24.3807C14.7483 24.3807 12.2712 21.9029 12.2712 18.8471C12.2712 15.7906 14.7483 13.3135 17.8048 13.3135C20.8606 13.3135 23.3384 15.7906 23.3384 18.8471C23.3384 21.9029 20.8606 24.3807 17.8048 24.3807Z" fill="#D9D9FF"/>
<path d="M16.9531 30.8673C16.7694 30.8673 16.6167 30.726 16.6026 30.5429L16.511 29.3594C16.4352 28.4468 15.8253 27.6667 14.9574 27.3717L14.9479 27.3685C13.8022 26.9853 12.7611 26.384 11.8534 25.5811C11.435 25.2097 10.8926 25.0036 10.3291 25.0036C9.99355 25.0036 9.65556 25.0789 9.35181 25.2216L8.27701 25.7359C8.11135 25.8152 7.91265 25.7537 7.82082 25.5946L6.96877 24.1191C6.87695 23.9601 6.923 23.7571 7.07445 23.6533L8.04343 22.9892C8.80386 22.4654 9.17743 21.5463 8.99891 20.6448L8.99736 20.637C8.87811 20.0463 8.81757 19.444 8.81757 18.8467C8.81757 18.2495 8.87804 17.6471 8.99736 17.0565L8.99891 17.0487C9.17743 16.1471 8.80393 15.228 8.04744 14.7069L7.07445 14.0401C6.923 13.9362 6.87695 13.7333 6.96877 13.5743L7.82096 12.0985C7.91279 11.9395 8.11149 11.8779 8.27708 11.9572L9.33831 12.4647C9.64402 12.6115 9.98785 12.6897 10.33 12.6897C10.8931 12.6897 11.4352 12.4837 11.8565 12.1096C12.7603 11.3101 13.8012 10.7087 14.9467 10.3246C15.8216 10.0328 16.4353 9.25146 16.5111 8.33184L16.6025 7.15059C16.6167 6.9675 16.7694 6.82617 16.953 6.82617H18.6568C18.8405 6.82617 18.9932 6.9675 19.0073 7.15059L19.0978 8.31905C19.1682 9.2452 19.7818 10.0314 20.6634 10.3249C21.8086 10.709 22.849 11.3104 23.7558 12.1124L23.7621 12.118C24.1825 12.4868 24.7215 12.6898 25.28 12.6898C25.6221 12.6898 25.9659 12.6116 26.2744 12.4635L27.3328 11.9572C27.4985 11.878 27.6972 11.9396 27.7889 12.0986L28.6411 13.5741C28.7329 13.7332 28.6868 13.9361 28.5353 14.04L27.5521 14.7137C26.7982 15.2392 26.4302 16.1586 26.613 17.058C26.732 17.6482 26.7924 18.25 26.7924 18.8467C26.7924 19.4433 26.7321 20.0451 26.613 20.6353C26.4302 21.5347 26.7982 22.4542 27.5521 22.9796L28.5353 23.6534C28.6868 23.7572 28.7329 23.9601 28.6411 24.1192L27.7891 25.5945C27.6973 25.7535 27.4985 25.815 27.333 25.7358L26.2582 25.2215C25.9544 25.0788 25.6164 25.0034 25.2808 25.0034C24.722 25.0034 24.1826 25.2066 23.7622 25.5754L23.7559 25.581C22.8481 26.3839 21.8069 26.9853 20.6614 27.3684L20.6524 27.3714C19.7761 27.6689 19.1657 28.4565 19.0975 29.3781L19.0074 30.5428C18.9933 30.7259 18.8405 30.8673 18.6569 30.8673H16.9531ZM17.805 11.2037C13.5906 11.2037 10.162 14.6323 10.162 18.8467C10.162 23.061 13.5907 26.4896 17.805 26.4896C22.0193 26.4896 25.448 23.061 25.448 18.8467C25.448 14.6323 22.0194 11.2037 17.805 11.2037Z" fill="#B3B3FF"/>
<path d="M14.4915 11.2102V11.9603C15.4945 11.4757 16.6188 11.2038 17.8054 11.2038C18.9919 11.2038 20.1162 11.4757 21.1192 11.9603V11.2102H22.5455C21.9572 10.8442 21.3283 10.5477 20.6638 10.3249C19.7822 10.0314 19.1686 9.24527 19.0982 8.31905L19.0078 7.15059C18.9936 6.9675 18.8409 6.82617 18.6573 6.82617H16.9535C16.7699 6.82617 16.6171 6.9675 16.603 7.15059L16.5116 8.33184C16.4358 9.25153 15.8221 10.0328 14.9472 10.3246C14.2821 10.5475 13.6526 10.8443 13.0645 11.2101L14.4915 11.2102Z" fill="#9494FF"/>
<path d="M22.8016 9.52242H21.1197V23.2784C20.1958 23.9702 19.049 24.3802 17.8059 24.3802C16.5627 24.3802 15.4159 23.9702 14.492 23.2791V9.52242H12.8102C11.9017 9.52242 11.4187 8.45016 12.0198 7.76953L17.0156 2.1143C17.4353 1.63898 18.1764 1.63898 18.5962 2.1143L23.5919 7.76953C24.1931 8.45016 23.71 9.52242 22.8016 9.52242Z" fill="#FFAB66"/>
<path d="M18.9949 9.63184V24.2519C18.6117 24.3356 18.2137 24.3799 17.8059 24.3799C17.3981 24.3799 17.0001 24.3356 16.6169 24.2519V9.63184C16.6169 9.43777 16.7744 9.28027 16.9685 9.28027H18.6433C18.8374 9.28027 18.9949 9.43777 18.9949 9.63184Z" fill="#FFC599"/>
<path d="M31.1621 22.4693L29.0463 21.0191C29.1843 20.3024 29.2543 19.5719 29.2543 18.8464C29.2543 18.1208 29.1843 17.3903 29.0463 16.6736L31.1621 15.2234C31.6739 14.8726 31.8318 14.177 31.5216 13.6398L29.1728 9.57157C28.8626 9.03424 28.1812 8.82309 27.6216 9.09105L25.3072 10.1985C24.8907 9.83679 24.4518 9.50864 23.9933 9.21375C24.0264 9.16031 24.0567 9.10456 24.0832 9.04584C24.3136 8.53495 24.2263 7.9567 23.8553 7.53673L18.8597 1.88156C18.5929 1.5795 18.2088 1.40625 17.8058 1.40625C17.4029 1.40625 17.0188 1.5795 16.7521 1.88149L11.7564 7.5368C11.3855 7.9567 11.2981 8.53495 11.5285 9.04584C11.5551 9.1047 11.5854 9.16066 11.6186 9.21417C11.16 9.50899 10.721 9.83679 10.3044 10.1985L7.99 9.09113C7.43046 8.82323 6.74906 9.03431 6.43884 9.57164L4.09005 13.6399C3.77983 14.1771 3.93768 14.8727 4.44942 15.2234L6.56526 16.6737C6.42724 17.3904 6.35728 18.1208 6.35728 18.8464C6.35728 19.5721 6.42724 20.3025 6.56526 21.0191L4.44935 22.4694C3.93768 22.8201 3.77983 23.5157 4.08998 24.053L6.43877 28.1211C6.74892 28.6585 7.43017 28.8695 7.98986 28.6017L10.3043 27.4943C11.4147 28.4584 12.6798 29.1892 14.0672 29.668L14.2651 32.2247C14.313 32.8433 14.8365 33.3278 15.4569 33.3278H16.9548C17.149 33.3278 17.3064 33.1704 17.3064 32.9762C17.3064 32.782 17.149 32.6246 16.9548 32.6246H15.4569C15.2015 32.6246 14.9859 32.4251 14.9662 32.1704L14.76 29.5069C14.7432 29.29 14.5985 29.1049 14.3915 29.0355C13.0206 28.5765 11.7753 27.857 10.6899 26.8972C10.526 26.7523 10.2933 26.7197 10.0973 26.8138L7.68646 27.9674C7.45619 28.0775 7.1755 27.9907 7.04782 27.7695L4.69903 23.7014C4.57134 23.4802 4.63631 23.1936 4.84696 23.0493L7.05084 21.5388C7.23035 21.4158 7.31838 21.1982 7.27514 20.9843C7.13268 20.28 7.06047 19.5607 7.06047 18.8464C7.06047 18.1321 7.13268 17.4128 7.27514 16.7085C7.31845 16.4945 7.23035 16.2768 7.05091 16.154L4.84703 14.6434C4.63631 14.4989 4.57134 14.2125 4.69903 13.9913L7.04782 9.92313C7.1755 9.70193 7.45605 9.61495 7.68653 9.72527L10.0974 10.8789C10.2937 10.9728 10.5263 10.9402 10.6901 10.7954C11.1484 10.3901 11.6361 10.0292 12.1492 9.71135C12.3474 9.81619 12.5725 9.87391 12.8103 9.87391H14.1406V14.2417C12.7276 15.3655 11.9209 17.0337 11.9209 18.8465C11.9209 22.0916 14.5609 24.7316 17.806 24.7316C21.0512 24.7316 23.6912 22.0916 23.6912 18.8465C23.6912 17.0339 22.8844 15.3657 21.4714 14.2417V9.87391H22.8017C23.0403 9.87391 23.2661 9.81591 23.4649 9.7103C23.9773 10.0283 24.4638 10.3904 24.9217 10.7954C25.0854 10.9402 25.318 10.9728 25.5143 10.8789L27.9252 9.72527C28.1558 9.61502 28.4362 9.70186 28.5639 9.92313L30.9127 13.9913C31.0404 14.2125 30.9755 14.499 30.7648 14.6434L28.5608 16.154C28.3813 16.2771 28.2934 16.4947 28.3367 16.7084C28.4791 17.4128 28.5513 18.1321 28.5513 18.8464C28.5513 19.5606 28.4791 20.2799 28.3367 20.9842C28.2934 21.1981 28.3814 21.4158 28.5608 21.5387L30.7648 23.0493C30.9755 23.1938 31.0405 23.4802 30.9127 23.7014L28.5639 27.7695C28.4362 27.9908 28.1556 28.0777 27.9252 27.9674L25.5145 26.8139C25.3182 26.7198 25.0855 26.7524 24.9217 26.8973C23.8365 27.857 22.5912 28.5764 21.2201 29.0355C21.0131 29.1049 20.8684 29.29 20.8516 29.5071L20.6453 32.1704C20.6256 32.4251 20.4101 32.6246 20.1546 32.6246H18.6631C18.469 32.6246 18.3115 32.782 18.3115 32.9762C18.3115 33.1704 18.469 33.3278 18.6631 33.3278H20.1546C20.775 33.3278 21.2985 32.8432 21.3464 32.2247L21.5444 29.668C22.932 29.1891 24.197 28.4584 25.3073 27.4943L27.6216 28.6017C28.1812 28.8697 28.8626 28.6585 29.1728 28.1211L31.5216 24.053C31.8317 23.5157 31.6739 22.8201 31.1621 22.4693ZM12.6239 18.8464C12.6239 17.4483 13.169 16.148 14.1404 15.1817V22.5059C13.2039 21.5678 12.6239 20.2736 12.6239 18.8464ZM21.1197 9.17072C20.9255 9.17072 20.7681 9.32808 20.7681 9.52228V18.0539C20.7681 18.2481 20.9255 18.4055 21.1197 18.4055C21.3138 18.4055 21.4712 18.2481 21.4712 18.0539V15.1817C22.4427 16.1482 22.9879 17.4485 22.9879 18.8464C22.9879 20.2737 22.4079 21.5679 21.4712 22.506V19.762C21.4712 19.5678 21.3138 19.4104 21.1197 19.4104C20.9255 19.4104 20.7681 19.5678 20.7681 19.762V23.0946C19.9279 23.6823 18.9068 24.0285 17.8059 24.0285C16.705 24.0285 15.6839 23.6823 14.8436 23.0946V9.52228C14.8436 9.32808 14.6861 9.17072 14.492 9.17072H12.8101C12.5259 9.17072 12.2863 9.01596 12.1694 8.75672C12.0525 8.49741 12.0951 8.21531 12.2833 8.0022L17.279 2.34689C17.4143 2.19368 17.6014 2.1093 17.8058 2.1093C18.0102 2.1093 18.1973 2.19368 18.3327 2.34696L23.3283 8.0022C23.5166 8.21531 23.5592 8.49741 23.4422 8.75672C23.3253 9.01596 23.0858 9.17072 22.8015 9.17072H21.1197Z" fill="#0000CC"/>
<path d="M11.3486 32.6045C11.2761 32.6045 11.2036 32.5822 11.142 32.5374L10.8924 32.3561L10.6427 32.5374C10.5194 32.6269 10.3526 32.6269 10.2294 32.5374C10.1062 32.4479 10.0546 32.2892 10.1017 32.1444L10.197 31.8509L9.94743 31.6695C9.82424 31.58 9.77263 31.4213 9.81974 31.2764C9.86678 31.1315 10.0018 31.0335 10.1541 31.0335H10.4626L10.558 30.74C10.605 30.5951 10.74 30.4971 10.8923 30.4971C11.0447 30.4971 11.1796 30.5952 11.2266 30.74L11.322 31.0335H11.6306C11.7829 31.0335 11.9179 31.1316 11.9649 31.2764C12.0119 31.4213 11.9604 31.5799 11.8372 31.6695L11.5875 31.8509L11.6829 32.1444C11.7299 32.2892 11.6784 32.4478 11.5552 32.5374C11.4937 32.5822 11.4211 32.6045 11.3486 32.6045Z" fill="#FF6C6C"/>
<path d="M31.9814 20.4512C31.9089 20.4512 31.8364 20.4289 31.7747 20.3841L31.5251 20.2027L31.2755 20.3841C31.1523 20.4736 30.9854 20.4736 30.8622 20.3841C30.739 20.2946 30.6874 20.1359 30.7345 19.991L30.8298 19.6975L30.5802 19.5161C30.4571 19.4266 30.4054 19.2679 30.4526 19.1231C30.4996 18.9782 30.6346 18.8802 30.7869 18.8802H31.0955L31.1908 18.5867C31.2379 18.4418 31.3729 18.3438 31.5252 18.3438C31.6775 18.3438 31.8125 18.4418 31.8595 18.5867L31.9548 18.8802H32.2635C32.4157 18.8802 32.5507 18.9782 32.5978 19.1231C32.6448 19.2679 32.5933 19.4266 32.4701 19.5161L32.2205 19.6975L32.3158 19.991C32.3629 20.1359 32.3113 20.2946 32.1881 20.3841C32.1264 20.4289 32.0539 20.4512 31.9814 20.4512Z" fill="#FF9C33"/>
</svg>
