<svg width="16" height="20" viewBox="0 0 16 20" fill="none" xmlns="http://www.w3.org/2000/svg">
<path d="M3.09202 18.782L3.54601 17.891H3.54601L3.09202 18.782ZM2.21799 17.908L3.10899 17.454L3.10899 17.454L2.21799 17.908ZM13.782 17.908L12.891 17.454V17.454L13.782 17.908ZM12.908 18.782L12.454 17.891H12.454L12.908 18.782ZM1 4C0.447715 4 0 4.44771 0 5C0 5.55228 0.447715 6 1 6V4ZM15 6C15.5523 6 16 5.55228 16 5C16 4.44771 15.5523 4 15 4V6ZM13 5V15.8H15V5H13ZM10.8 18H5.2V20H10.8V18ZM1 5V15.8H3V5H1ZM5.2 18C4.62345 18 4.25117 17.9992 3.96784 17.9761C3.69617 17.9539 3.59545 17.9162 3.54601 17.891L2.63803 19.673C3.01641 19.8658 3.40963 19.9371 3.80497 19.9694C4.18864 20.0008 4.65645 20 5.2 20V18ZM1 15.8C1 16.3436 0.999222 16.8114 1.03057 17.195C1.06287 17.5904 1.13419 17.9836 1.32698 18.362L3.10899 17.454C3.0838 17.4045 3.04612 17.3038 3.02393 17.0322C3.00078 16.7488 3 16.3766 3 15.8H1ZM3.54601 17.891C3.35785 17.7951 3.20487 17.6422 3.10899 17.454L1.32698 18.362C1.6146 18.9265 2.07354 19.3854 2.63803 19.673L3.54601 17.891ZM13 15.8C13 16.3766 12.9992 16.7488 12.9761 17.0322C12.9539 17.3038 12.9162 17.4045 12.891 17.454L14.673 18.362C14.8658 17.9836 14.9371 17.5904 14.9694 17.195C15.0008 16.8114 15 16.3436 15 15.8H13ZM10.8 20C11.3436 20 11.8114 20.0008 12.195 19.9694C12.5904 19.9371 12.9836 19.8658 13.362 19.673L12.454 17.891C12.4045 17.9162 12.3038 17.9539 12.0322 17.9761C11.7488 17.9992 11.3766 18 10.8 18V20ZM12.891 17.454C12.7951 17.6422 12.6422 17.7951 12.454 17.891L13.362 19.673C13.9265 19.3854 14.3854 18.9265 14.673 18.362L12.891 17.454ZM1 6H2V4H1V6ZM2 6H14V4H2V6ZM14 6H15V4H14V6ZM5.5 4.2C5.5 3.06743 6.53305 2 8 2V0C5.60095 0 3.5 1.79794 3.5 4.2H5.5ZM8 2C9.46695 2 10.5 3.06743 10.5 4.2H12.5C12.5 1.79794 10.399 0 8 0V2ZM3.5 4.2V5H5.5V4.2H3.5ZM10.5 4.2V5H12.5V4.2H10.5Z" fill="#FFF9F9"/>
</svg>
