<svg width="4" height="18" viewBox="0 0 4 18" fill="none" xmlns="http://www.w3.org/2000/svg">
<path d="M2.37506 8.62476L2.37506 9.37476M1.62506 8.62476V9.37476M2.37506 1.62476L2.37506 2.37476M1.62506 1.62476V2.37476M2.37506 15.6248L2.37506 16.3748M1.62506 15.6248V16.3748M2 10C1.44772 10 1 9.55228 1 9C1 8.44772 1.44772 8 2 8C2.55228 8 3 8.44772 3 9C3 9.55228 2.55228 10 2 10ZM2 3C1.44772 3 1 2.55229 1 2C1 1.44772 1.44772 1 2 1C2.55228 1 3 1.44772 3 2C3 2.55229 2.55228 3 2 3ZM2 17C1.44772 17 1 16.5523 1 16C1 15.4477 1.44772 15 2 15C2.55228 15 3 15.4477 3 16C3 16.5523 2.55228 17 2 17Z" stroke="#FFF9F9" stroke-width="2" stroke-linecap="round"/>
</svg>
