<svg width="118" height="32" viewBox="0 0 118 32" fill="none" xmlns="http://www.w3.org/2000/svg">
<defs>
<linearGradient id="paint0_linear_456_7614" x1="118" y1="-1.5402e-05" x2="-1.2032" y2="12.758" gradientUnits="userSpaceOnUse">
<stop stop-color="#DB00FF"/>
<stop offset="1" stop-color="#F6A200"/>
</linearGradient>
</defs>
<rect width="118" height="32" rx="8" fill="white"/>
<rect width="118" height="32" rx="8" fill="url(#paint0_linear_456_7614)"/>
<path d="M23.152 16.288C23.7493 16.3947 24.256 16.7093 24.672 17.232C25.088 17.7547 25.296 18.3467 25.296 19.008C25.296 19.5733 25.1467 20.0853 24.848 20.544C24.56 20.992 24.1387 21.3493 23.584 21.616C23.0293 21.872 22.384 22 21.648 22H17.2V10.88H21.44C22.1973 10.88 22.848 11.008 23.392 11.264C23.936 11.52 24.3467 11.8667 24.624 12.304C24.9013 12.7307 25.04 13.2107 25.04 13.744C25.04 14.384 24.8693 14.9173 24.528 15.344C24.1867 15.7707 23.728 16.0853 23.152 16.288ZM19.024 15.552H21.28C21.8773 15.552 22.3413 15.4187 22.672 15.152C23.0133 14.8747 23.184 14.48 23.184 13.968C23.184 13.4667 23.0133 13.0773 22.672 12.8C22.3413 12.512 21.8773 12.368 21.28 12.368H19.024V15.552ZM21.488 20.512C22.1067 20.512 22.592 20.3627 22.944 20.064C23.296 19.7653 23.472 19.3493 23.472 18.816C23.472 18.272 23.2853 17.84 22.912 17.52C22.5387 17.2 22.0427 17.04 21.424 17.04H19.024V20.512H21.488ZM35.3581 17.376C35.3581 17.7067 35.3368 18.0053 35.2941 18.272H28.5581C28.6115 18.976 28.8728 19.5413 29.3421 19.968C29.8115 20.3947 30.3875 20.608 31.0701 20.608C32.0515 20.608 32.7448 20.1973 33.1501 19.376H35.1181C34.8515 20.1867 34.3661 20.8533 33.6621 21.376C32.9688 21.888 32.1048 22.144 31.0701 22.144C30.2275 22.144 29.4701 21.9573 28.7981 21.584C28.1368 21.2 27.6141 20.6667 27.2301 19.984C26.8568 19.2907 26.6701 18.4907 26.6701 17.584C26.6701 16.6773 26.8515 15.8827 27.2141 15.2C27.5875 14.5067 28.1048 13.9733 28.7661 13.6C29.4381 13.2267 30.2061 13.04 31.0701 13.04C31.9021 13.04 32.6435 13.2213 33.2941 13.584C33.9448 13.9467 34.4515 14.4587 34.8141 15.12C35.1768 15.7707 35.3581 16.5227 35.3581 17.376ZM33.4541 16.8C33.4435 16.128 33.2035 15.5893 32.7341 15.184C32.2648 14.7787 31.6835 14.576 30.9901 14.576C30.3608 14.576 29.8221 14.7787 29.3741 15.184C28.9261 15.5787 28.6595 16.1173 28.5741 16.8H33.4541ZM40.3531 22.144C39.6598 22.144 39.0358 22.0213 38.4811 21.776C37.9371 21.52 37.5051 21.1787 37.1851 20.752C36.8651 20.3147 36.6945 19.8293 36.6731 19.296H38.5611C38.5931 19.6693 38.7691 19.984 39.0891 20.24C39.4198 20.4853 39.8305 20.608 40.3211 20.608C40.8331 20.608 41.2278 20.512 41.5051 20.32C41.7931 20.1173 41.9371 19.8613 41.9371 19.552C41.9371 19.2213 41.7771 18.976 41.4571 18.816C41.1478 18.656 40.6518 18.48 39.9691 18.288C39.3078 18.1067 38.7691 17.9307 38.3531 17.76C37.9371 17.5893 37.5745 17.328 37.2651 16.976C36.9665 16.624 36.8171 16.16 36.8171 15.584C36.8171 15.1147 36.9558 14.688 37.2331 14.304C37.5105 13.9093 37.9051 13.6 38.4171 13.376C38.9398 13.152 39.5371 13.04 40.2091 13.04C41.2118 13.04 42.0171 13.296 42.6251 13.808C43.2438 14.3093 43.5745 14.9973 43.6171 15.872H41.7931C41.7611 15.4773 41.6011 15.1627 41.3131 14.928C41.0251 14.6933 40.6358 14.576 40.1451 14.576C39.6651 14.576 39.2971 14.6667 39.0411 14.848C38.7851 15.0293 38.6571 15.2693 38.6571 15.568C38.6571 15.8027 38.7425 16 38.9131 16.16C39.0838 16.32 39.2918 16.448 39.5371 16.544C39.7825 16.6293 40.1451 16.7413 40.6251 16.88C41.2651 17.0507 41.7878 17.2267 42.1931 17.408C42.6091 17.5787 42.9665 17.8347 43.2651 18.176C43.5638 18.5173 43.7185 18.9707 43.7291 19.536C43.7291 20.0373 43.5905 20.4853 43.3131 20.88C43.0358 21.2747 42.6411 21.584 42.1291 21.808C41.6278 22.032 41.0358 22.144 40.3531 22.144ZM47.828 14.672V19.552C47.828 19.8827 47.9027 20.1227 48.052 20.272C48.212 20.4107 48.4787 20.48 48.852 20.48H49.972V22H48.532C47.7107 22 47.0813 21.808 46.644 21.424C46.2067 21.04 45.988 20.416 45.988 19.552V14.672H44.948V13.184H45.988V10.992H47.828V13.184H49.972V14.672H47.828ZM65.3934 10.88L61.2174 22H59.1054L54.9134 10.88H56.8654L60.1614 20.128L63.4734 10.88H65.3934ZM66.3108 17.552C66.3108 16.6667 66.4921 15.8827 66.8548 15.2C67.2281 14.5173 67.7294 13.9893 68.3588 13.616C68.9988 13.232 69.7028 13.04 70.4708 13.04C71.1641 13.04 71.7668 13.1787 72.2788 13.456C72.8014 13.7227 73.2174 14.0587 73.5268 14.464V13.184H75.3668V22H73.5268V20.688C73.2174 21.104 72.7961 21.4507 72.2628 21.728C71.7294 22.0053 71.1214 22.144 70.4388 22.144C69.6814 22.144 68.9881 21.952 68.3588 21.568C67.7294 21.1733 67.2281 20.6293 66.8548 19.936C66.4921 19.232 66.3108 18.4373 66.3108 17.552ZM73.5268 17.584C73.5268 16.976 73.3988 16.448 73.1428 16C72.8974 15.552 72.5721 15.2107 72.1668 14.976C71.7614 14.7413 71.3241 14.624 70.8548 14.624C70.3854 14.624 69.9481 14.7413 69.5428 14.976C69.1374 15.2 68.8068 15.536 68.5508 15.984C68.3054 16.4213 68.1828 16.944 68.1828 17.552C68.1828 18.16 68.3054 18.6933 68.5508 19.152C68.8068 19.6107 69.1374 19.9627 69.5428 20.208C69.9588 20.4427 70.3961 20.56 70.8548 20.56C71.3241 20.56 71.7614 20.4427 72.1668 20.208C72.5721 19.9733 72.8974 19.632 73.1428 19.184C73.3988 18.7253 73.5268 18.192 73.5268 17.584ZM79.5865 10.16V22H77.7625V10.16H79.5865ZM89.9653 13.184V22H88.1413V20.96C87.8533 21.3227 87.4746 21.6107 87.0053 21.824C86.5466 22.0267 86.0559 22.128 85.5333 22.128C84.8399 22.128 84.2159 21.984 83.6613 21.696C83.1173 21.408 82.6853 20.9813 82.3653 20.416C82.0559 19.8507 81.9013 19.168 81.9013 18.368V13.184H83.7093V18.096C83.7093 18.8853 83.9066 19.4933 84.3013 19.92C84.6959 20.336 85.2346 20.544 85.9173 20.544C86.5999 20.544 87.1386 20.336 87.5333 19.92C87.9386 19.4933 88.1413 18.8853 88.1413 18.096V13.184H89.9653ZM100.452 17.376C100.452 17.7067 100.431 18.0053 100.388 18.272H93.6519C93.7052 18.976 93.9665 19.5413 94.4359 19.968C94.9052 20.3947 95.4812 20.608 96.1639 20.608C97.1452 20.608 97.8385 20.1973 98.2439 19.376H100.212C99.9452 20.1867 99.4599 20.8533 98.7559 21.376C98.0625 21.888 97.1985 22.144 96.1639 22.144C95.3212 22.144 94.5639 21.9573 93.8919 21.584C93.2305 21.2 92.7079 20.6667 92.3239 19.984C91.9505 19.2907 91.7639 18.4907 91.7639 17.584C91.7639 16.6773 91.9452 15.8827 92.3079 15.2C92.6812 14.5067 93.1985 13.9733 93.8599 13.6C94.5319 13.2267 95.2999 13.04 96.1639 13.04C96.9959 13.04 97.7372 13.2213 98.3879 13.584C99.0385 13.9467 99.5452 14.4587 99.9079 15.12C100.271 15.7707 100.452 16.5227 100.452 17.376ZM98.5479 16.8C98.5372 16.128 98.2972 15.5893 97.8279 15.184C97.3585 14.7787 96.7772 14.576 96.0839 14.576C95.4545 14.576 94.9159 14.7787 94.4679 15.184C94.0199 15.5787 93.7532 16.1173 93.6679 16.8H98.5479Z" fill="white"/>
</svg>
