<svg width="166" height="199" viewBox="0 0 166 199" fill="none" xmlns="http://www.w3.org/2000/svg">
<g opacity="1">
<path d="M48.2155 37.266C46.4921 37.8219 44.6598 36.8387 44.1179 35.0706C32.2973 1.60308 43.4112 2.35723 7.43544 13.9656C3.32951 15.2588 1.42179 8.86807 5.47744 7.56646C16.0663 5.56935 37.1909 -8.61148 42.6571 7.89884L50.3578 33.0596C50.8997 34.8248 49.9416 36.7074 48.2183 37.2633L48.2155 37.266Z" fill="#D3D3D3"/>
<path d="M100.003 127.082C92.7271 129.44 57.9719 140.604 51.4667 142.71C48.8886 143.54 46.0144 141.962 44.7659 139.034C43.6989 136.579 8.50521 53.8851 8.63928 54.2398C6.60028 49.6674 2.67031 42.408 9.14763 39.8299C27.9735 34.266 58.9998 24.1687 77.4039 17.8534C84.1214 16.1691 84.9957 24.4397 85.842 29.3472C85.8783 27.7272 102.869 118.474 103.45 120.141C104.059 123.275 102.579 126.256 100.003 127.082Z" fill="#6E018A"/>
<g opacity="0.54">
<path d="M84.616 23.0186L87.2667 36.6967L11.5527 61.0725C10.0975 55.9722 0.656657 42.85 9.14784 39.8306L43.4003 29.2501L77.4041 17.8541C80.4905 16.8178 83.8842 19.2506 84.6132 23.0186H84.616Z" fill="#2C1466"/>
</g>
<path d="M85.842 29.3448C74.4348 33.1351 21.1274 50.1789 8.63927 54.2374C5.03052 55.5585 3.13955 52.595 2.51668 49.3968L0.18719 41.7855C-0.483166 39.5957 0.703924 37.2662 2.83789 36.5818L69.9322 14.9796L79.2976 11.963C81.5489 10.9603 84.2359 12.03 84.9705 14.4908L87.9815 24.3395C88.5988 26.3477 87.6492 28.4733 85.842 29.342V29.3448Z" fill="#09E3D0"/>
<path d="M37.3194 71.1777L75.4459 58.9018C76.8062 58.4633 78.2307 59.3487 78.4821 60.7872L84.0572 92.6933C84.2667 93.8944 83.574 95.0703 82.4372 95.4334L51.3354 105.447C50.1819 105.818 48.9417 105.237 48.4613 104.103L35.8614 74.4596C35.2999 73.1385 35.9787 71.6078 37.3194 71.1777Z" fill="#B6E7FF"/>
<g opacity="0.54">
<path d="M100.003 127.083L61.3097 139.54L68.5523 34.9506C69.3484 34.6517 85.0236 29.7274 85.8419 29.3447C85.8783 29.5877 102.877 117.175 103.45 120.142C104.059 123.273 102.579 126.253 100.003 127.083Z" fill="#2C1466"/>
</g>
<path d="M85.842 29.3448C84.9063 29.7693 69.3959 34.635 68.5524 34.9506C68.8233 31.0346 69.6808 18.6805 69.935 14.9768L79.8926 11.7731C82.0293 11.086 84.3002 12.3038 84.9733 14.4908L87.9843 24.3423C88.6016 26.3477 87.6519 28.4733 85.8448 29.3448H85.842Z" fill="#0CAFE2"/>
<g opacity="0.44">
<path d="M85.842 29.3445C74.1695 33.2214 21.0186 50.2122 8.2762 54.3544C4.82107 55.3879 3.10049 52.3629 2.51672 49.3966L74.432 24.4649C79.4597 23.099 78.7055 15.9011 79.2977 11.9655C81.5545 10.9628 84.2304 12.0354 84.9706 14.4933L87.9816 24.342C88.5989 26.3503 87.6492 28.4759 85.842 29.3445Z" fill="#0E63E0"/>
</g>
<path d="M10.8373 157.586C9.33459 156.449 9.11114 154.237 10.3541 152.807C18.633 144.637 40.8804 111.412 45.2964 100.65C46.3857 98.5221 49.2739 98.293 50.6593 100.231C56.4774 108.368 70.9208 125.593 93.9699 134.241C114.715 142.025 129.976 143.587 137.739 143.78C140.205 143.841 141.671 146.629 140.353 148.768L111.17 196.199C105.55 200.416 67.7701 192.919 50.7151 184.062C34.202 174.915 17.3649 162.53 10.8345 157.586H10.8373Z" fill="#6E018A"/>
<path d="M96.3636 181.018C104.413 179.015 107.299 187.716 111.338 182.417L122.485 164.298C123.538 162.583 123.041 160.332 121.382 159.228C114.86 155.234 117.614 148.782 113.273 147.634C95.562 144.243 70.9152 133.043 59.3013 120.756C58.1309 119.666 56.4159 119.521 55.0445 120.328C52.1983 122.063 48.3102 122.448 45.2322 121.339C43.6428 120.795 41.8943 121.406 41.0117 122.864C37.389 128.906 32.9702 135.389 28.6911 141.095C25.3337 145.782 35.2774 148.464 30.677 159.203C29.9005 160.882 30.3921 162.887 31.9032 163.915C47.6482 175.155 64.9909 184.724 85.3195 187.487C89.283 188.152 89.903 181.945 96.358 181.018H96.3636Z" fill="#6E018A"/>
<path d="M55.2428 137.506C55.3294 138.3 54.726 141.082 55.5891 141.587C56.5164 142.408 60.142 144.28 57.6281 145.52C56.9075 145.852 54.1451 146.129 53.9523 147.12C53.4831 148.229 52.8825 152.399 50.9357 150.327L49.2598 147.76C48.366 146.294 42.9892 148.567 44.4137 145.285C44.8048 144.584 46.8829 142.696 46.4723 141.774C46.2153 140.579 44.3076 136.872 47.0756 137.364C47.8409 137.526 50.2346 138.973 50.9664 138.286C52.0223 137.643 54.8406 134.666 55.2428 137.509V137.506Z" fill="#6E018A"/>
<path d="M95.0367 157.748C95.1233 158.542 94.52 161.324 95.3831 161.829C96.3104 162.65 99.9359 164.522 97.4221 165.762C96.7014 166.094 93.939 166.371 93.7463 167.362C93.277 168.471 92.6765 172.642 90.7297 170.569L89.0538 168.002C88.16 166.536 82.7832 168.809 84.2077 165.527C84.5987 164.826 86.6768 162.938 86.2662 162.016C86.0092 160.821 84.1015 157.114 86.8695 157.606C87.6349 157.768 90.0286 159.215 90.7604 158.528C91.8162 157.885 94.6345 154.908 95.0367 157.751V157.748Z" fill="#6E018A"/>
<path d="M75.7892 144.933C75.9121 146.064 75.0546 150.028 76.2836 150.751L79.7275 153.388C80.8196 154.223 80.5012 155.977 79.194 156.36C78.1661 156.832 74.2278 157.226 73.9513 158.639L72.5715 162.812C72.1357 164.133 70.4096 164.368 69.6526 163.209L67.2617 159.547C66.96 159.086 66.4572 158.807 65.9182 158.801L61.6223 158.745C60.262 158.729 59.5107 157.117 60.3514 156.019C60.91 155.019 63.8708 152.327 63.287 151.014L62.0105 146.805C61.6055 145.472 62.868 144.24 64.1445 144.724C65.2366 144.955 68.6499 147.017 69.6917 146.039L73.1999 143.495C74.3116 142.687 75.8422 143.539 75.7892 144.933Z" fill="#6E018A"/>
<path d="M115.642 152.983C114.022 153.344 112.611 151.539 113.298 150.014C114.315 147.567 114.896 145.953 114.902 145.936C115.829 143.272 119.846 144.836 118.86 147.428C118.834 147.498 118.24 149.151 117.181 151.707C116.896 152.391 116.307 152.849 115.645 152.983H115.642Z" fill="#6E018A"/>
<path d="M98.1735 180.312C96.1848 180.776 94.791 178.041 96.2909 176.645C98.2042 174.723 100 172.745 101.629 170.773C102.38 169.863 103.712 169.748 104.601 170.519C105.489 171.29 105.6 172.656 104.849 173.567C102.785 175.709 100.914 178.826 98.1763 180.312H98.1735ZM108.352 167.634C106.592 168.036 105.162 165.883 106.159 164.366C107.433 162.271 108.718 159.911 109.98 157.35C110.505 156.283 111.773 155.855 112.812 156.394C113.851 156.933 114.268 158.235 113.743 159.299C112.187 161.788 110.678 166.735 108.352 167.631V167.634Z" fill="#6E018A"/>
<path d="M88.744 188.587C86.5821 189.09 85.275 185.931 87.1212 184.696C87.1324 184.688 88.4508 183.73 90.459 182.029C92.5818 180.205 95.2661 183.649 93.1433 185.364C90.1406 187.741 90.1602 188.057 88.744 188.587Z" fill="#6E018A"/>
<path d="M169.743 36.1744C165.419 42.5539 156.822 37.2414 154.319 30.5378C146.127 27.9625 149.129 12.1672 160.919 22.3287C160.919 22.3287 157.562 17.41 162.408 14.6112C167.254 11.8125 172.866 18.2815 172.754 21.0886L172.642 23.8957C175.815 21.8567 178.421 27.9625 174.363 29.2334C175.921 29.7948 179.254 32.6522 178.575 35.5599C178.013 39.8418 169.743 36.1744 169.743 36.1744Z" fill="#FFF0B3"/>
<g opacity="0.55">
<path d="M178.575 35.5597C178.74 34.3 178.441 33.2358 177.941 32.3588C175.628 33.828 170.072 31.3672 170.072 31.3672C165.749 37.7468 157.151 32.4342 154.649 25.7306C154.649 25.7306 151.319 24.4095 150.247 21.2588C147.515 26.0658 153.286 30.5293 154.316 30.5404C156.83 37.2691 165.436 42.5426 169.74 36.177C169.74 36.177 178.011 39.8416 178.572 35.5625L178.575 35.5597Z" fill="#FFA861"/>
</g>
<path opacity="0.49" d="M161.623 32.579C159.941 33.2661 157.944 33.5035 155.947 33.4868C154.875 31.8807 154.319 30.5372 154.319 30.5372C154.319 30.5372 163.302 32.6824 164.061 29.3334L164.821 25.9844C164.821 25.9844 167.598 30.1322 161.626 32.5762L161.623 32.579Z" fill="#FFA861"/>
<path opacity="0.49" d="M176.737 30.8477C164.383 32.6465 164.964 24.376 164.964 24.376C167.318 29.7612 169.642 30.0572 174.363 29.2361C174.363 29.2361 175.597 29.764 176.737 30.8477Z" fill="#FFA861"/>
<path opacity="0.54" d="M168.656 29.0296C166.637 33.5684 159.285 29.982 161.207 25.5772C163.226 21.0384 170.578 24.6248 168.656 29.0296Z" fill="#E24242"/>
<path d="M168.162 25.3147C167.601 28.6469 162.754 28.9933 160.995 26.27C160.227 33.3618 172.044 32.1747 168.162 25.3147Z" fill="#E24242"/>
<path d="M171.156 19.932C169.821 22.9821 161.95 19.2142 163.28 16.2814C164.615 13.2312 172.486 16.9992 171.156 19.932Z" fill="#FFF7D7"/>
<path d="M144.607 52.4675C141.297 63.911 126.452 60.2939 119.458 51.7217C106.322 51.9424 102.984 27.4436 125.064 36.5521C125.064 36.5521 117.796 31.0021 123.48 24.5723C129.164 18.1424 140.457 24.8572 141.658 29.0078L142.859 33.1556C146.493 28.6419 153.224 36.3035 147.948 40.1078C150.571 40.1692 156.637 42.711 157.14 47.2918C158.403 53.8082 144.607 52.4675 144.607 52.4675Z" fill="#FFF0B3"/>
<g opacity="0.55">
<path d="M157.14 47.2917C156.769 45.3728 155.819 43.965 154.666 42.9288C152.018 46.1912 142.753 45.2946 142.753 45.2946C139.443 56.7381 124.597 53.121 117.603 44.5488C117.603 44.5488 112.126 44.236 109.037 40.158C107.4 48.4816 117.95 52.2048 119.455 51.7216C126.477 60.3273 141.317 63.883 144.605 52.4674C144.605 52.4674 158.403 53.8053 157.14 47.2917Z" fill="#FFA861"/>
</g>
<path opacity="0.49" d="M131.063 51.1574C128.954 52.9757 126.167 54.2885 123.256 55.2298C120.919 53.4059 119.458 51.7188 119.458 51.7188C119.458 51.7188 133.549 50.4954 133.027 45.2443L132.505 39.9932C132.505 39.9932 138.555 44.694 131.063 51.1546V51.1574Z" fill="#FFA861"/>
<path opacity="0.49" d="M152.182 41.3085C135.102 49.917 131.932 37.5713 131.932 37.5713C137.957 44.2665 141.462 43.6045 147.948 40.1075C147.948 40.1075 149.998 40.2806 152.179 41.3085H152.182Z" fill="#FFA861"/>
<path opacity="0.54" d="M139.56 42.5715C138.826 50.18 126.402 48.4902 127.058 41.1442C127.793 33.5356 140.217 35.2255 139.56 42.5715Z" fill="#E24242"/>
<path d="M137.035 37.3955C137.839 42.5209 130.963 45.3839 127.083 42.2612C127.427 44.9594 129.792 47.2386 132.831 47.5849C138.965 48.4787 142.018 40.7473 137.032 37.3955H137.035Z" fill="#E24242"/>
<path d="M138.77 28.092C138.303 33.1951 125.038 31.4969 125.552 26.5837C126.019 21.4806 139.284 23.1789 138.77 28.092Z" fill="#FFF7D7"/>
<path opacity="0.62" d="M109.075 43.1579C108.888 42.1691 108.863 41.1496 109.039 40.1581C109.964 35.0326 116.178 32.2674 125.063 36.5521C125.063 36.5521 117.796 31.0021 123.48 24.5723C129.164 18.1424 140.457 24.8572 141.658 29.0078L142.859 33.1556C146.493 28.6419 153.224 36.3035 147.948 40.1078C149.911 39.9933 155.931 42.5462 156.71 45.8365C160.564 53.3557 144.995 52.7663 144.604 52.4703C141.294 63.9138 126.449 60.2967 119.455 51.7245C119.463 51.9843 110.053 50.462 109.073 43.1607L109.075 43.1579Z" fill="#E24242"/>
<path d="M167.603 59.9469C160.656 68.5107 148.635 60.2402 145.411 50.3189C133.518 45.7046 139.456 23.7086 155.819 39.3474C155.819 39.3474 151.305 32.0042 158.673 28.5351C166.039 25.066 173.731 34.8476 173.326 38.8251L172.921 42.8025C177.759 40.2412 181.069 49.1905 174.991 50.5675C177.153 51.4781 181.901 55.9108 180.638 59.9972C179.446 66.022 167.603 59.9441 167.603 59.9441V59.9469Z" fill="#FFF0B3"/>
<g opacity="0.55">
<path d="M180.641 60C180.993 58.2263 180.647 56.6817 179.985 55.3857C176.457 57.2292 168.505 53.1512 168.505 53.1512C161.558 61.715 149.537 53.4444 146.313 43.5232C146.313 43.5232 141.534 41.297 140.227 36.7051C135.786 43.3528 143.978 50.2128 145.411 50.3189C148.648 60.2793 160.687 68.4939 167.603 59.9469C167.603 59.9469 179.446 66.0248 180.638 60H180.641Z" fill="#FFA861"/>
</g>
<path opacity="0.49" d="M155.978 53.9862C153.447 54.7878 150.489 54.9135 147.556 54.6789C146.121 52.2824 145.414 50.3188 145.414 50.3188C145.414 50.3188 158.433 54.3102 159.838 49.6317L161.24 44.9531C161.24 44.9531 164.966 51.1372 155.978 53.9862Z" fill="#FFA861"/>
<path opacity="0.49" d="M178.342 53.1094C160.025 54.3663 161.592 42.677 161.592 42.677C164.6 50.7101 168.24 51.2185 174.991 50.5705C174.991 50.5705 176.762 51.4503 178.342 53.1094Z" fill="#FFA861"/>
<path opacity="0.54" d="M166.622 49.679C163.34 55.8714 152.765 50.1343 155.966 43.9894C159.248 37.797 169.823 43.5369 166.622 49.679Z" fill="#E24242"/>
<path d="M166.212 44.3496C165.069 49.0617 157.93 48.9807 155.592 44.9557C154.939 47.3858 156.237 50.1817 158.829 51.5643C163.888 54.4915 169.488 49.1231 166.212 44.3496Z" fill="#E24242"/>
<path d="M171.075 37.0155C168.916 41.1856 157.612 35.091 159.81 31.0018C161.969 26.8316 173.273 32.9291 171.075 37.0155Z" fill="#FFF7D7"/>
<path opacity="0.62" d="M139.194 39.2863C139.378 38.373 139.722 37.4903 140.23 36.7083C142.881 32.6554 149.417 32.5102 155.824 39.3506C155.824 39.3506 151.311 32.0074 158.679 28.5383C166.044 25.0692 173.737 34.8508 173.332 38.8283L172.927 42.8057C177.764 40.2444 181.074 49.1937 174.996 50.5707C176.675 51.0958 181.284 55.5062 180.781 58.601C181.496 66.4553 167.826 60.302 167.609 59.9473C160.662 68.5111 148.64 60.2406 145.417 50.3193C145.333 50.5316 137.484 45.9229 139.197 39.2836L139.194 39.2863Z" fill="#E24242"/>
<path d="M139.54 31.4999C136.596 42.0552 123.317 38.6225 117.05 30.7402C105.366 30.9469 102.157 8.34748 121.996 16.7912C121.996 16.7912 115.474 11.663 120.53 5.76103C125.585 -0.140905 135.711 6.07107 136.803 9.89489L137.895 13.7159C141.113 9.57088 147.182 16.6376 142.476 20.129C144.83 20.2128 150.324 22.5926 150.724 26.7683C151.88 32.768 139.537 31.4971 139.537 31.4971L139.54 31.4999Z" fill="#FFF0B3"/>
<g opacity="0.55">
<path d="M150.726 26.7707C150.386 25.0054 149.531 23.7066 148.495 22.7486C146.14 25.7428 137.853 24.8937 137.853 24.8937C134.909 35.449 121.63 32.0162 115.362 24.134C115.362 24.134 110.463 23.8295 107.684 20.0671C106.318 27.7567 115.536 31.1168 117.049 30.7398C123.342 38.65 136.615 42.0269 139.54 31.4995C139.54 31.4995 151.883 32.7704 150.726 26.7707Z" fill="#FFA861"/>
</g>
<path opacity="0.49" d="M127.426 30.2567C125.549 31.9243 123.06 33.1253 120.463 33.9856C118.365 32.2985 117.049 30.7428 117.049 30.7428C117.049 30.7428 129.646 29.6562 129.155 24.8213L128.666 19.9863C128.666 19.9863 134.096 24.3325 127.426 30.2567Z" fill="#FFA861"/>
<path opacity="0.49" d="M146.266 21.2492C131.029 29.1231 128.144 17.7522 128.144 17.7522C133.451 23.8105 136.591 23.4195 142.476 20.132C142.476 20.132 144.311 20.2968 146.266 21.2492Z" fill="#FFA861"/>
<path opacity="0.54" d="M134.985 22.377C134.23 29.4548 123.312 27.7761 123.798 21.0279C124.552 13.95 135.471 15.6287 134.985 22.377Z" fill="#E24242"/>
<path d="M132.708 17.6045C133.459 22.283 127.34 24.9589 123.829 22.0568C124.147 24.5427 126.273 26.6459 128.993 26.9727C134.549 27.8079 137.135 20.6323 132.708 17.6045Z" fill="#E24242"/>
<path d="M134.219 9.04597C133.789 13.7748 121.935 12.1045 122.396 7.61867C122.826 2.88986 134.68 4.56017 134.219 9.04597Z" fill="#FFF7D7"/>
<path opacity="0.62" d="M107.729 22.8299C107.558 21.9193 107.531 20.9808 107.684 20.0674C108.491 15.3526 114.036 12.8248 121.996 16.7939C121.996 16.7939 115.474 11.6656 120.53 5.76371C125.585 -0.138219 135.711 6.07375 136.803 9.89758L137.895 13.7186C141.113 9.57357 147.182 16.6402 142.476 20.1317C144.224 20.006 149.704 22.4891 150.336 25.4275C153.835 32.3126 139.914 31.7931 139.54 31.4998C136.596 42.0551 123.317 38.6223 117.05 30.7401C117.061 30.9887 108.617 29.5251 107.729 22.8271V22.8299Z" fill="#E24242"/>
<path d="M112.637 46.8622C109.693 57.4175 96.414 53.9848 90.1462 46.1025C78.4624 46.3092 75.2531 23.7098 95.0929 32.1535C95.0929 32.1535 88.5708 27.0253 93.6264 21.1233C98.6821 15.2214 108.807 21.4334 109.899 25.2572L110.991 29.0782C114.209 24.9332 120.279 31.9999 115.572 35.4913C117.927 35.5751 123.421 37.9549 123.82 42.1306C124.977 48.1303 112.634 46.8594 112.634 46.8594L112.637 46.8622Z" fill="#FFF0B3"/>
<g opacity="0.55">
<path d="M123.823 42.1334C123.482 40.3681 122.628 39.0693 121.591 38.1113C119.237 41.1055 110.949 40.2564 110.949 40.2564C108.005 50.8117 94.7269 47.3789 88.459 39.4995C88.459 39.4995 83.5598 39.195 80.7806 35.4326C79.4148 43.1222 88.6322 46.4823 90.1461 46.1053C96.4391 54.0155 109.712 57.3924 112.637 46.865C112.637 46.865 124.979 48.1359 123.823 42.1362V42.1334Z" fill="#FFA861"/>
</g>
<path opacity="0.49" d="M100.52 45.6161C98.6431 47.2836 96.1544 48.4847 93.5568 49.345C91.4591 47.6607 90.1436 46.1021 90.1436 46.1021C90.1436 46.1021 102.741 45.0156 102.249 40.1806L101.76 35.3457C101.76 35.3457 107.19 39.6918 100.52 45.6161Z" fill="#FFA861"/>
<path opacity="0.49" d="M119.362 36.6115C104.126 44.4854 101.24 33.1145 101.24 33.1145C106.547 39.1728 109.687 38.7818 115.572 35.4943C115.572 35.4943 117.407 35.6591 119.362 36.6115Z" fill="#FFA861"/>
<path opacity="0.54" d="M108.081 37.7373C107.327 44.8152 96.4082 43.1365 96.8942 36.3882C97.6483 29.3104 108.567 30.9891 108.081 37.7373Z" fill="#E24242"/>
<path d="M105.802 32.9668C106.553 37.6453 100.433 40.3212 96.9224 37.4191C97.2408 39.905 99.3664 42.0082 102.087 42.335C107.642 43.1702 110.229 35.9946 105.802 32.9668Z" fill="#E24242"/>
<path d="M107.316 24.4083C106.885 29.1371 95.0314 27.4668 95.4922 22.981C95.9224 18.2522 107.777 19.9225 107.316 24.4083Z" fill="#FFF7D7"/>
<path opacity="0.62" d="M80.8254 38.1895C80.655 37.2789 80.6271 36.3404 80.7807 35.4271C81.588 30.7122 87.1324 28.1844 95.0928 32.1535C95.0928 32.1535 88.5708 27.0253 93.6264 21.1233C98.682 15.2214 108.807 21.4334 109.899 25.2572L110.991 29.0782C114.209 24.9332 120.279 31.9999 115.572 35.4913C117.321 35.3656 122.801 37.8487 123.432 40.7871C126.932 47.6722 113.011 47.1527 112.637 46.8594C109.693 57.4148 96.414 53.982 90.1462 46.1025C90.1573 46.3511 81.7136 44.8875 80.8254 38.1895Z" fill="#E24242"/>
<path d="M171.198 57.5623C169.832 68.4528 156.271 66.9892 148.99 59.9756C137.518 61.8163 131.228 39.7337 151.892 45.3647C151.892 45.3647 144.764 41.1693 148.903 34.5663C153.042 27.9661 163.863 32.7368 165.475 36.3958L167.084 40.0549C169.656 35.4657 176.619 41.6609 172.486 45.806C174.846 45.5602 180.544 47.169 181.524 51.2666C183.505 57.0903 171.195 57.5595 171.195 57.5595L171.198 57.5623Z" fill="#FFF0B3"/>
<g opacity="0.55">
<path d="M181.527 51.2667C180.943 49.5517 179.921 48.3786 178.77 47.5686C176.876 50.8869 168.614 51.2081 168.614 51.2081C167.248 62.0986 153.688 60.635 146.406 53.6214C146.406 53.6214 141.548 54.0096 138.289 50.6467C138.015 58.4619 147.509 60.5679 148.989 59.973C156.299 67.0117 169.843 68.4223 171.198 57.5597C171.198 57.5597 183.504 57.0877 181.527 51.2667Z" fill="#FFA861"/>
</g>
<path opacity="0.49" d="M159.12 58.0291C157.509 59.9563 155.235 61.5065 152.802 62.7299C150.503 61.3445 148.995 59.9759 148.995 59.9759C148.995 59.9759 161.221 57.1185 160.059 52.3645L158.9 47.6106C158.9 47.6106 164.846 51.1802 159.123 58.0291H159.12Z" fill="#FFA861"/>
<path opacity="0.49" d="M176.368 46.3873C162.503 56.3895 158.07 45.4543 158.07 45.4543C164.139 50.7334 167.114 49.9457 172.488 45.8091C172.488 45.8091 174.315 45.7141 176.368 46.3901V46.3873Z" fill="#FFA861"/>
<path opacity="0.54" d="M165.441 49.1018C165.692 56.269 154.729 56.1321 154.26 49.3336C154.009 42.1664 164.972 42.3032 165.441 49.1018Z" fill="#E24242"/>
<path d="M162.531 44.6636C163.924 49.1969 158.318 52.7665 154.43 50.356C155.092 52.7916 157.475 54.5904 160.195 54.5318C165.785 54.5793 167.293 47.0433 162.531 44.6636Z" fill="#E24242"/>
<path d="M162.816 35.9126C163.053 40.6917 151.174 40.6945 150.995 36.1557C150.758 31.3766 162.637 31.3738 162.816 35.9126Z" fill="#FFF7D7"/>
<path d="M159.495 26.753C162.97 37.0541 150.875 42.0455 141.007 38.5904C131.429 45.2465 116.849 27.4038 137.261 23.8174C137.261 23.8174 129.184 23.0185 129.977 15.1223C130.77 7.22607 142.345 6.95793 145.339 9.64773L148.333 12.3347C148.627 6.95793 157.425 9.72873 155.565 15.3206C157.593 14.0553 163.24 13.1112 165.869 16.463C170.12 20.9935 159.5 26.753 159.5 26.753H159.495Z" fill="#FFF0B3"/>
<g opacity="0.55">
<path d="M165.863 16.4633C164.612 15.1282 163.207 14.4858 161.844 14.2344C161.609 18.1252 154.481 21.9938 154.481 21.9938C157.956 32.2949 145.861 37.2863 135.993 33.8311C135.993 33.8311 131.89 36.2919 127.572 34.5909C130.636 41.8391 139.817 39.8643 141.004 38.5907C150.911 42.057 162.967 37.0209 159.492 26.7533C159.492 26.7533 170.111 20.9938 165.86 16.4633H165.863Z" fill="#FFA861"/>
</g>
<path opacity="0.49" d="M149.071 32.4094C148.484 34.8898 147.152 37.3058 145.54 39.4901C142.923 39.2024 141.004 38.5907 141.004 38.5907C141.004 38.5907 150.523 30.6581 147.454 26.7617L144.384 22.8652C144.384 22.8652 151.152 23.5942 149.071 32.4066V32.4094Z" fill="#FFA861"/>
<path opacity="0.49" d="M159.224 14.1805C151.342 29.4311 142.728 21.2304 142.728 21.2304C150.501 23.5124 152.596 21.4064 155.559 15.3201C155.559 15.3201 157.123 14.4431 159.221 14.1777L159.224 14.1805Z" fill="#FFA861"/>
<path opacity="0.54" d="M150.783 21.4182C154.087 27.8312 144.49 32.6215 141.049 26.4682C137.744 20.0551 147.342 15.2649 150.783 21.4182Z" fill="#E24242"/>
<path d="M146.311 18.5691C149.434 22.0829 146.233 27.8507 141.641 27.3368C149.188 34.6241 156.769 20.4964 146.311 18.5691Z" fill="#E24242"/>
<path d="M142.789 10.3515C145.068 14.5915 134.694 19.8454 132.499 15.6892C130.22 11.4492 140.594 6.19531 142.789 10.3515Z" fill="#FFF7D7"/>
<path d="M123.295 35.2451C122.086 44.8703 110.1 43.5771 103.668 37.3791C93.5286 39.0047 87.9674 19.4862 106.235 24.4663C106.235 24.4663 99.9333 20.757 103.592 14.9221C107.251 9.08725 116.815 13.3049 118.24 16.5394L119.661 19.7738C121.935 15.7182 128.091 21.1928 124.435 24.8574C126.518 24.6423 131.557 26.0612 132.423 29.684C134.175 34.8289 123.295 35.2479 123.295 35.2479V35.2451Z" fill="#FFF0B3"/>
<g opacity="0.55">
<path d="M132.426 29.6811C131.912 28.1672 131.007 27.1281 129.988 26.4131C128.314 29.3459 121.01 29.628 121.01 29.628C119.801 39.2532 107.815 37.96 101.383 31.762C101.383 31.762 97.0898 32.1055 94.2101 29.1336C93.8805 35.9461 102.461 37.9572 103.668 37.379C110.128 43.5993 122.1 44.8451 123.295 35.245C123.295 35.245 134.174 34.8289 132.423 29.6811H132.426Z" fill="#FFA861"/>
</g>
<path opacity="0.49" d="M112.62 35.6558C111.195 37.3596 109.184 38.7283 107.033 39.8092C105.003 38.583 103.668 37.3764 103.668 37.3764C103.668 37.3764 114.472 34.8486 113.447 30.6477L112.421 26.4468C112.421 26.4468 117.675 29.6002 112.62 35.6558Z" fill="#FFA861"/>
<path opacity="0.49" d="M127.865 25.368C115.611 34.2084 111.692 24.5413 111.692 24.5413C117.058 29.2058 119.686 28.5103 124.435 24.8541C124.435 24.8541 126.049 24.7703 127.865 25.368Z" fill="#FFA861"/>
<path opacity="0.54" d="M118.206 27.7682C118.427 34.103 108.737 33.9801 108.324 27.9721C108.103 21.6372 117.793 21.7601 118.206 27.7682Z" fill="#E24242"/>
<path d="M115.636 23.843C116.868 27.8484 111.913 31.0047 108.477 28.8735C111.74 37.3619 123.499 29.4349 115.636 23.843Z" fill="#E24242"/>
<path d="M115.888 16.1119C116.097 20.3352 105.598 20.338 105.441 16.327C105.232 12.1038 115.731 12.101 115.888 16.1119Z" fill="#FFF7D7"/>
<path d="M130.063 16.5397C129.502 22.2768 121.924 21.5617 118.212 17.8273C112.089 18.8105 108.732 7.02338 119.762 10.0288C119.762 10.0288 115.958 7.7887 118.167 4.26654C120.376 0.744376 126.153 3.28894 127.01 5.24414L127.871 7.19656C129.273 4.73579 132.951 8.08757 130.753 10.2662C132.013 10.135 135.055 10.9925 135.577 13.1795C136.633 16.2883 130.066 16.5397 130.066 16.5397H130.063Z" fill="#FFF0B3"/>
<g opacity="0.55">
<path d="M135.577 13.1818C135.267 12.2656 134.719 11.64 134.105 11.207C133.094 12.9779 128.683 13.1483 128.683 13.1483C128.122 18.8854 120.544 18.1704 116.832 14.4359C116.832 14.4359 114.24 14.6426 112.5 12.8494C112.301 16.9637 117.483 18.1787 118.212 17.8268C121.938 21.5752 129.513 22.2595 130.063 16.5392C130.063 16.5392 136.633 16.2878 135.577 13.179V13.1818Z" fill="#FFA861"/>
</g>
<path opacity="0.49" d="M123.617 16.7907C122.756 17.8185 121.541 18.6453 120.243 19.2989C119.016 18.5587 118.209 17.8297 118.209 17.8297C118.209 17.8297 124.734 16.3046 124.114 13.7657L123.494 11.2295C123.494 11.2295 126.667 13.1344 123.614 16.7907H123.617Z" fill="#FFA861"/>
<path opacity="0.49" d="M132.823 10.5763C125.424 15.914 123.055 10.0791 123.055 10.0791C126.209 12.8778 127.974 12.4589 130.75 10.269C130.75 10.269 131.725 10.2188 132.823 10.5791V10.5763Z" fill="#FFA861"/>
<path opacity="0.54" d="M126.991 12.0257C127.242 15.7937 121.147 15.7406 121.025 12.1486C120.773 8.38068 126.868 8.43375 126.991 12.0257Z" fill="#E24242"/>
<path d="M125.438 9.65723C126.181 12.0761 123.189 13.981 121.114 12.6962C122.969 17.83 130.225 12.9476 125.438 9.65723Z" fill="#E24242"/>
<path d="M125.591 4.98682C125.781 7.51462 119.312 7.52858 119.284 5.11809C119.095 2.59029 125.564 2.57633 125.591 4.98682Z" fill="#FFF7D7"/>
<path d="M100.375 47.4652C99.0088 58.3557 85.4481 56.8921 78.1663 49.8785C66.6949 51.7191 60.4047 29.6365 81.0684 35.2675C81.0684 35.2675 73.9403 31.0722 78.0797 24.4692C82.2192 17.8689 93.0399 22.6396 94.6515 26.2987L96.2604 29.9577C98.8329 25.3686 105.796 31.5638 101.662 35.7088C104.023 35.463 109.721 37.0719 110.701 41.1694C112.681 46.9931 100.372 47.4624 100.372 47.4624L100.375 47.4652Z" fill="#FFF0B3"/>
<g opacity="0.55">
<path d="M110.704 41.1696C110.12 39.4546 109.098 38.2814 107.947 37.4714C106.053 40.7897 97.791 41.1109 97.791 41.1109C96.4252 52.0014 82.8644 50.5378 75.5827 43.5242C75.5827 43.5242 70.7254 43.9124 67.4658 40.5495C67.192 48.3647 76.686 50.4708 78.1663 49.8758C85.476 56.9146 99.02 58.3251 100.375 47.4625C100.375 47.4625 112.681 46.9905 110.704 41.1696Z" fill="#FFA861"/>
</g>
<path opacity="0.49" d="M88.2971 47.9319C86.6854 49.8592 84.4118 51.4094 81.9789 52.6328C79.6802 51.2474 78.1719 49.8787 78.1719 49.8787C78.1719 49.8787 90.3975 47.0213 89.2356 42.2674L88.0764 37.5134C88.0764 37.5134 94.023 41.0831 88.2998 47.9319H88.2971Z" fill="#FFA861"/>
<path opacity="0.49" d="M105.545 36.2901C91.6798 46.2924 87.2471 35.3572 87.2471 35.3572C93.3166 40.6362 96.2913 39.8486 101.665 35.7119C101.665 35.7119 103.492 35.6169 105.545 36.2929V36.2901Z" fill="#FFA861"/>
<path opacity="0.54" d="M94.618 39.0046C94.8694 46.1718 83.9062 46.035 83.437 39.2364C83.1856 32.0692 94.1487 32.2061 94.618 39.0046Z" fill="#E24242"/>
<path d="M91.7076 34.5664C93.1013 39.0997 87.4955 42.6693 83.6074 40.2588C84.2694 42.6945 86.652 44.4933 89.3725 44.4346C94.9616 44.4821 96.4699 36.9462 91.7076 34.5664Z" fill="#E24242"/>
<path d="M91.9923 25.8155C92.2298 30.5946 80.3505 30.5974 80.1717 26.0585C79.9343 21.2794 91.8136 21.2766 91.9923 25.8155Z" fill="#FFF7D7"/>
<path d="M65.9771 49.0318L73.8593 150.51C73.8845 152.655 75.633 154.434 77.9066 154.627L120.829 158.269C123.08 158.459 125.122 157.035 125.58 154.951L146.962 57.7269C147.49 55.322 145.713 53.0065 143.121 52.7243L93.5846 47.3084L78.3423 45.6409C74.5325 45.4789 66.1921 42.6997 65.9771 49.0318Z" fill="#D12A6A"/>
<path d="M143.121 52.7235L93.5845 47.3076L93.8805 155.981L120.829 158.268C123.08 158.458 125.122 157.034 125.58 154.95L146.962 57.7261C147.49 55.3212 145.713 53.0056 143.121 52.7235Z" fill="#D5B6D8"/>
<path d="M65.9771 49.0315L73.8593 150.509C73.9515 154.931 79.0267 154.758 82.2723 154.998L78.3423 45.6406C74.4794 45.4618 66.2033 42.7134 65.9771 49.0315Z" fill="#D5B6D8"/>
<path d="M101.922 52.0784L103.061 152.987C103.087 155.132 104.835 156.911 107.103 157.104L156.777 161.321C159.025 161.511 161.07 160.087 161.528 158.003L182.907 60.7735C183.434 58.3714 181.661 56.0559 179.069 55.7738C165.706 54.3102 148.526 52.436 135.138 50.9723L115.955 48.8719C112.025 48.8942 102.154 45.2743 101.922 52.0784Z" fill="#F8F1FD"/>
<path d="M144.208 160.254L152.375 160.947L174.505 55.2766L163.05 54.0225L144.208 160.254Z" fill="#F23D6C"/>
<path d="M135.138 50.9727L127.329 158.822L134.937 159.467L147.263 52.2966L135.138 50.9727Z" fill="#F23D6C"/>
<path d="M101.922 52.0788L103.062 152.987C103.051 158.3 111.036 157.143 114.461 157.73L115.955 48.8723C111.975 48.8723 102.146 45.2999 101.922 52.0788Z" fill="#F23D6C"/>
<path d="M145.356 154.153L143.568 156.31L109.919 196.864C109.162 197.777 107.975 198.19 106.83 197.933C74.3455 192.705 42.0203 172.745 17.9741 146.104C15.8373 144.302 13.5413 141.635 16.111 139.255C29.0796 128.63 50.2936 104.617 57.905 92.7013C59.2792 90.7545 62.1673 90.9444 63.2706 93.0672C70.6557 111.34 99.1989 136.777 126.192 144.215C133.627 146.819 139.507 148.154 143.459 148.83C145.892 149.249 146.959 152.223 145.359 154.151L145.356 154.153Z" fill="#FFCA61"/>
<g opacity="0.52">
<path d="M86.6298 185.967C61.8294 178.767 52.5366 169.932 35.0319 154.349C30.6159 150.081 36.8558 146.129 36.0346 141.154C36.1547 136.945 31.1522 133.216 34.9565 129.42C40.1238 124.208 44.5482 119.429 49.5898 113.25C51.0506 111.466 53.5142 110.96 55.5811 112.021C58.2653 113.415 61.5557 113.555 64.3488 112.401C66.3739 111.572 68.6503 112.147 70.0077 113.831C78.2699 124.077 87.9398 132.291 98.7493 138.246C105.567 142.003 112.441 145.246 119.184 147.885C121.055 148.62 122.279 150.444 122.298 152.533C122.326 155.709 123.661 158.698 126.002 160.781C128.002 162.569 128.239 165.7 126.527 167.762C124.192 169.672 112.925 186.618 109.349 185.867C105.012 185.797 104.079 180.473 97.4253 180.984C91.6575 181.023 90.7497 185.763 86.6326 185.967H86.6298ZM53.3326 114.077C52.6762 114.077 52.0394 114.362 51.6009 114.898C46.509 121.138 42.0287 125.976 36.8083 131.247C34.6018 133.328 38.9144 136.836 38.6323 141.025C39.3641 146.821 34.2414 150.098 36.786 152.43C53.9555 167.798 61.8685 175.272 85.9483 183.252C86.7695 183.529 87.6744 183.275 88.3141 182.59C90.6799 180.057 93.8669 178.565 97.2857 178.387C105.687 177.602 107.875 185.803 110.983 182.417C133.566 154.893 123.17 171.527 119.709 153.125C119.782 151.961 119.343 150.707 118.232 150.31C99.185 142.891 81.1524 132.333 67.9799 115.465C66.1029 113.412 63.388 116.074 61.0585 115.767C58.3128 116.111 55.8465 114.795 53.3354 114.083L53.3326 114.077Z" fill="#D12A6A"/>
</g>
<path d="M62.6588 130.638C62.6337 131.439 61.6561 134.104 62.4382 134.727C63.2342 135.668 66.5748 138.051 63.9158 138.917C63.156 139.14 60.3824 139.012 60.0556 139.964C59.4495 140.992 58.2429 145.039 56.6284 142.699L55.324 139.914C54.6313 138.333 49.0031 139.799 50.8689 136.76C51.355 136.123 53.6705 134.554 53.3912 133.584C53.3046 132.369 51.922 128.417 54.5978 129.305C55.3324 129.576 57.4999 131.356 58.3211 130.783C59.4718 130.297 62.6421 127.758 62.6616 130.638H62.6588Z" fill="#6E018A"/>
<path d="M99.255 156.458C99.2299 157.26 98.2523 159.924 99.0344 160.547C99.8304 161.489 103.171 163.871 100.512 164.737C99.7522 164.96 96.9786 164.832 96.6518 165.787C96.0457 166.815 94.8391 170.862 93.2246 168.522L91.9202 165.737C91.2275 164.156 85.5993 165.622 87.4651 162.584C87.9511 161.947 90.2667 160.377 89.9873 159.408C89.9008 158.193 88.5182 154.24 91.194 155.129C91.9286 155.4 94.0961 157.179 94.9173 156.606C96.068 156.12 99.2383 153.581 99.2578 156.461L99.255 156.458Z" fill="#6E018A"/>
<path d="M81.9708 140.975C81.9373 142.117 80.5379 145.916 81.658 146.807L84.7025 149.916C85.6661 150.902 85.1131 152.592 83.764 152.779C82.6831 153.097 78.728 152.913 78.2587 154.273C77.3314 155.773 75.7924 161.482 73.3707 158.172L71.5105 154.201C71.2758 153.701 70.8178 153.351 70.2843 153.265L66.0387 152.586C64.6924 152.371 64.1728 150.667 65.1588 149.704C65.8515 148.793 69.153 146.558 68.7536 145.176L68.0721 140.824C67.857 139.444 69.2759 138.411 70.4742 139.076C71.5216 139.461 74.6136 142 75.784 141.184L79.6078 139.176C80.82 138.539 82.2166 139.604 81.9736 140.978L81.9708 140.975Z" fill="#6E018A"/>
<g opacity="0.33">
<path d="M145.356 154.154C143.87 154.371 108.704 201.553 106.827 197.936C72.2926 192.509 39.7328 170.513 15.9268 144.056C14.5944 142.716 14.6782 140.495 16.1083 139.258C17.8876 137.719 20.5215 135.364 23.9347 132.104C32.3114 141.934 91.9452 189.694 93.5652 183.518C93.5652 183.518 113.866 164.365 126.186 144.218C133.622 146.822 139.504 148.154 143.457 148.83C145.889 149.249 146.956 152.224 145.356 154.151V154.154Z" fill="#D12A6A"/>
</g>
<path d="M120.31 154.735C118.656 154.858 117.511 152.864 118.399 151.456C119.743 149.183 120.542 147.669 120.547 147.652C121.84 145.146 125.594 147.289 124.259 149.705C124.226 149.769 123.407 151.322 122.005 153.696C121.628 154.333 120.983 154.702 120.307 154.735H120.31Z" fill="white"/>
<path d="M99.2438 179.251C97.216 179.424 96.2049 176.513 97.8863 175.346C100.045 173.72 102.096 172.025 103.981 170.31C104.852 169.517 106.185 169.598 106.958 170.491C107.732 171.385 107.654 172.751 106.783 173.544C104.442 175.363 102.157 178.181 99.2438 179.251ZM111.07 168.182C109.274 168.324 108.154 165.983 109.349 164.629C110.9 162.74 112.497 160.593 114.101 158.238C114.768 157.26 116.081 157.02 117.036 157.704C117.991 158.389 118.223 159.738 117.556 160.715C115.676 162.95 113.486 167.64 111.067 168.182H111.07Z" fill="white"/>
<path d="M88.7667 186.072C86.5657 186.256 85.697 182.944 87.6969 181.985C87.7109 181.977 89.1466 181.22 91.3699 179.829C92.3643 179.206 93.6603 179.527 94.2692 180.547C94.8753 181.566 94.5625 182.896 93.5681 183.519C90.2666 185.435 90.2443 185.751 88.7667 186.069V186.072Z" fill="white"/>
<g opacity="0.61">
<path d="M145.356 154.153L143.568 156.309C91.9118 139.632 67.6617 111.692 61.5754 103.723C60.7179 102.6 59.0643 102.502 58.0756 103.513C52.6457 108.938 24.1499 137.928 17.9687 146.109C15.8347 144.307 13.536 141.634 16.1085 139.257C17.8877 137.718 20.5216 135.364 23.9349 132.104C34.6885 122.577 52.1401 101.65 57.9024 92.7038C59.2766 90.757 62.1647 90.9469 63.2652 93.0697C70.6084 111.295 99.2215 136.805 126.187 144.218C133.622 146.821 139.502 148.156 143.454 148.832C145.887 149.251 146.954 152.226 145.353 154.153H145.356Z" fill="#FFF064"/>
</g>
</g>
</svg>
