<svg width="149" height="24" viewBox="0 0 149 24" fill="none" xmlns="http://www.w3.org/2000/svg">
<path d="M0 0.8H146.986L149 0V23.2L146.986 24H0L8.63768 12.4L0 0.8Z" fill="#D9D9D9"/>
<path d="M0 0.8H146.986L149 0V23.2L146.986 24H0L8.63768 12.4L0 0.8Z" fill="url(#paint0_linear_375_2256)"/>
<path d="M0 0.8H146.986L149 0V23.2L146.986 24H0L8.63768 12.4L0 0.8Z" fill="url(#paint1_linear_375_2256)"/>
<path d="M0 0.8H146.986L149 0V23.2L146.986 24H0L8.63768 12.4L0 0.8Z" fill="url(#paint2_linear_375_2256)"/>
<path d="M0 0.8H146.986L149 0V23.2L146.986 24H0L8.63768 12.4L0 0.8Z" fill="url(#paint3_linear_375_2256)"/>
<path d="M28.29 15L26.75 12.28H26.09V15H24.69V8.02H27.31C27.85 8.02 28.31 8.11667 28.69 8.31C29.07 8.49667 29.3533 8.75333 29.54 9.08C29.7333 9.4 29.83 9.76 29.83 10.16C29.83 10.62 29.6967 11.0367 29.43 11.41C29.1633 11.7767 28.7667 12.03 28.24 12.17L29.91 15L28.29 15ZM26.09 11.23H27.26C27.64 11.23 27.9233 11.14 28.11 10.96C28.2967 10.7733 28.39 10.5167 28.39 10.19C28.39 9.87 28.2967 9.62333 28.11 9.45C27.9233 9.27 27.64 9.18 27.26 9.18H26.09V11.23ZM38.7463 12.11C38.7463 12.31 38.7329 12.49 38.7063 12.65H34.6563C34.6896 13.05 34.8296 13.3633 35.0763 13.59C35.3229 13.8167 35.6263 13.93 35.9863 13.93C36.5063 13.93 36.8763 13.7067 37.0963 13.26H38.6063C38.4463 13.7933 38.1396 14.2333 37.6863 14.58C37.2329 14.92 36.6763 15.09 36.0163 15.09C35.4829 15.09 35.0029 14.9733 34.5763 14.74C34.1563 14.5 33.8263 14.1633 33.5863 13.73C33.3529 13.2967 33.2362 12.7967 33.2362 12.23C33.2362 11.6567 33.3529 11.1533 33.5863 10.72C33.8196 10.2867 34.1463 9.95333 34.5663 9.72C34.9863 9.48667 35.4696 9.37 36.0163 9.37C36.5429 9.37 37.0129 9.48333 37.4263 9.71C37.8463 9.93667 38.1696 10.26 38.3963 10.68C38.6296 11.0933 38.7463 11.57 38.7463 12.11ZM37.2963 11.71C37.2896 11.35 37.1596 11.0633 36.9063 10.85C36.6529 10.63 36.3429 10.52 35.9763 10.52C35.6296 10.52 35.3363 10.6267 35.0963 10.84C34.8629 11.0467 34.7196 11.3367 34.6663 11.71H37.2963ZM41.9081 12.23C41.9081 11.6567 42.0248 11.1567 42.2581 10.73C42.4915 10.2967 42.8148 9.96333 43.2281 9.73C43.6415 9.49 44.1148 9.37 44.6481 9.37C45.3348 9.37 45.9015 9.54333 46.3481 9.89C46.8015 10.23 47.1048 10.71 47.2581 11.33H45.7481C45.6681 11.09 45.5315 10.9033 45.3381 10.77C45.1515 10.63 44.9181 10.56 44.6381 10.56C44.2381 10.56 43.9215 10.7067 43.6881 11C43.4548 11.2867 43.3381 11.6967 43.3381 12.23C43.3381 12.7567 43.4548 13.1667 43.6881 13.46C43.9215 13.7467 44.2381 13.89 44.6381 13.89C45.2048 13.89 45.5748 13.6367 45.7481 13.13H47.2581C47.1048 13.73 46.8015 14.2067 46.3481 14.56C45.8948 14.9133 45.3281 15.09 44.6481 15.09C44.1148 15.09 43.6415 14.9733 43.2281 14.74C42.8148 14.5 42.4915 14.1667 42.2581 13.74C42.0248 13.3067 41.9081 12.8033 41.9081 12.23ZM53.2438 15.09C52.7104 15.09 52.2304 14.9733 51.8038 14.74C51.3771 14.5 51.0404 14.1633 50.7938 13.73C50.5538 13.2967 50.4338 12.7967 50.4338 12.23C50.4338 11.6633 50.5571 11.1633 50.8038 10.73C51.0571 10.2967 51.4004 9.96333 51.8338 9.73C52.2671 9.49 52.7504 9.37 53.2838 9.37C53.8171 9.37 54.3004 9.49 54.7338 9.73C55.1671 9.96333 55.5071 10.2967 55.7538 10.73C56.0071 11.1633 56.1338 11.6633 56.1338 12.23C56.1338 12.7967 56.0038 13.2967 55.7437 13.73C55.4904 14.1633 55.1438 14.5 54.7038 14.74C54.2704 14.9733 53.7838 15.09 53.2438 15.09ZM53.2438 13.87C53.4971 13.87 53.7338 13.81 53.9538 13.69C54.1804 13.5633 54.3604 13.3767 54.4938 13.13C54.6271 12.8833 54.6938 12.5833 54.6938 12.23C54.6938 11.7033 54.5538 11.3 54.2738 11.02C54.0004 10.7333 53.6638 10.59 53.2638 10.59C52.8638 10.59 52.5271 10.7333 52.2538 11.02C51.9871 11.3 51.8538 11.7033 51.8538 12.23C51.8538 12.7567 51.9838 13.1633 52.2438 13.45C52.5104 13.73 52.8438 13.87 53.2438 13.87ZM66.5407 9.38C67.2207 9.38 67.7674 9.59 68.1807 10.01C68.6007 10.4233 68.8107 11.0033 68.8107 11.75V15H67.4107V11.94C67.4107 11.5067 67.3007 11.1767 67.0807 10.95C66.8607 10.7167 66.5607 10.6 66.1807 10.6C65.8007 10.6 65.4974 10.7167 65.2707 10.95C65.0507 11.1767 64.9407 11.5067 64.9407 11.94V15H63.5407V11.94C63.5407 11.5067 63.4307 11.1767 63.2107 10.95C62.9907 10.7167 62.6907 10.6 62.3107 10.6C61.924 10.6 61.6174 10.7167 61.3907 10.95C61.1707 11.1767 61.0607 11.5067 61.0607 11.94V15H59.6607V9.46L61.0607 9.46V10.13C61.2407 9.89667 61.4707 9.71333 61.7507 9.58C62.0374 9.44667 62.3507 9.38 62.6907 9.38C63.124 9.38 63.5107 9.47333 63.8507 9.66C64.1907 9.84 64.454 10.1 64.6407 10.44C64.8207 10.12 65.0807 9.86333 65.4207 9.67C65.7674 9.47667 66.1407 9.38 66.5407 9.38ZM79.5192 9.38C80.1992 9.38 80.7459 9.59 81.1592 10.01C81.5792 10.4233 81.7892 11.0033 81.7892 11.75V15H80.3892V11.94C80.3892 11.5067 80.2792 11.1767 80.0592 10.95C79.8392 10.7167 79.5392 10.6 79.1592 10.6C78.7792 10.6 78.4759 10.7167 78.2492 10.95C78.0292 11.1767 77.9192 11.5067 77.9192 11.94V15H76.5192V11.94C76.5192 11.5067 76.4092 11.1767 76.1892 10.95C75.9692 10.7167 75.6692 10.6 75.2892 10.6C74.9026 10.6 74.5959 10.7167 74.3692 10.95C74.1492 11.1767 74.0392 11.5067 74.0392 11.94V15L72.6392 15V9.46H74.0392V10.13C74.2192 9.89667 74.4492 9.71333 74.7292 9.58C75.0159 9.44667 75.3292 9.38 75.6692 9.38C76.1026 9.38 76.4892 9.47333 76.8292 9.66C77.1692 9.84 77.4326 10.1 77.6192 10.44C77.7992 10.12 78.0592 9.86333 78.3992 9.67C78.7459 9.47667 79.1192 9.38 79.5192 9.38ZM90.7677 12.11C90.7677 12.31 90.7544 12.49 90.7277 12.65H86.6777C86.7111 13.05 86.8511 13.3633 87.0977 13.59C87.3444 13.8167 87.6477 13.93 88.0077 13.93C88.5277 13.93 88.8977 13.7067 89.1177 13.26H90.6277C90.4677 13.7933 90.1611 14.2333 89.7077 14.58C89.2544 14.92 88.6977 15.09 88.0377 15.09C87.5044 15.09 87.0244 14.9733 86.5977 14.74C86.1777 14.5 85.8477 14.1633 85.6077 13.73C85.3744 13.2967 85.2577 12.7967 85.2577 12.23C85.2577 11.6567 85.3744 11.1533 85.6077 10.72C85.8411 10.2867 86.1677 9.95333 86.5877 9.72C87.0077 9.48667 87.4911 9.37 88.0377 9.37C88.5644 9.37 89.0344 9.48333 89.4477 9.71C89.8677 9.93667 90.1911 10.26 90.4177 10.68C90.6511 11.0933 90.7677 11.57 90.7677 12.11ZM89.3177 11.71C89.3111 11.35 89.1811 11.0633 88.9277 10.85C88.6744 10.63 88.3644 10.52 87.9977 10.52C87.6511 10.52 87.3577 10.6267 87.1177 10.84C86.8844 11.0467 86.7411 11.3367 86.6877 11.71H89.3177ZM97.3596 9.38C98.0196 9.38 98.5529 9.59 98.9596 10.01C99.3663 10.4233 99.5696 11.0033 99.5696 11.75V15H98.1696V11.94C98.1696 11.5 98.0596 11.1633 97.8396 10.93C97.6196 10.69 97.3196 10.57 96.9396 10.57C96.5529 10.57 96.2463 10.69 96.0196 10.93C95.7996 11.1633 95.6896 11.5 95.6896 11.94V15H94.2896V9.46H95.6896V10.15C95.8763 9.91 96.1129 9.72333 96.3996 9.59C96.6929 9.45 97.0129 9.38 97.3596 9.38ZM103.041 12.21C103.041 11.65 103.151 11.1533 103.371 10.72C103.598 10.2867 103.904 9.95333 104.291 9.72C104.678 9.48667 105.108 9.37 105.581 9.37C105.941 9.37 106.284 9.45 106.611 9.61C106.938 9.76333 107.198 9.97 107.391 10.23V7.6L108.811 7.6V15H107.391V14.18C107.218 14.4533 106.974 14.6733 106.661 14.84C106.348 15.0067 105.984 15.09 105.571 15.09C105.104 15.09 104.678 14.97 104.291 14.73C103.904 14.49 103.598 14.1533 103.371 13.72C103.151 13.28 103.041 12.7767 103.041 12.21ZM107.401 12.23C107.401 11.89 107.334 11.6 107.201 11.36C107.068 11.1133 106.888 10.9267 106.661 10.8C106.434 10.6667 106.191 10.6 105.931 10.6C105.671 10.6 105.431 10.6633 105.211 10.79C104.991 10.9167 104.811 11.1033 104.671 11.35C104.538 11.59 104.471 11.8767 104.471 12.21C104.471 12.5433 104.538 12.8367 104.671 13.09C104.811 13.3367 104.991 13.5267 105.211 13.66C105.438 13.7933 105.678 13.86 105.931 13.86C106.191 13.86 106.434 13.7967 106.661 13.67C106.888 13.5367 107.068 13.35 107.201 13.11C107.334 12.8633 107.401 12.57 107.401 12.23ZM117.828 12.11C117.828 12.31 117.815 12.49 117.788 12.65H113.738C113.772 13.05 113.912 13.3633 114.158 13.59C114.405 13.8167 114.708 13.93 115.068 13.93C115.588 13.93 115.958 13.7067 116.178 13.26H117.688C117.528 13.7933 117.222 14.2333 116.768 14.58C116.315 14.92 115.758 15.09 115.098 15.09C114.565 15.09 114.085 14.9733 113.658 14.74C113.238 14.5 112.908 14.1633 112.668 13.73C112.435 13.2967 112.318 12.7967 112.318 12.23C112.318 11.6567 112.435 11.1533 112.668 10.72C112.902 10.2867 113.228 9.95333 113.648 9.72C114.068 9.48667 114.552 9.37 115.098 9.37C115.625 9.37 116.095 9.48333 116.508 9.71C116.928 9.93667 117.252 10.26 117.478 10.68C117.712 11.0933 117.828 11.57 117.828 12.11ZM116.378 11.71C116.372 11.35 116.242 11.0633 115.988 10.85C115.735 10.63 115.425 10.52 115.058 10.52C114.712 10.52 114.418 10.6267 114.178 10.84C113.945 11.0467 113.802 11.3367 113.748 11.71H116.378ZM120.99 12.21C120.99 11.65 121.1 11.1533 121.32 10.72C121.547 10.2867 121.853 9.95333 122.24 9.72C122.627 9.48667 123.057 9.37 123.53 9.37C123.89 9.37 124.233 9.45 124.56 9.61C124.887 9.76333 125.147 9.97 125.34 10.23V7.6H126.76V15H125.34V14.18C125.167 14.4533 124.923 14.6733 124.61 14.84C124.297 15.0067 123.933 15.09 123.52 15.09C123.053 15.09 122.627 14.97 122.24 14.73C121.853 14.49 121.547 14.1533 121.32 13.72C121.1 13.28 120.99 12.7767 120.99 12.21ZM125.35 12.23C125.35 11.89 125.283 11.6 125.15 11.36C125.017 11.1133 124.837 10.9267 124.61 10.8C124.383 10.6667 124.14 10.6 123.88 10.6C123.62 10.6 123.38 10.6633 123.16 10.79C122.94 10.9167 122.76 11.1033 122.62 11.35C122.487 11.59 122.42 11.8767 122.42 12.21C122.42 12.5433 122.487 12.8367 122.62 13.09C122.76 13.3367 122.94 13.5267 123.16 13.66C123.387 13.7933 123.627 13.86 123.88 13.86C124.14 13.86 124.383 13.7967 124.61 13.67C124.837 13.5367 125.017 13.35 125.15 13.11C125.283 12.8633 125.35 12.57 125.35 12.23Z" fill="white"/>
<defs>
<linearGradient id="paint0_linear_375_2256" x1="0" y1="0" x2="149" y2="24" gradientUnits="userSpaceOnUse">
<stop stop-color="#C02739"/>
<stop offset="1" stop-color="#AB27C0"/>
</linearGradient>
<linearGradient id="paint1_linear_375_2256" x1="149" y1="8.94442e-06" x2="10.294" y2="51.6465" gradientUnits="userSpaceOnUse">
<stop stop-color="#0094FF"/>
<stop offset="1" stop-color="#7B00F6"/>
</linearGradient>
<linearGradient id="paint2_linear_375_2256" x1="149" y1="8.94442e-06" x2="10.294" y2="51.6465" gradientUnits="userSpaceOnUse">
<stop stop-color="#6B8BFF"/>
<stop offset="1" stop-color="#009DF6"/>
</linearGradient>
<linearGradient id="paint3_linear_375_2256" x1="149" y1="8.94442e-06" x2="10.294" y2="51.6465" gradientUnits="userSpaceOnUse">
<stop stop-color="#EDB900"/>
<stop offset="1" stop-color="#F68500"/>
</linearGradient>
</defs>
</svg>
