<svg width="16" height="16" viewBox="0 0 16 16" fill="none" xmlns="http://www.w3.org/2000/svg">
<path d="M14.9261 1.19517C14.9204 1.16753 14.907 1.14209 14.8873 1.12183C14.8677 1.10157 14.8427 1.08734 14.8152 1.08079C12.9849 0.63329 8.75583 2.22798 6.46458 4.51829C6.05592 4.92365 5.68336 5.36386 5.35114 5.83392C4.64458 5.77142 3.93802 5.8236 3.33583 6.0861C1.63677 6.83392 1.14208 8.78517 1.00427 9.62454C0.996451 9.67048 0.9994 9.71761 1.01288 9.76222C1.02636 9.80683 1.05001 9.84771 1.08197 9.88163C1.11392 9.91555 1.15331 9.9416 1.19703 9.95772C1.24076 9.97384 1.28763 9.9796 1.33396 9.97454L4.06239 9.6736C4.06434 9.87931 4.07675 10.0848 4.09958 10.2892C4.11331 10.4312 4.17633 10.5639 4.27771 10.6642L5.33427 11.7183C5.43471 11.8195 5.56734 11.8825 5.70927 11.8964C5.91257 11.9192 6.1169 11.9316 6.32146 11.9336L6.02208 14.6586C6.01709 14.7049 6.02289 14.7518 6.03903 14.7955C6.05518 14.8391 6.08123 14.8785 6.11513 14.9104C6.14904 14.9424 6.18989 14.966 6.23447 14.9795C6.27905 14.993 6.32615 14.996 6.37208 14.9883C7.20989 14.8539 9.16458 14.3592 9.90802 12.6602C10.1705 12.058 10.2243 11.3549 10.1636 10.6517C10.6348 10.3195 11.0762 9.94683 11.4827 9.53798C13.7811 7.2511 15.3668 3.11642 14.9261 1.19517ZM9.18958 6.80985C8.9797 6.60011 8.83675 6.33284 8.77879 6.04184C8.72083 5.75084 8.75048 5.44919 8.86398 5.17505C8.97748 4.9009 9.16974 4.66658 9.41644 4.50171C9.66313 4.33684 9.95318 4.24885 10.2499 4.24885C10.5466 4.24885 10.8367 4.33684 11.0834 4.50171C11.33 4.66658 11.5223 4.9009 11.6358 5.17505C11.7493 5.44919 11.779 5.75084 11.721 6.04184C11.663 6.33284 11.5201 6.60011 11.3102 6.80985C11.171 6.94922 11.0058 7.05979 10.8238 7.13523C10.6419 7.21066 10.4469 7.24949 10.2499 7.24949C10.0529 7.24949 9.85791 7.21066 9.67597 7.13523C9.49403 7.05979 9.32875 6.94922 9.18958 6.80985Z" fill="#FFF9F9"/>
<path d="M5.2625 12.4822C5.09125 12.6538 4.81656 12.7206 4.48594 12.7778C3.74312 12.9044 3.08719 12.2625 3.22062 11.5116C3.27156 11.2269 3.42219 10.8278 3.51594 10.7341C3.53643 10.714 3.55007 10.6879 3.55492 10.6596C3.55977 10.6314 3.55558 10.6023 3.54295 10.5765C3.53033 10.5507 3.5099 10.5296 3.48457 10.5161C3.45925 10.5026 3.43031 10.4974 3.40188 10.5013C2.98649 10.5521 2.60004 10.7404 2.30406 11.0363C1.56938 11.7716 1.5 14.5 1.5 14.5C1.5 14.5 4.23 14.4306 4.96469 13.6953C5.26146 13.3996 5.45002 13.0125 5.5 12.5966C5.51156 12.4659 5.3525 12.3881 5.2625 12.4822Z" fill="#FFF9F9"/>
</svg>
