<svg width="32" height="32" viewBox="0 0 32 32" fill="none" xmlns="http://www.w3.org/2000/svg">
<rect x="1" y="1" width="30" height="30" rx="15" fill="white"/>
<path d="M15.25 18.6666C15.25 19.0809 15.5858 19.4166 16 19.4166C16.4142 19.4166 16.75 19.0809 16.75 18.6666H15.25ZM16.75 11.3333C16.75 10.9191 16.4142 10.5833 16 10.5833C15.5858 10.5833 15.25 10.9191 15.25 11.3333L16.75 11.3333ZM18.1363 13.197C18.4292 13.4899 18.9041 13.4899 19.197 13.197C19.4899 12.9041 19.4899 12.4292 19.197 12.1363L18.1363 13.197ZM16.4714 10.4714L15.9411 11.0017L16.4714 10.4714ZM15.5286 10.4714L16.0589 11.0017L16.0589 11.0017L15.5286 10.4714ZM12.803 12.1363C12.5101 12.4292 12.5101 12.9041 12.803 13.197C13.0959 13.4899 13.5708 13.4899 13.8637 13.197L12.803 12.1363ZM10.75 18.6666C10.75 18.2524 10.4142 17.9166 10 17.9166C9.58579 17.9166 9.25 18.2524 9.25 18.6666H10.75ZM22.75 18.6666C22.75 18.2524 22.4142 17.9166 22 17.9166C21.5858 17.9166 21.25 18.2524 21.25 18.6666H22.75ZM20.908 21.782L20.5675 21.1137H20.5675L20.908 21.782ZM21.782 20.908L22.4503 21.2485V21.2485L21.782 20.908ZM10.218 20.908L9.54973 21.2485L10.218 20.908ZM11.092 21.782L10.7515 22.4502L10.7515 22.4502L11.092 21.782ZM16.75 18.6666L16.75 11.3333L15.25 11.3333L15.25 18.6666H16.75ZM19.197 12.1363L17.0017 9.94105L15.9411 11.0017L18.1363 13.197L19.197 12.1363ZM14.9983 9.94106L12.803 12.1363L13.8637 13.197L16.0589 11.0017L14.9983 9.94106ZM17.0017 9.94105C16.4485 9.38781 15.5515 9.38781 14.9983 9.94106L16.0589 11.0017C16.0264 11.0343 15.9736 11.0343 15.9411 11.0017L17.0017 9.94105ZM9.25 18.6666V18.8H10.75V18.6666H9.25ZM13.2 22.75H18.8V21.25H13.2V22.75ZM22.75 18.8V18.6666H21.25V18.8H22.75ZM18.8 22.75C19.3477 22.75 19.8035 22.7506 20.1747 22.7202C20.5546 22.6892 20.9112 22.6221 21.2485 22.4502L20.5675 21.1137C20.4769 21.1599 20.3396 21.2018 20.0525 21.2252C19.7566 21.2494 19.3724 21.25 18.8 21.25V22.75ZM21.25 18.8C21.25 19.3724 21.2494 19.7566 21.2252 20.0525C21.2018 20.3396 21.1599 20.4769 21.1138 20.5675L22.4503 21.2485C22.6221 20.9112 22.6892 20.5545 22.7203 20.1747C22.7506 19.8035 22.75 19.3477 22.75 18.8H21.25ZM21.2485 22.4502C21.7659 22.1866 22.1866 21.7659 22.4503 21.2485L21.1138 20.5675C20.9939 20.8027 20.8027 20.9939 20.5675 21.1137L21.2485 22.4502ZM9.25 18.8C9.25 19.3477 9.24942 19.8035 9.27974 20.1747C9.31078 20.5545 9.37789 20.9112 9.54973 21.2485L10.8862 20.5675C10.8401 20.4769 10.7982 20.3396 10.7748 20.0525C10.7506 19.7566 10.75 19.3724 10.75 18.8H9.25ZM13.2 21.25C12.6276 21.25 12.2434 21.2494 11.9475 21.2252C11.6604 21.2018 11.5231 21.1599 11.4325 21.1137L10.7515 22.4502C11.0888 22.6221 11.4454 22.6892 11.8253 22.7202C12.1965 22.7506 12.6523 22.75 13.2 22.75V21.25ZM9.54973 21.2485C9.81338 21.7659 10.2341 22.1866 10.7515 22.4502L11.4325 21.1137C11.1973 20.9939 11.0061 20.8027 10.8862 20.5675L9.54973 21.2485Z" fill="#C02739"/>
<rect x="1" y="1" width="30" height="30" rx="15" stroke="#1C1B1B" stroke-width="2"/>
</svg>
