<svg width="12" height="12" viewBox="0 0 12 12" fill="none" xmlns="http://www.w3.org/2000/svg">
<path d="M2.57576 2.58856C3.45143 1.70987 4.66152 1.16699 5.99935 1.16699C8.66873 1.16699 10.8327 3.33095 10.8327 6.00033C10.8327 8.6697 8.66873 10.8337 5.99935 10.8337C3.32997 10.8337 1.16602 8.6697 1.16602 6.00033C1.16602 5.72418 0.942158 5.50033 0.666016 5.50033C0.389873 5.50033 0.166016 5.72418 0.166016 6.00033C0.166016 9.22199 2.77769 11.8337 5.99935 11.8337C9.22101 11.8337 11.8327 9.22199 11.8327 6.00033C11.8327 2.77866 9.22101 0.166992 5.99935 0.166992C4.38502 0.166992 2.92307 0.823407 1.86744 1.88267C1.85047 1.8997 1.83498 1.91764 1.82098 1.93633L0.982601 1.09796C0.891144 1.0065 0.755037 0.976204 0.633423 1.02023C0.511809 1.06426 0.426644 1.17467 0.414934 1.30348L0.179232 3.8962C0.170275 3.99472 0.205542 4.09213 0.275494 4.16209C0.345445 4.23204 0.442854 4.2673 0.541375 4.25835L3.1341 4.02264C3.26291 4.01094 3.37331 3.92577 3.41734 3.80416C3.46137 3.68254 3.43108 3.54644 3.33962 3.45498L2.52088 2.63623C2.54002 2.6219 2.55837 2.606 2.57576 2.58856Z" fill="#FFF9F9"/>
<path d="M6.49935 2.66699C6.49935 2.39085 6.27549 2.16699 5.99935 2.16699C5.72321 2.16699 5.49935 2.39085 5.49935 2.66699V6.00033C5.49935 6.17272 5.58816 6.33296 5.73435 6.42432L7.73435 7.67432C7.96852 7.82068 8.27699 7.74949 8.42335 7.51532C8.5697 7.28116 8.49852 6.97268 8.26435 6.82633L6.49935 5.7232V2.66699Z" fill="#FFF9F9"/>
</svg>
