<svg width="68" height="68" viewBox="0 0 68 68" fill="none" xmlns="http://www.w3.org/2000/svg">
<rect x="0.5" y="0.5" width="67" height="67" rx="33.5" fill="#C02739" fill-opacity="0.05"/>
<rect x="0.5" y="0.5" width="67" height="67" rx="33.5" stroke="#C02739"/>
<path d="M31.0564 23.9743L32.0299 25.7187C32.9085 27.2929 32.5558 29.358 31.1721 30.7417C31.1721 30.7417 31.1721 30.7417 31.1721 30.7417C31.1719 30.7418 29.4938 32.4202 32.5368 35.4632C35.5791 38.5056 37.2575 36.8287 37.2583 36.8279C37.2583 36.8279 37.2583 36.8279 37.2583 36.8279C38.642 35.4442 40.7071 35.0915 42.2813 35.9701L44.0257 36.9436C46.4028 38.2702 46.6836 41.6039 44.5942 43.6933C43.3386 44.9488 41.8006 45.9257 40.1004 45.9902C37.2382 46.0987 32.3774 45.3743 27.5016 40.4984C22.6257 35.6226 21.9013 30.7618 22.0098 27.8996C22.0743 26.1994 23.0512 24.6614 24.3067 23.4058C26.3961 21.3164 29.7298 21.5972 31.0564 23.9743Z" fill="#C02739"/>
</svg>
