<svg width="24" height="24" viewBox="0 0 24 24" fill="none" xmlns="http://www.w3.org/2000/svg">
<g clip-path="url(#clip0_1775_3508)">
<path d="M15.207 14.2075L13.414 16.0005L15.207 17.7935C15.3025 17.8858 15.3787 17.9961 15.4311 18.1181C15.4835 18.2401 15.5111 18.3713 15.5123 18.5041C15.5134 18.6369 15.4881 18.7686 15.4378 18.8915C15.3875 19.0144 15.3133 19.126 15.2194 19.2199C15.1255 19.3138 15.0139 19.3881 14.891 19.4383C14.7681 19.4886 14.6364 19.5139 14.5036 19.5128C14.3708 19.5116 14.2396 19.484 14.1176 19.4316C13.9956 19.3792 13.8852 19.303 13.793 19.2075L12 17.4145L10.207 19.2075C10.0184 19.3897 9.7658 19.4905 9.5036 19.4882C9.2414 19.4859 8.99059 19.3807 8.80518 19.1953C8.61977 19.0099 8.5146 18.7591 8.51233 18.4969C8.51005 18.2347 8.61084 17.9821 8.793 17.7935L10.586 16.0005L8.793 14.2075C8.61084 14.0189 8.51005 13.7663 8.51233 13.5041C8.5146 13.2419 8.61977 12.9911 8.80518 12.8057C8.99059 12.6203 9.2414 12.5151 9.5036 12.5128C9.7658 12.5106 10.0184 12.6114 10.207 12.7935L12 14.5865L13.793 12.7935C13.9816 12.6114 14.2342 12.5106 14.4964 12.5128C14.7586 12.5151 15.0094 12.6203 15.1948 12.8057C15.3802 12.9911 15.4854 13.2419 15.4877 13.5041C15.49 13.7663 15.3892 14.0189 15.207 14.2075ZM22 10.4855V19.0005C21.9984 20.3261 21.4711 21.597 20.5338 22.5343C19.5964 23.4716 18.3256 23.9989 17 24.0005H7C5.67441 23.9989 4.40356 23.4716 3.46622 22.5343C2.52888 21.597 2.00159 20.3261 2 19.0005V5.00051C2.00159 3.67492 2.52888 2.40407 3.46622 1.46673C4.40356 0.529393 5.67441 0.00209919 7 0.00051133H11.515C12.4346 -0.0018556 13.3456 0.178099 14.1952 0.529971C15.0449 0.881842 15.8163 1.39865 16.465 2.05051L19.949 5.53651C20.6012 6.18475 21.1184 6.95597 21.4704 7.80549C21.8225 8.655 22.0025 9.56593 22 10.4855ZM15.051 3.46451C14.7363 3.15967 14.3829 2.89744 14 2.68451V7.00051C14 7.26573 14.1054 7.52008 14.2929 7.70762C14.4804 7.89515 14.7348 8.00051 15 8.00051H19.316C19.103 7.6177 18.8404 7.26466 18.535 6.95051L15.051 3.46451ZM20 10.4855C20 10.3205 19.968 10.1625 19.953 10.0005H15C14.2044 10.0005 13.4413 9.68444 12.8787 9.12183C12.3161 8.55922 12 7.79616 12 7.00051V2.04751C11.838 2.03251 11.679 2.00051 11.515 2.00051H7C6.20435 2.00051 5.44129 2.31658 4.87868 2.87919C4.31607 3.4418 4 4.20486 4 5.00051V19.0005C4 19.7962 4.31607 20.5592 4.87868 21.1218C5.44129 21.6844 6.20435 22.0005 7 22.0005H17C17.7956 22.0005 18.5587 21.6844 19.1213 21.1218C19.6839 20.5592 20 19.7962 20 19.0005V10.4855Z" fill="white"/>
</g>
<defs>
<clipPath id="clip0_1775_3508">
<rect width="24" height="24" fill="white"/>
</clipPath>
</defs>
</svg>
