<svg width="19" height="19" viewBox="0 0 19 19" fill="none" xmlns="http://www.w3.org/2000/svg">
<path d="M16 2L11 7M17 6L17 1.88388C17 1.39573 16.6043 1 16.1161 1H12M8.58101 10.419C7.48312 9.32109 6.6162 8.07969 5.98026 6.75516C5.92556 6.64123 5.89821 6.58426 5.8772 6.51218C5.80252 6.25601 5.85616 5.94146 6.0115 5.72452C6.05521 5.66347 6.10744 5.61125 6.21189 5.5068C6.53133 5.18736 6.69105 5.02764 6.79547 4.86703C7.18927 4.26134 7.18927 3.4805 6.79547 2.87481C6.69104 2.7142 6.53133 2.55448 6.21189 2.23504L6.03383 2.05699C5.54825 1.5714 5.30546 1.32861 5.0447 1.19672C4.52611 0.934425 3.91369 0.934425 3.3951 1.19672C3.13434 1.32861 2.89155 1.57141 2.40597 2.05699L2.26193 2.20102C1.77801 2.68494 1.53605 2.92691 1.35126 3.25587C1.1462 3.6209 0.998762 4.18785 1.00001 4.60653C1.00113 4.98385 1.07432 5.24172 1.22071 5.75746C2.00738 8.52911 3.49168 11.1445 5.6736 13.3264C7.85553 15.5083 10.4709 16.9926 13.2425 17.7793C13.7583 17.9257 14.0162 17.9989 14.3935 18C14.8121 18.0012 15.3791 17.8538 15.7441 17.6487C16.0731 17.4639 16.3151 17.222 16.799 16.7381L16.943 16.594C17.4286 16.1084 17.6714 15.8657 17.8033 15.6049C18.0656 15.0863 18.0656 14.4739 17.8033 13.9553C17.6714 13.6945 17.4286 13.4518 16.943 12.9662L16.765 12.7881C16.4455 12.4687 16.2858 12.309 16.1252 12.2045C15.5195 11.8107 14.7387 11.8107 14.133 12.2045C13.9724 12.309 13.8126 12.4687 13.4932 12.7881C13.3888 12.8926 13.3365 12.9448 13.2755 12.9885C13.0585 13.1438 12.744 13.1975 12.4878 13.1228C12.4157 13.1018 12.3588 13.0744 12.2448 13.0197C10.9203 12.3838 9.67891 11.5169 8.58101 10.419Z" stroke="#FFF9F9" stroke-width="2" stroke-linecap="round"/>
</svg>
