<svg width="24" height="24" viewBox="0 0 24 24" fill="none" xmlns="http://www.w3.org/2000/svg">
<defs>
<linearGradient id="paint0_linear_565_3275" x1="12" y1="3.92529" x2="12" y2="20.0748" gradientUnits="userSpaceOnUse">
<stop offset="0.247917" stop-color="#C02739"/>
<stop offset="1" stop-color="#FF5B50"/>
</linearGradient>
</defs>
<path d="M23.0557 9.00253C23.0594 9.06856 23.0545 9.13576 23.0379 9.20251L21.5576 15.124C21.4829 15.4223 21.2156 15.6321 20.9082 15.6337L12.0259 15.6786C12.0248 15.6786 12.0237 15.6786 12.0225 15.6786H3.14019C2.83119 15.6786 2.56194 15.4681 2.4873 15.1682L1.00692 9.22431C0.989877 9.15577 0.984942 9.08668 0.989249 9.01895C0.416568 8.83852 0 8.30262 0 7.67109C0 6.89187 0.633869 6.258 1.41308 6.258C2.1923 6.258 2.82617 6.89187 2.82617 7.67109C2.82617 8.10991 2.62511 8.50252 2.31028 8.7619L4.16371 10.6293C4.63213 11.1013 5.28215 11.3719 5.94716 11.3719C6.73346 11.3719 7.48315 10.9985 7.95526 10.3729L11.0012 6.33696C10.7454 6.08126 10.5869 5.72794 10.5869 5.33838C10.5869 4.55916 11.2208 3.92529 12 3.92529C12.7792 3.92529 13.4131 4.55916 13.4131 5.33838C13.4131 5.71628 13.2631 6.05927 13.0206 6.31309C13.0214 6.31417 13.0224 6.31507 13.0232 6.31623L16.0471 10.3633C16.519 10.9949 17.2714 11.372 18.0599 11.372C18.731 11.372 19.3621 11.1107 19.8366 10.6361L21.7017 8.77096C21.3803 8.51167 21.1738 8.11529 21.1738 7.67109C21.1738 6.89187 21.8077 6.258 22.5869 6.258C23.3661 6.258 24 6.89187 24 7.67109C24 8.28576 23.6048 8.80855 23.0557 9.00253ZM21.4131 17.787C21.4131 17.4154 21.1118 17.1141 20.7402 17.1141H3.33461C2.96299 17.1141 2.66171 17.4154 2.66171 17.787V19.4019C2.66171 19.7735 2.96299 20.0748 3.33461 20.0748H20.7402C21.1118 20.0748 21.4131 19.7735 21.4131 19.4019V17.787Z" fill="url(#paint0_linear_565_3275)"/>
</svg>
