<svg width="68" height="68" viewBox="0 0 68 68" fill="none" xmlns="http://www.w3.org/2000/svg">
<rect width="68" height="68" rx="34" fill="#EF4242" fill-opacity="0.15"/>
<path d="M33.9995 52C41.2642 52 47.1534 46.1334 47.1534 38.8965C47.1534 31.6596 41.2642 25.793 33.9995 25.793C26.7349 25.793 20.8457 31.6596 20.8457 38.8965C20.8457 46.1334 26.7349 52 33.9995 52Z" fill="#FF66AC"/>
<path d="M34.1381 42.0171C31.4617 42.0051 29.4864 44.2926 29.7338 46.853H38.5424V46.2917C38.5424 43.9309 36.5705 42.0171 34.1381 42.0171Z" fill="#EFEFEF"/>
<path d="M40.874 37.328C40.8122 37.328 40.7494 37.3173 40.6879 37.2947L37.5101 36.124C37.1431 36.001 37.0371 35.4859 37.3257 35.228L39.9044 32.7823C40.1203 32.5777 40.4609 32.5867 40.6656 32.8024C40.8702 33.0183 40.8612 33.359 40.6455 33.5637L38.6955 35.413L41.0601 36.2841C41.6196 36.4709 41.4522 37.3478 40.874 37.328Z" fill="white"/>
<path d="M27.1255 37.328C26.5471 37.3477 26.3802 36.4707 26.9393 36.2841L29.3039 35.413L27.354 33.5637C27.1382 33.359 27.1292 33.0182 27.3338 32.8024C27.5385 32.5867 27.8794 32.5777 28.0951 32.7823L30.6738 35.228C30.9626 35.4858 30.8564 36.0011 30.4895 36.124L27.3116 37.2947C27.2501 37.3172 27.1873 37.328 27.1255 37.328Z" fill="white"/>
<path d="M33.9994 22.6566C33.702 22.6566 33.4609 22.4155 33.4609 22.1182V16.5385C33.4609 16.2411 33.702 16 33.9994 16C34.2968 16 34.5379 16.2411 34.5379 16.5385V22.1182C34.5379 22.4155 34.2968 22.6566 33.9994 22.6566Z" fill="#DDDDDD"/>
<path d="M41.0463 24.9965C40.7489 24.9965 40.5078 24.7555 40.5078 24.4581V16.5385C40.5078 16.2411 40.7489 16 41.0463 16C41.3437 16 41.5847 16.2411 41.5847 16.5385V24.4581C41.5847 24.7555 41.3437 24.9965 41.0463 24.9965Z" fill="#DDDDDD"/>
<path d="M26.9525 24.9965C26.6551 24.9965 26.4141 24.7555 26.4141 24.4581V16.5385C26.4141 16.2411 26.6551 16 26.9525 16C27.2499 16 27.491 16.2411 27.491 16.5385V24.4581C27.491 24.7555 27.2499 24.9965 26.9525 24.9965Z" fill="#DDDDDD"/>
<path d="M22.1627 24.1262L22.7586 23.9999L22.0694 23.8044C21.7065 23.7015 21.4293 23.4076 21.3479 23.0392L21.2201 22.4614L21.0923 23.0392C21.0109 23.4076 20.7337 23.7015 20.3708 23.8044L19.6816 23.9999L20.2776 24.1262C20.6634 24.208 20.9681 24.5037 21.0614 24.8869L21.2201 25.5384L21.3788 24.8869C21.4721 24.5037 21.7769 24.208 22.1627 24.1262Z" fill="#C2C2FF"/>
<path d="M47.7212 24.1262L48.3172 23.9999L47.628 23.8044C47.2651 23.7015 46.9879 23.4076 46.9065 23.0392L46.7787 22.4614L46.6509 23.0392C46.5695 23.4076 46.2923 23.7015 45.9294 23.8044L45.2402 23.9999L45.8362 24.1262C46.222 24.208 46.5267 24.5037 46.62 24.8869L46.7787 25.5384L46.9374 24.8869C47.0306 24.5037 47.3354 24.208 47.7212 24.1262Z" fill="#FF8A80"/>
</svg>
