<svg width="20" height="20" viewBox="0 0 20 20" fill="none" xmlns="http://www.w3.org/2000/svg">
<path d="M11 1C11 0.447715 10.5523 0 10 0C9.44771 5.96046e-08 9 0.447715 9 1L11 1ZM9 12C9 12.5523 9.44772 13 10 13C10.5523 13 11 12.5523 11 12H9ZM14.7071 10.7071C15.0976 10.3166 15.0976 9.68342 14.7071 9.29289C14.3166 8.90237 13.6834 8.90237 13.2929 9.29289L14.7071 10.7071ZM10.7071 13.2929L10 12.5858L10.7071 13.2929ZM9.29289 13.2929L10 12.5858H10L9.29289 13.2929ZM6.70711 9.29289C6.31658 8.90237 5.68342 8.90237 5.29289 9.29289C4.90237 9.68342 4.90237 10.3166 5.29289 10.7071L6.70711 9.29289ZM2 14C2 13.4477 1.55228 13 1 13C0.447715 13 0 13.4477 0 14H2ZM20 14C20 13.4477 19.5523 13 19 13C18.4477 13 18 13.4477 18 14H20ZM17.362 18.673L16.908 17.782H16.908L17.362 18.673ZM18.673 17.362L19.564 17.816L18.673 17.362ZM1.32698 17.362L0.435974 17.816L1.32698 17.362ZM2.63803 18.673L2.18404 19.564H2.18404L2.63803 18.673ZM9 1L9 12H11L11 1L9 1ZM13.2929 9.29289L10 12.5858L11.4142 14L14.7071 10.7071L13.2929 9.29289ZM10 12.5858L6.70711 9.29289L5.29289 10.7071L8.58579 14L10 12.5858ZM10 12.5858H10L8.58579 14C9.36683 14.781 10.6332 14.781 11.4142 14L10 12.5858ZM0 14V14.2H2V14H0ZM5.8 20H14.2V18H5.8V20ZM20 14.2V14H18V14.2H20ZM14.2 20C15.0236 20 15.7014 20.0008 16.2518 19.9558C16.8139 19.9099 17.3306 19.8113 17.816 19.564L16.908 17.782C16.7516 17.8617 16.5274 17.9266 16.089 17.9624C15.6389 17.9992 15.0566 18 14.2 18V20ZM18 14.2C18 15.0566 17.9992 15.6389 17.9624 16.089C17.9266 16.5274 17.8617 16.7516 17.782 16.908L19.564 17.816C19.8113 17.3306 19.9099 16.8139 19.9558 16.2518C20.0008 15.7014 20 15.0236 20 14.2H18ZM17.816 19.564C18.5686 19.1805 19.1805 18.5686 19.564 17.816L17.782 16.908C17.5903 17.2843 17.2843 17.5903 16.908 17.782L17.816 19.564ZM0 14.2C0 15.0236 -0.000777721 15.7014 0.0441936 16.2518C0.0901188 16.8139 0.188683 17.3306 0.435974 17.816L2.21799 16.908C2.1383 16.7516 2.07337 16.5274 2.03755 16.089C2.00078 15.6389 2 15.0566 2 14.2H0ZM5.8 18C4.94342 18 4.36113 17.9992 3.91104 17.9624C3.47262 17.9266 3.24842 17.8617 3.09202 17.782L2.18404 19.564C2.66937 19.8113 3.18608 19.9099 3.74817 19.9558C4.2986 20.0008 4.97642 20 5.8 20V18ZM0.435974 17.816C0.819468 18.5686 1.43139 19.1805 2.18404 19.564L3.09202 17.782C2.71569 17.5903 2.40973 17.2843 2.21799 16.908L0.435974 17.816Z" fill="white"/>
</svg>
