<svg width="36" height="38" viewBox="0 0 36 38" fill="none" xmlns="http://www.w3.org/2000/svg">
<path d="M35.8937 18.5218C35.8937 18.5218 35.6211 20.8973 35.093 22.9539C33.1121 30.6666 26.3863 35.875 18.3895 35.3727C9.87749 34.9526 3.07849 27.6832 3.47648 19.1823C3.73535 11.9223 9.35976 5.71639 16.6248 4.84453C21.097 4.27657 25.6192 5.8287 28.7721 8.9531C26.5577 11.8597 17.6947 23.4936 16.3414 25.2703L12.1965 19.1197L8.42982 22.7461C8.97943 23.1318 16.0567 28.2203 16.4202 28.4702L17.1046 27.7899L34.3642 10.6317L35.9997 9.00582L34.446 7.13907C31.4977 3.58345 27.2977 1.11488 22.7402 0.313314C12.268 -1.58859 2.05811 5.36447 0.269306 15.8444C-0.478002 20.1613 0.340806 24.7345 2.59091 28.4963C6.20341 34.6358 13.2018 38.2176 20.317 37.4662C29.4962 36.5999 36.3705 28.0694 35.8937 18.5218Z" fill="#FFF9F9"/>
</svg>
