<svg width="68" height="68" viewBox="0 0 68 68" fill="none" xmlns="http://www.w3.org/2000/svg">
<rect width="68" height="68" rx="34" fill="#FFF9F9" fill-opacity="0.1"/>
<path d="M43.3133 48.8326L17.3848 48.825V19.1748H43.3133V48.8326Z" fill="#DDDDDD"/>
<path d="M33.0251 52L17.3848 48.8251V19.1749L33.0251 16V52Z" fill="#FF66AC"/>
<path d="M28.056 38.3479C27.7587 38.3479 27.5176 38.1068 27.5176 37.8095V37.0314C27.5176 36.734 27.7587 36.4929 28.056 36.4929C28.3534 36.4929 28.5945 36.734 28.5945 37.0314V37.8095C28.5945 38.1069 28.3535 38.3479 28.056 38.3479Z" fill="white"/>
<path d="M28.056 35.3496C27.7587 35.3496 27.5176 35.1086 27.5176 34.8112V30.1906C27.5176 29.8932 27.7587 29.6521 28.056 29.6521C28.3534 29.6521 28.5945 29.8932 28.5945 30.1906V34.8112C28.5945 35.1086 28.3535 35.3496 28.056 35.3496Z" fill="white"/>
<path d="M50.6151 34.0038L46.1425 29.5552V31.7063H38.2285V36.2938H46.1425V38.4449L50.6151 34.0038Z" fill="#6E6EFF"/>
<path d="M48.317 45.28L48.9129 45.1537L48.2238 44.9582C47.8609 44.8553 47.5837 44.5614 47.5022 44.193L47.3744 43.6152L47.2466 44.193C47.1652 44.5614 46.888 44.8553 46.5251 44.9582L45.8359 45.1537L46.4319 45.28C46.8177 45.3618 47.1224 45.6575 47.2157 46.0407L47.3744 46.6922L47.5331 46.0407C47.6264 45.6575 47.9312 45.3618 48.317 45.28Z" fill="#C2C2FF"/>
<path d="M48.4908 22.9724L49.0867 22.8461L48.3975 22.6506C48.0346 22.5477 47.7575 22.2538 47.676 21.8854L47.5482 21.3076L47.4205 21.8854C47.339 22.2538 47.0618 22.5477 46.6989 22.6506L46.0098 22.8461L46.6057 22.9724C46.9915 23.0542 47.2962 23.3498 47.3895 23.7331L47.5482 24.3846L47.7069 23.7331C47.8002 23.3498 48.1049 23.0542 48.4908 22.9724Z" fill="#FF8A80"/>
</svg>
