<svg width="24" height="24" viewBox="0 0 24 24" fill="none" xmlns="http://www.w3.org/2000/svg">
<path d="M7 7C7 7.55228 7.44772 8 8 8C8.55228 8 9 7.55228 9 7H7ZM9 17C9 16.4477 8.55228 16 8 16C7.44772 16 7 16.4477 7 17H9ZM9.09202 21.782L9.54601 20.891L9.54601 20.891L9.09202 21.782ZM8.21799 20.908L7.32698 21.362H7.32698L8.21799 20.908ZM19.782 20.908L20.673 21.362L19.782 20.908ZM18.908 21.782L18.454 20.891L18.454 20.891L18.908 21.782ZM18.908 2.21799L18.454 3.10899V3.10899L18.908 2.21799ZM19.782 3.09202L18.891 3.54601V3.54601L19.782 3.09202ZM8.21799 3.09202L7.32698 2.63803V2.63803L8.21799 3.09202ZM9.09202 2.21799L8.63803 1.32698V1.32698L9.09202 2.21799ZM3 11C2.44772 11 2 11.4477 2 12C2 12.5523 2.44772 13 3 13L3 11ZM14 13C14.5523 13 15 12.5523 15 12C15 11.4477 14.5523 11 14 11V13ZM5.70711 9.70711C6.09763 9.31658 6.09763 8.68342 5.70711 8.29289C5.31658 7.90237 4.68342 7.90237 4.29289 8.29289L5.70711 9.70711ZM3.13137 10.8686L2.42427 10.1615H2.42427L3.13137 10.8686ZM3.13137 13.1314L2.42426 13.8385L2.42426 13.8385L3.13137 13.1314ZM4.29289 15.7071C4.68342 16.0976 5.31658 16.0976 5.70711 15.7071C6.09763 15.3166 6.09763 14.6834 5.70711 14.2929L4.29289 15.7071ZM2.46316 11.691L3.41422 12L2.46316 11.691ZM2.46316 12.309L3.41422 12L2.46316 12.309ZM9 7V5.2H7V7H9ZM11.2 3H16.8V1H11.2V3ZM19 5.2V18.8H21V5.2H19ZM16.8 21H11.2V23H16.8V21ZM9 18.8V17H7V18.8H9ZM11.2 21C10.6234 21 10.2512 20.9992 9.96784 20.9761C9.69617 20.9539 9.59545 20.9162 9.54601 20.891L8.63803 22.673C9.01641 22.8658 9.40963 22.9371 9.80497 22.9694C10.1886 23.0008 10.6564 23 11.2 23V21ZM7 18.8C7 19.3436 6.99922 19.8114 7.03057 20.195C7.06287 20.5904 7.13419 20.9836 7.32698 21.362L9.10899 20.454C9.0838 20.4045 9.04612 20.3038 9.02393 20.0322C9.00078 19.7488 9 19.3766 9 18.8H7ZM9.54601 20.891C9.35785 20.7951 9.20487 20.6422 9.10899 20.454L7.32698 21.362C7.6146 21.9265 8.07354 22.3854 8.63803 22.673L9.54601 20.891ZM19 18.8C19 19.3766 18.9992 19.7488 18.9761 20.0322C18.9539 20.3038 18.9162 20.4045 18.891 20.454L20.673 21.362C20.8658 20.9836 20.9371 20.5904 20.9694 20.195C21.0008 19.8114 21 19.3436 21 18.8H19ZM16.8 23C17.3436 23 17.8114 23.0008 18.195 22.9694C18.5904 22.9371 18.9836 22.8658 19.362 22.673L18.454 20.891C18.4045 20.9162 18.3038 20.9539 18.0322 20.9761C17.7488 20.9992 17.3766 21 16.8 21V23ZM18.891 20.454C18.7951 20.6422 18.6422 20.7951 18.454 20.891L19.362 22.673C19.9265 22.3854 20.3854 21.9265 20.673 21.362L18.891 20.454ZM16.8 3C17.3766 3 17.7488 3.00078 18.0322 3.02393C18.3038 3.04612 18.4045 3.0838 18.454 3.10899L19.362 1.32698C18.9836 1.13419 18.5904 1.06287 18.195 1.03057C17.8114 0.999222 17.3436 1 16.8 1V3ZM21 5.2C21 4.65645 21.0008 4.18864 20.9694 3.80497C20.9371 3.40963 20.8658 3.01641 20.673 2.63803L18.891 3.54601C18.9162 3.59545 18.9539 3.69617 18.9761 3.96784C18.9992 4.25117 19 4.62345 19 5.2H21ZM18.454 3.10899C18.6422 3.20487 18.7951 3.35785 18.891 3.54601L20.673 2.63803C20.3854 2.07354 19.9265 1.6146 19.362 1.32698L18.454 3.10899ZM9 5.2C9 4.62345 9.00078 4.25117 9.02393 3.96784C9.04612 3.69617 9.0838 3.59545 9.10899 3.54601L7.32698 2.63803C7.13419 3.01641 7.06287 3.40963 7.03057 3.80497C6.99922 4.18864 7 4.65645 7 5.2H9ZM11.2 1C10.6564 1 10.1886 0.999222 9.80497 1.03057C9.40963 1.06287 9.01641 1.13419 8.63803 1.32698L9.54601 3.10899C9.59545 3.0838 9.69617 3.04612 9.96784 3.02393C10.2512 3.00078 10.6234 3 11.2 3V1ZM9.10899 3.54601C9.20487 3.35785 9.35785 3.20487 9.54601 3.10899L8.63803 1.32698C8.07354 1.6146 7.6146 2.07354 7.32698 2.63803L9.10899 3.54601ZM3 13L14 13V11L3 11L3 13ZM4.29289 8.29289L2.42427 10.1615L3.83848 11.5757L5.70711 9.70711L4.29289 8.29289ZM2.42426 13.8385L4.29289 15.7071L5.70711 14.2929L3.83848 12.4243L2.42426 13.8385ZM2.42427 10.1615C2.23792 10.3479 2.05509 10.5296 1.91424 10.6955C1.76581 10.8704 1.60624 11.0922 1.5121 11.382L3.41422 12C3.39427 12.0614 3.3708 12.0701 3.43892 11.9899C3.51462 11.9007 3.6288 11.7854 3.83848 11.5757L2.42427 10.1615ZM3.83848 12.4243C3.62881 12.2146 3.51463 12.0993 3.43892 12.0101C3.3708 11.9299 3.39427 11.9386 3.41422 12L1.5121 12.618C1.60624 12.9078 1.76581 13.1296 1.91424 13.3045C2.05509 13.4704 2.23792 13.6521 2.42426 13.8385L3.83848 12.4243ZM1.5121 11.382C1.38159 11.7837 1.38159 12.2163 1.5121 12.618L3.41422 12V12L1.5121 11.382Z" fill="#FFF9F9"/>
</svg>
