<svg width="29" height="34" viewBox="0 0 29 34" fill="none" xmlns="http://www.w3.org/2000/svg">
<path d="M18 8.5C18 9.05229 18.4477 9.5 19 9.5C19.5523 9.5 20 9.05229 20 8.5H18ZM20 23.5C20 22.9477 19.5523 22.5 19 22.5C18.4477 22.5 18 22.9477 18 23.5H20ZM14.2 28.5C13.6477 28.5 13.2 28.9477 13.2 29.5C13.2 30.0523 13.6477 30.5 14.2 30.5V28.5ZM17.362 29.1549L17.8356 30.0356H17.8356L17.362 29.1549ZM18.673 27.771L17.7725 27.3363L17.7724 27.3363L18.673 27.771ZM2.63803 1.34515L3.1117 2.22585L3.1117 2.22585L2.63803 1.34515ZM0 6.06667C0 6.61895 0.447715 7.06667 1 7.06667C1.55228 7.06667 2 6.61895 2 6.06667H0ZM1.32698 2.72903L2.22755 3.16374V3.16374L1.32698 2.72903ZM18.673 2.72903L17.7724 3.16374V3.16374L18.673 2.72903ZM17.362 1.34515L17.8356 0.464444V0.464444L17.362 1.34515ZM5.09696 2.60952L4.7313 3.54027L5.09696 2.60952ZM11.097 4.96666L11.4626 4.03591L11.097 4.96666ZM8.90304 32.3905L9.26869 31.4597L8.90304 32.3905ZM2.90304 30.0333L2.53739 30.9641H2.53739L2.90304 30.0333ZM26.5 17C27.0523 17 27.5 16.5523 27.5 16C27.5 15.4477 27.0523 15 26.5 15V17ZM13 15C12.4477 15 12 15.4477 12 16C12 16.5523 12.4477 17 13 17V15ZM22.7929 19.7929C22.4024 20.1834 22.4024 20.8166 22.7929 21.2071C23.1834 21.5976 23.8166 21.5976 24.2071 21.2071L22.7929 19.7929ZM26.3029 17.6971L27.01 18.4042L26.3029 17.6971ZM26.3029 14.3029L27.0101 13.5958L27.0101 13.5958L26.3029 14.3029ZM24.2071 10.7929C23.8166 10.4024 23.1834 10.4024 22.7929 10.7929C22.4024 11.1834 22.4024 11.8166 22.7929 12.2071L24.2071 10.7929ZM27.3053 16.4635L26.3542 16.1545L27.3053 16.4635ZM27.3053 15.5365L26.3542 15.8455L27.3053 15.5365ZM20 8.5V6.06667H18V8.5H20ZM14.2 0H5.8V2H14.2V0ZM20 24.4333V23.5H18V24.4333H20ZM14.2 30.5C15.0227 30.5 15.7031 30.5009 16.2563 30.4532C16.8229 30.4043 17.3457 30.2991 17.8356 30.0356L16.8883 28.2742C16.7365 28.3558 16.5184 28.4231 16.0845 28.4606C15.6371 28.4991 15.0575 28.5 14.2 28.5V30.5ZM18 24.4333C18 25.3357 17.9993 25.9555 17.9621 26.436C17.9257 26.9063 17.8589 27.1571 17.7725 27.3363L19.5736 28.2057C19.8141 27.7074 19.9108 27.1761 19.9561 26.5904C20.0007 26.0148 20 25.3044 20 24.4333H18ZM17.8356 30.0356C18.5922 29.6286 19.1974 28.9849 19.5736 28.2057L17.7724 27.3363C17.5734 27.7487 17.2607 28.0739 16.8883 28.2742L17.8356 30.0356ZM5.8 0C4.97733 0 4.29686 -0.000865817 3.74368 0.0468415C3.17714 0.0957017 2.65434 0.200917 2.16436 0.464444L3.1117 2.22585C3.26345 2.14423 3.48156 2.07687 3.91553 2.03945C4.36286 2.00087 4.94251 2 5.8 2V0ZM2 6.06667C2 5.16428 2.0007 4.54447 2.03789 4.06398C2.07429 3.59366 2.14109 3.34285 2.22755 3.16374L0.426411 2.29432C0.185889 2.79259 0.0891961 3.32385 0.0438548 3.90963C-0.000698447 4.48523 0 5.19556 0 6.06667H2ZM2.16436 0.464444C1.40778 0.871354 0.802565 1.51506 0.426411 2.29432L2.22755 3.16374C2.42664 2.75131 2.7393 2.42614 3.1117 2.22585L2.16436 0.464444ZM20 6.06667C20 5.19556 20.0007 4.48523 19.9561 3.90963C19.9108 3.32385 19.8141 2.79259 19.5736 2.29432L17.7724 3.16374C17.8589 3.34285 17.9257 3.59366 17.9621 4.06398C17.9993 4.54447 18 5.16428 18 6.06667H20ZM14.2 2C15.0575 2 15.6371 2.00087 16.0845 2.03945C16.5184 2.07687 16.7365 2.14423 16.8883 2.22585L17.8356 0.464444C17.3457 0.200917 16.8229 0.0957017 16.2563 0.0468415C15.7031 -0.000865817 15.0227 0 14.2 0V2ZM19.5736 2.29432C19.1974 1.51506 18.5922 0.871354 17.8356 0.464444L16.8883 2.22585C17.2607 2.42614 17.5734 2.75131 17.7724 3.16374L19.5736 2.29432ZM4.7313 3.54027L10.7313 5.89741L11.4626 4.03591L5.46261 1.67877L4.7313 3.54027ZM12 7.75892V29.5982H14V7.75892H12ZM9.26869 31.4597L3.26869 29.1026L2.53739 30.9641L8.53739 33.3212L9.26869 31.4597ZM2 27.2411V5.40178H0V27.2411H2ZM3.2687 29.1026C2.50333 28.8019 2 28.0634 2 27.2411H0C0 28.8857 1.00665 30.3627 2.53739 30.9641L3.2687 29.1026ZM12 29.5982C12 31.0079 10.5807 31.9752 9.26869 31.4597L8.53739 33.3212C11.1615 34.3521 14 32.4175 14 29.5982H12ZM10.7313 5.89741C11.4967 6.19809 12 6.9366 12 7.75892H14C14 6.11429 12.9933 4.63727 11.4626 4.03591L10.7313 5.89741ZM5.46261 1.67877C2.83852 0.647875 0 2.58246 0 5.40178H2C2 3.99212 3.41927 3.02483 4.7313 3.54027L5.46261 1.67877ZM26.5 15H13V17H26.5V15ZM24.2071 21.2071L27.01 18.4042L25.5958 16.99L22.7929 19.7929L24.2071 21.2071ZM27.0101 13.5958L24.2071 10.7929L22.7929 12.2071L25.5958 15.0101L27.0101 13.5958ZM27.01 18.4042C27.2954 18.1188 27.5525 17.8628 27.7475 17.6331C27.95 17.3945 28.1436 17.1193 28.2563 16.7725L26.3542 16.1545C26.3541 16.1549 26.3533 16.1573 26.3509 16.1623C26.3485 16.1675 26.3437 16.1768 26.3349 16.191C26.3164 16.2209 26.2833 16.2675 26.2228 16.3388C26.0929 16.4917 25.9045 16.6813 25.5958 16.99L27.01 18.4042ZM25.5958 15.01C25.9045 15.3187 26.0929 15.5083 26.2228 15.6612C26.2833 15.7325 26.3164 15.7791 26.3349 15.809C26.3437 15.8232 26.3485 15.8326 26.3509 15.8378C26.3533 15.8427 26.3541 15.8451 26.3542 15.8455L28.2563 15.2275C28.1436 14.8807 27.95 14.6055 27.7475 14.3669C27.5525 14.1372 27.2954 13.8812 27.0101 13.5958L25.5958 15.01ZM28.2563 16.7725C28.4195 16.2704 28.4195 15.7296 28.2563 15.2275L26.3542 15.8455C26.3868 15.9459 26.3868 16.0541 26.3542 16.1545L28.2563 16.7725Z" fill="#FFF9F9"/>
</svg>
