<svg width="24" height="24" viewBox="0 0 24 24" fill="none" xmlns="http://www.w3.org/2000/svg">
<g clip-path="url(#clip0_374_2673)">
<path d="M21.75 17.7188C22.0665 17.3627 22.2971 16.9387 22.4239 16.4795C22.5507 16.0203 22.5704 15.5381 22.4815 15.07C22.3926 14.602 22.1974 14.1606 21.911 13.7799C21.6246 13.3992 21.2546 13.0893 20.8296 12.8741C20.4045 12.6589 19.9358 12.5441 19.4594 12.5387C18.983 12.5332 18.5117 12.6372 18.0819 12.8425C17.652 13.0479 17.275 13.3493 16.98 13.7233C16.6849 14.0974 16.4796 14.5341 16.38 15H12.75V11.4525C14.6513 11.3213 16.5713 10.6688 16.5713 9.14627C16.5725 8.34966 16.3655 7.56656 15.9708 6.87459C15.5762 6.18261 15.0075 5.60578 14.3213 5.20127C14.7272 4.75452 14.9947 4.19947 15.0912 3.60357C15.1877 3.00767 15.109 2.39657 14.8647 1.84454C14.6205 1.29251 14.2211 0.823303 13.7152 0.493946C13.2093 0.164589 12.6187 -0.0107422 12.015 -0.0107422C11.4114 -0.0107422 10.8207 0.164589 10.3148 0.493946C9.80889 0.823303 9.40955 1.29251 9.16528 1.84454C8.92101 2.39657 8.84234 3.00767 8.93882 3.60357C9.0353 4.19947 9.30278 4.75452 9.70876 5.20127C9.0222 5.60639 8.45342 6.18387 8.05876 6.8765C7.6641 7.56912 7.45727 8.35285 7.45876 9.15002C7.45876 9.62627 7.67626 10.5 9.14251 11.025C9.82153 11.2655 10.531 11.4094 11.25 11.4525V15H7.62001C7.46466 14.2443 7.03414 13.5731 6.41196 13.1168C5.78978 12.6605 5.0203 12.4516 4.25278 12.5305C3.48526 12.6095 2.77443 12.9707 2.25816 13.5441C1.7419 14.1175 1.45701 14.8622 1.45876 15.6338C1.45305 16.4032 1.73529 17.1469 2.25001 17.7188C1.5632 18.1236 0.994206 18.701 0.599511 19.3937C0.204816 20.0864 -0.0018548 20.8703 1.25425e-05 21.6675C1.25425e-05 22.14 0.217512 23.0175 1.68376 23.5425C2.61344 23.8573 3.58981 24.012 4.57126 24C6.67876 24 9.14251 23.3888 9.14251 21.6675C9.14401 20.8703 8.93718 20.0866 8.54252 19.394C8.14786 18.7014 7.57907 18.1239 6.89251 17.7188C7.20553 17.3691 7.43392 16.9521 7.56001 16.5H16.44C16.5705 16.9535 16.8041 17.3706 17.1225 17.7188C16.4357 18.1236 15.8667 18.701 15.472 19.3937C15.0773 20.0864 14.8706 20.8703 14.8725 21.6675C14.8725 22.14 15.09 23.0175 16.5563 23.5425C17.4812 23.8556 18.4523 24.0103 19.4288 24C21.5363 24 24 23.3888 24 21.6675C24.0015 20.8703 23.7947 20.0866 23.4 19.394C23.0054 18.7014 22.4366 18.1239 21.75 17.7188ZM12 1.50002C12.3197 1.50002 12.6322 1.59481 12.898 1.77241C13.1637 1.95 13.3709 2.20243 13.4932 2.49776C13.6156 2.79309 13.6476 3.11806 13.5852 3.43159C13.5228 3.74511 13.3689 4.0331 13.1429 4.25913C12.9168 4.48517 12.6288 4.6391 12.3153 4.70147C12.0018 4.76383 11.6768 4.73182 11.3815 4.60949C11.0862 4.48716 10.8337 4.28 10.6562 4.01421C10.4786 3.74842 10.3838 3.43594 10.3838 3.11627C10.3848 2.68792 10.5554 2.2774 10.8582 1.9745C11.1611 1.67161 11.5717 1.50101 12 1.50002ZM8.92876 9.14627C8.92652 8.44801 9.16286 7.76993 9.59865 7.22434C10.0344 6.67876 10.6435 6.2984 11.325 6.14627C11.7695 6.24627 12.2306 6.24627 12.675 6.14627C13.3562 6.29903 13.9649 6.67956 14.4005 7.225C14.8362 7.77045 15.0728 8.44819 15.0713 9.14627C15.0713 9.39377 14.0288 9.97877 12.0113 9.97877H12C9.97126 9.97877 8.92876 9.39377 8.92876 9.14627ZM19.4288 14.0213C19.7486 14.0213 20.0612 14.1162 20.3271 14.2939C20.593 14.4717 20.8001 14.7243 20.9223 15.0199C21.0446 15.3154 21.0763 15.6406 21.0137 15.9542C20.951 16.2678 20.7967 16.5558 20.5703 16.7817C20.3439 17.0076 20.0555 17.1612 19.7418 17.2232C19.428 17.2851 19.1029 17.2526 18.8076 17.1297C18.5124 17.0068 18.2602 16.799 18.0831 16.5327C17.9059 16.2664 17.8118 15.9536 17.8125 15.6338C17.8135 15.2058 17.9842 14.7956 18.2872 14.4933C18.5902 14.191 19.0008 14.0213 19.4288 14.0213ZM4.57126 14.0213C4.89124 14.0205 5.20425 14.1148 5.47061 14.2921C5.73698 14.4694 5.94472 14.7218 6.06751 15.0173C6.19031 15.3128 6.22263 15.638 6.16039 15.9519C6.09814 16.2658 5.94413 16.5541 5.71787 16.7804C5.49161 17.0066 5.20328 17.1606 4.8894 17.2229C4.57553 17.2851 4.25025 17.2528 3.95477 17.13C3.65928 17.0072 3.4069 16.7995 3.22959 16.5331C3.05228 16.2668 2.95802 15.9538 2.95876 15.6338C2.95975 15.2064 3.12996 14.7968 3.43215 14.4947C3.73433 14.1925 4.14391 14.0223 4.57126 14.0213ZM4.57126 22.5C2.54626 22.5 1.50001 21.915 1.50001 21.6675C1.49914 20.9696 1.73599 20.2922 2.17155 19.7469C2.60712 19.2016 3.21542 18.8209 3.89626 18.6675C4.34014 18.7725 4.80239 18.7725 5.24626 18.6675C5.92711 18.8209 6.53541 19.2016 6.97097 19.7469C7.40654 20.2922 7.64339 20.9696 7.64251 21.6675C7.64251 21.915 6.60001 22.5 4.57126 22.5ZM19.4288 22.5C17.4 22.5 16.3575 21.915 16.3575 21.6675C16.3566 20.9696 16.5935 20.2922 17.0291 19.7469C17.4646 19.2016 18.0729 18.8209 18.7538 18.6675C19.1976 18.7725 19.6599 18.7725 20.1038 18.6675C20.7846 18.8209 21.3929 19.2016 21.8285 19.7469C22.264 20.2922 22.5009 20.9696 22.5 21.6675C22.5 21.915 21.4538 22.5 19.4288 22.5Z" fill="#FFF9F9"/>
</g>
<defs>
<clipPath id="clip0_374_2673">
<rect width="24" height="24" fill="white"/>
</clipPath>
</defs>
</svg>
