<svg width="68" height="68" viewBox="0 0 68 68" fill="none" xmlns="http://www.w3.org/2000/svg">
<rect x="0.5" y="0.5" width="67" height="67" rx="33.5" fill="#C02739" fill-opacity="0.05"/>
<rect x="0.5" y="0.5" width="67" height="67" rx="33.5" stroke="#C02739"/>
<path fill-rule="evenodd" clip-rule="evenodd" d="M20.7574 23.7574C19 25.5147 19 28.3431 19 34C19 39.6569 19 42.4853 20.7574 44.2426C22.5147 46 25.3431 46 31 46H37C42.6569 46 45.4853 46 47.2426 44.2426C49 42.4853 49 39.6569 49 34C49 28.3431 49 25.5147 47.2426 23.7574C45.4853 22 42.6569 22 37 22H31C25.3431 22 22.5147 22 20.7574 23.7574ZM43.8643 27.2798C44.262 27.7571 44.1975 28.4665 43.7202 28.8642L40.4255 31.6098C39.0959 32.7178 38.0183 33.6159 37.0672 34.2276C36.0765 34.8648 35.1116 35.2673 34 35.2673C32.8884 35.2673 31.9235 34.8648 30.9328 34.2276C29.9817 33.6159 28.9041 32.7178 27.5745 31.6099L24.2798 28.8642C23.8025 28.4665 23.738 27.7571 24.1358 27.2798C24.5335 26.8025 25.2429 26.738 25.7202 27.1358L28.9586 29.8344C30.358 31.0006 31.3296 31.8076 32.1499 32.3352C32.9439 32.8459 33.4824 33.0173 34 33.0173C34.5176 33.0173 35.0561 32.8459 35.8501 32.3352C36.6704 31.8076 37.642 31.0006 39.0415 29.8344L42.2798 27.1358C42.7571 26.738 43.4665 26.8025 43.8643 27.2798Z" fill="#C02739"/>
</svg>
