<svg width="24" height="24" viewBox="0 0 24 24" fill="none" xmlns="http://www.w3.org/2000/svg">
<path d="M12 7C10.3431 7 9 8.34314 9 10C9 10.7604 9.28288 11.4547 9.74914 11.9834C9.89017 12.1433 9.94462 12.368 9.86209 12.5646L8.58234 15.6129C8.30567 16.2719 8.78965 17 9.50438 17H14.4956C15.2104 17 15.6943 16.2719 15.4177 15.6129L14.1379 12.5646C14.0554 12.368 14.1098 12.1433 14.2509 11.9834C14.7171 11.4547 15 10.7604 15 10C15 8.34314 13.6569 7 12 7Z" stroke="#FFF9F9" stroke-width="2"/>
<path d="M1 12C1 5.92487 5.92487 0.999999 12 1C18.0751 1 23 5.92487 23 12C23 18.0751 18.0751 23 12 23C5.92487 23 0.999999 18.0751 1 12Z" stroke="#FFF9F9" stroke-width="2"/>
</svg>
