<svg width="18" height="20" viewBox="0 0 18 20" fill="none" xmlns="http://www.w3.org/2000/svg">
<path d="M5 12C4.44772 12 4 12.4477 4 13C4 13.5523 4.44772 14 5 14V12ZM7 14C7.55228 14 8 13.5523 8 13C8 12.4477 7.55228 12 7 12V14ZM5 8C4.44772 8 4 8.44772 4 9C4 9.55229 4.44772 10 5 10V8ZM11 10C11.5523 10 12 9.55229 12 9C12 8.44772 11.5523 8 11 8V10ZM5 4C4.44772 4 4 4.44772 4 5C4 5.55228 4.44772 6 5 6V4ZM11 6C11.5523 6 12 5.55228 12 5C12 4.44772 11.5523 4 11 4V6ZM14 10.5C14 11.0523 14.4477 11.5 15 11.5C15.5523 11.5 16 11.0523 16 10.5H14ZM7 20C7.55228 20 8 19.5523 8 19C8 18.4477 7.55228 18 7 18V20ZM2.07805 18.7748L2.53903 17.8874H2.53902L2.07805 18.7748ZM1.22517 17.9219L0.337759 18.3829L0.33776 18.3829L1.22517 17.9219ZM13.9219 1.22517L13.461 2.11259L13.461 2.11259L13.9219 1.22517ZM14.7748 2.07805L13.8874 2.53902V2.53903L14.7748 2.07805ZM2.07805 1.22517L1.61708 0.33776L2.07805 1.22517ZM1.22517 2.07805L0.33776 1.61708L1.22517 2.07805ZM17.7071 15.7071C18.0976 15.3166 18.0976 14.6834 17.7071 14.2929C17.3166 13.9024 16.6834 13.9024 16.2929 14.2929L17.7071 15.7071ZM12.6464 18.6464L11.9393 19.3536L12.6464 18.6464ZM11.7071 16.2929C11.3166 15.9024 10.6834 15.9024 10.2929 16.2929C9.90237 16.6834 9.90237 17.3166 10.2929 17.7071L11.7071 16.2929ZM5 14H7V12H5V14ZM5 10H11V8H5V10ZM5 6H11V4H5V6ZM4.22 2H11.78V0H4.22V2ZM14 4.22V10.5H16V4.22H14ZM7 18H4.22V20H7V18ZM2 15.78V4.22H0V15.78H2ZM4.22 18C3.63372 18 3.25517 17.9992 2.96722 17.9753C2.69125 17.9524 2.58924 17.9135 2.53903 17.8874L1.61708 19.6622C2.00034 19.8613 2.39981 19.935 2.8017 19.9684C3.19162 20.0008 3.66729 20 4.22 20V18ZM0 15.78C0 16.3327 -0.00080359 16.8084 0.0315772 17.1983C0.064952 17.6002 0.138669 17.9997 0.337759 18.3829L2.11259 17.461C2.0865 17.4108 2.04763 17.3088 2.02472 17.0328C2.0008 16.7448 2 16.3663 2 15.78H0ZM2.53902 17.8874C2.35638 17.7925 2.20746 17.6436 2.11259 17.461L0.33776 18.3829C0.622387 18.9309 1.06915 19.3776 1.61708 19.6622L2.53902 17.8874ZM11.78 2C12.3663 2 12.7448 2.0008 13.0328 2.02472C13.3088 2.04763 13.4108 2.0865 13.461 2.11259L14.3829 0.33776C13.9997 0.138669 13.6002 0.064952 13.1983 0.0315772C12.8084 -0.00080359 12.3327 0 11.78 0V2ZM16 4.22C16 3.66729 16.0008 3.19162 15.9684 2.8017C15.935 2.39982 15.8613 2.00034 15.6622 1.61708L13.8874 2.53903C13.9135 2.58924 13.9524 2.69125 13.9753 2.96722C13.9992 3.25517 14 3.63372 14 4.22H16ZM13.461 2.11259C13.6436 2.20746 13.7925 2.35638 13.8874 2.53902L15.6622 1.61708C15.3776 1.06915 14.9309 0.622386 14.3829 0.337759L13.461 2.11259ZM4.22 0C3.66729 0 3.19162 -0.00080359 2.8017 0.0315772C2.39981 0.064952 2.00034 0.138669 1.61708 0.33776L2.53903 2.11259C2.58924 2.0865 2.69125 2.04763 2.96722 2.02472C3.25517 2.0008 3.63372 2 4.22 2V0ZM2 4.22C2 3.63372 2.0008 3.25517 2.02472 2.96722C2.04763 2.69125 2.0865 2.58924 2.11259 2.53903L0.33776 1.61708C0.138669 2.00034 0.064952 2.39982 0.0315772 2.8017C-0.00080359 3.19162 0 3.66729 0 4.22H2ZM1.61708 0.33776C1.06915 0.622386 0.622386 1.06915 0.33776 1.61708L2.11259 2.53903C2.20746 2.35638 2.35638 2.20746 2.53903 2.11259L1.61708 0.33776ZM14.0607 19.3536L17.7071 15.7071L16.2929 14.2929L12.6464 17.9393L14.0607 19.3536ZM13.3536 17.9393L11.7071 16.2929L10.2929 17.7071L11.9393 19.3536L13.3536 17.9393ZM12.6464 17.9393C12.8417 17.7441 13.1583 17.7441 13.3536 17.9393L11.9393 19.3536C12.5251 19.9393 13.4749 19.9393 14.0607 19.3536L12.6464 17.9393Z" fill="#FFF9F9"/>
</svg>
