<svg width="40" height="40" viewBox="0 0 40 40" fill="none" xmlns="http://www.w3.org/2000/svg">
<rect x="0.5" y="0.5" width="39" height="39" rx="19.5" fill="#C02739" fill-opacity="0.05"/>
<rect x="0.5" y="0.5" width="39" height="39" rx="19.5" stroke="#C02739"/>
<path fill-rule="evenodd" clip-rule="evenodd" d="M18.738 11.25C17.9644 11.25 17.319 11.8412 17.2515 12.6119C17.1102 14.2232 17.0745 15.8416 17.1444 17.4569C17.06 17.4626 16.9757 17.4685 16.8914 17.4746L15.4019 17.5832C14.4498 17.6526 13.9176 18.7142 14.4316 19.5185C15.5278 21.2341 16.9403 22.7254 18.5937 23.9132L19.1904 24.3418C19.6743 24.6894 20.3259 24.6894 20.8097 24.3418L21.4065 23.9132C23.0599 22.7254 24.4724 21.2341 25.5685 19.5185C26.0825 18.7142 25.5503 17.6526 24.5983 17.5832L23.1088 17.4746C23.0245 17.4685 22.9401 17.4626 22.8558 17.4569C22.9257 15.8416 22.8899 14.2232 22.7487 12.6119C22.6811 11.8412 22.0358 11.25 21.2622 11.25H18.738ZM18.6816 18.1147C18.5679 16.3275 18.5891 14.5342 18.7451 12.75H21.255C21.4111 14.5342 21.4323 16.3275 21.3186 18.1147C21.3058 18.3151 21.374 18.5122 21.5077 18.662C21.6414 18.8117 21.8296 18.9016 22.0302 18.9114C22.3535 18.9274 22.6767 18.9471 22.9997 18.9707L24.0815 19.0495C23.1219 20.4628 21.9204 21.6971 20.5313 22.6949L20.0001 23.0765L19.4688 22.6949C18.0797 21.6971 16.8782 20.4628 15.9187 19.0495L17.0005 18.9707C17.3234 18.9471 17.6466 18.9274 17.97 18.9114C18.1705 18.9016 18.3587 18.8117 18.4925 18.662C18.6262 18.5122 18.6943 18.3151 18.6816 18.1147Z" fill="#C02739"/>
<path d="M13.75 25C13.75 24.5858 13.4142 24.25 13 24.25C12.5858 24.25 12.25 24.5858 12.25 25V27C12.25 27.9665 13.0335 28.75 14 28.75H26C26.9665 28.75 27.75 27.9665 27.75 27V25C27.75 24.5858 27.4142 24.25 27 24.25C26.5858 24.25 26.25 24.5858 26.25 25V27C26.25 27.1381 26.1381 27.25 26 27.25H14C13.8619 27.25 13.75 27.1381 13.75 27V25Z" fill="#C02739"/>
</svg>
