<svg width="40" height="40" viewBox="0 0 40 40" fill="none" xmlns="http://www.w3.org/2000/svg">
<rect x="0.5" y="0.5" width="39" height="39" rx="19.5" fill="#C02739" fill-opacity="0.05"/>
<path d="M21 11C21 10.4477 20.5523 10 20 10C19.4477 10 19 10.4477 19 11L21 11ZM19 22C19 22.5523 19.4477 23 20 23C20.5523 23 21 22.5523 21 22H19ZM24.7071 20.7071C25.0976 20.3166 25.0976 19.6834 24.7071 19.2929C24.3166 18.9024 23.6834 18.9024 23.2929 19.2929L24.7071 20.7071ZM20.7071 23.2929L20 22.5858L20.7071 23.2929ZM19.2929 23.2929L20 22.5858H20L19.2929 23.2929ZM16.7071 19.2929C16.3166 18.9024 15.6834 18.9024 15.2929 19.2929C14.9024 19.6834 14.9024 20.3166 15.2929 20.7071L16.7071 19.2929ZM12 24C12 23.4477 11.5523 23 11 23C10.4477 23 10 23.4477 10 24H12ZM30 24C30 23.4477 29.5523 23 29 23C28.4477 23 28 23.4477 28 24H30ZM27.362 28.673L26.908 27.782H26.908L27.362 28.673ZM28.673 27.362L29.564 27.816L28.673 27.362ZM11.327 27.362L10.436 27.816L11.327 27.362ZM12.638 28.673L12.184 29.564H12.184L12.638 28.673ZM19 11L19 22H21L21 11L19 11ZM23.2929 19.2929L20 22.5858L21.4142 24L24.7071 20.7071L23.2929 19.2929ZM20 22.5858L16.7071 19.2929L15.2929 20.7071L18.5858 24L20 22.5858ZM20 22.5858H20L18.5858 24C19.3668 24.781 20.6332 24.781 21.4142 24L20 22.5858ZM10 24V24.2H12V24H10ZM15.8 30H24.2V28H15.8V30ZM30 24.2V24H28V24.2H30ZM24.2 30C25.0236 30 25.7014 30.0008 26.2518 29.9558C26.8139 29.9099 27.3306 29.8113 27.816 29.564L26.908 27.782C26.7516 27.8617 26.5274 27.9266 26.089 27.9624C25.6389 27.9992 25.0566 28 24.2 28V30ZM28 24.2C28 25.0566 27.9992 25.6389 27.9624 26.089C27.9266 26.5274 27.8617 26.7516 27.782 26.908L29.564 27.816C29.8113 27.3306 29.9099 26.8139 29.9558 26.2518C30.0008 25.7014 30 25.0236 30 24.2H28ZM27.816 29.564C28.5686 29.1805 29.1805 28.5686 29.564 27.816L27.782 26.908C27.5903 27.2843 27.2843 27.5903 26.908 27.782L27.816 29.564ZM10 24.2C10 25.0236 9.99922 25.7014 10.0442 26.2518C10.0901 26.8139 10.1887 27.3306 10.436 27.816L12.218 26.908C12.1383 26.7516 12.0734 26.5274 12.0376 26.089C12.0008 25.6389 12 25.0566 12 24.2H10ZM15.8 28C14.9434 28 14.3611 27.9992 13.911 27.9624C13.4726 27.9266 13.2484 27.8617 13.092 27.782L12.184 29.564C12.6694 29.8113 13.1861 29.9099 13.7482 29.9558C14.2986 30.0008 14.9764 30 15.8 30V28ZM10.436 27.816C10.8195 28.5686 11.4314 29.1805 12.184 29.564L13.092 27.782C12.7157 27.5903 12.4097 27.2843 12.218 26.908L10.436 27.816Z" fill="#C02739"/>
<rect x="0.5" y="0.5" width="39" height="39" rx="19.5" stroke="#C02739"/>
</svg>
