<svg width="40" height="40" viewBox="0 0 40 40" fill="none" xmlns="http://www.w3.org/2000/svg">
<rect x="-0.5" y="0.5" width="39" height="39" rx="19.5" transform="matrix(-1 0 0 1 39 0)" fill="#C02739" fill-opacity="0.05"/>
<rect x="-0.5" y="0.5" width="39" height="39" rx="19.5" transform="matrix(-1 0 0 1 39 0)" stroke="#C02739"/>
<path fill-rule="evenodd" clip-rule="evenodd" d="M22.25 13.5C22.25 11.7051 23.7051 10.25 25.5 10.25C27.2949 10.25 28.75 11.7051 28.75 13.5C28.75 15.2949 27.2949 16.75 25.5 16.75C24.5404 16.75 23.6779 16.3341 23.083 15.6727L20.3657 17.1549L17.3251 18.8923C17.5955 19.3664 17.75 19.9152 17.75 20.5C17.75 20.7963 17.7103 21.0834 17.636 21.3562L23.083 24.3273C23.6779 23.6659 24.5404 23.25 25.5 23.25C27.2949 23.25 28.75 24.7051 28.75 26.5C28.75 28.2949 27.2949 29.75 25.5 29.75C23.7051 29.75 22.25 28.2949 22.25 26.5C22.25 26.2036 22.2897 25.9166 22.364 25.6438L16.917 22.6727C16.3221 23.3341 15.4596 23.75 14.5 23.75C12.7051 23.75 11.25 22.2949 11.25 20.5C11.25 18.7051 12.7051 17.25 14.5 17.25C15.1507 17.25 15.7567 17.4412 16.2649 17.7705L19.6343 15.8451L22.364 14.3562C22.2897 14.0834 22.25 13.7964 22.25 13.5ZM25.5 11.75C24.5335 11.75 23.75 12.5335 23.75 13.5C23.75 14.4665 24.5335 15.25 25.5 15.25C26.4665 15.25 27.25 14.4665 27.25 13.5C27.25 12.5335 26.4665 11.75 25.5 11.75ZM14.5 18.75C13.5335 18.75 12.75 19.5335 12.75 20.5C12.75 21.4665 13.5335 22.25 14.5 22.25C15.4665 22.25 16.25 21.4665 16.25 20.5C16.25 19.5335 15.4665 18.75 14.5 18.75ZM23.75 26.5C23.75 25.5335 24.5335 24.75 25.5 24.75C26.4665 24.75 27.25 25.5335 27.25 26.5C27.25 27.4665 26.4665 28.25 25.5 28.25C24.5335 28.25 23.75 27.4665 23.75 26.5Z" fill="#C02739"/>
</svg>
