<svg width="17" height="20" viewBox="0 0 17 20" fill="none" xmlns="http://www.w3.org/2000/svg">
<path d="M15 12L13 10M13 10L11 8.00003M13 10L11 12M13 10L15 8.00003M16 5.00003V2.47706C16 1.7696 15.2855 1.28584 14.6286 1.54858L7.25722 4.49714C6.4979 4.80087 6 5.53628 6 6.35409V13.646C6 14.4638 6.4979 15.1992 7.25722 15.5029L14.6286 18.4515C15.2855 18.7142 16 18.2305 16 17.523V15M3 15H5C5.55228 15 6 14.5523 6 14V6.00003C6 5.44774 5.55228 5.00003 5 5.00003H3C1.89543 5.00003 1 5.89546 1 7.00003V13C1 14.1046 1.89543 15 3 15Z" stroke="#FFF9F9" stroke-opacity="0.75" stroke-width="2" stroke-linecap="round"/>
</svg>
