<svg width="25" height="18" viewBox="0 0 25 18" fill="none" xmlns="http://www.w3.org/2000/svg">
<path d="M17 6.76393C17.6137 7.31325 18 8.11154 18 9.00004C18 9.88854 17.6137 10.6868 17 11.2361M18.9689 4.50002C20.2144 5.59943 21 7.20793 21 8.99991C21 10.7919 20.2144 12.4004 18.9689 13.4998M21 2.29152C22.8412 3.93948 24 6.33434 24 8.99984C24 11.6653 22.8412 14.0602 21 15.7082M3 13H4C4.55228 13 5 12.5522 5 12V5.99996C5 5.44767 4.55228 4.99996 4 4.99996H3C1.89543 4.99996 1 5.89539 1 6.99996V11C1 12.1045 1.89543 13 3 13ZM5.55279 4.72356L11.5528 1.72356C12.2177 1.39111 13 1.87461 13 2.61799V15.3819C13 16.1253 12.2177 16.6088 11.5528 16.2763L5.55279 13.2763C5.214 13.107 5 12.7607 5 12.3819V5.61799C5 5.23922 5.214 4.89295 5.55279 4.72356Z" stroke="#FFF9F9" stroke-width="2" stroke-linecap="round"/>
</svg>
